{"glyphs":{"0":{"ha":863,"x_min":33,"x_max":802,"o":"m 530 738 q 676 707 615 738 q 770 620 738 677 q 802 485 802 563 q 734 244 802 361 q 553 54 667 127 q 310 -20 439 -20 q 163 11 225 -20 q 67 98 100 41 q 33 235 33 155 q 102 475 33 358 q 285 665 170 592 q 530 738 399 738 m 507 713 q 369 638 431 713 q 272 447 307 564 q 236 207 236 329 q 262 55 236 104 q 332 5 289 5 q 470 81 409 5 q 565 276 531 157 q 600 515 600 395 q 574 665 600 617 q 507 713 549 713 z "},"1":{"ha":516,"x_min":63,"x_max":488,"o":"m 73 0 l 248 587 q 63 528 183 559 l 67 557 q 233 610 161 581 q 354 667 305 639 q 460 734 403 695 l 488 734 l 269 0 l 73 0 z "},"2":{"ha":743,"x_min":-34,"x_max":665,"o":"m 442 737 q 560 720 510 737 q 637 669 610 702 q 665 591 665 636 q 615 471 665 530 q 498 366 566 412 q 326 256 430 319 q 205 179 231 199 q 317 161 234 179 q 459 140 414 140 q 546 157 514 140 q 578 207 578 174 q 527 275 578 250 l 543 294 q 601 244 583 272 q 620 175 620 216 q 597 86 620 127 q 525 18 574 44 q 404 -8 477 -8 q 272 12 357 -8 q 188 28 223 22 q 113 34 153 34 q 41 26 72 34 q -34 0 9 18 l -27 29 q 48 85 -6 45 q 250 243 164 170 q 403 407 336 315 q 470 585 470 498 q 442 669 470 640 q 364 699 414 699 q 254 667 310 699 q 162 585 198 635 q 125 484 125 535 q 144 433 125 449 q 205 416 163 416 q 271 430 243 416 q 334 473 299 444 l 351 454 q 274 404 314 420 q 197 387 234 387 q 123 408 154 387 q 92 482 92 429 q 138 603 92 544 q 263 700 183 662 q 442 737 344 737 z "},"3":{"ha":719,"x_min":-120,"x_max":658,"o":"m 430 739 q 551 722 499 739 q 630 674 602 705 q 658 600 658 642 q 609 487 658 538 q 487 400 561 436 q 336 347 413 365 q 529 303 456 345 q 601 176 601 261 q 485 -23 601 64 q 200 -159 369 -111 q -120 -210 31 -208 l -113 -184 q 122 -131 4 -177 q 318 0 239 -84 q 396 199 396 84 q 374 288 396 254 q 312 325 352 322 q 263 307 279 312 q 231 301 247 301 q 206 315 206 301 q 208 322 206 317 q 274 348 213 348 q 300 347 291 348 q 424 436 376 379 q 472 567 472 494 q 438 659 472 626 q 342 692 404 692 q 245 668 294 692 q 166 605 197 644 q 135 527 135 566 q 154 476 135 492 q 215 460 172 460 q 301 481 261 460 l 317 460 q 205 431 261 431 q 132 452 163 431 q 102 526 102 473 q 146 626 102 576 q 266 707 190 675 q 430 739 341 739 z "},"4":{"ha":743,"x_min":-80,"x_max":644,"o":"m 450 64 l 380 -196 l 184 -196 l 254 64 l -80 64 l -72 93 l 594 738 l 630 738 l 463 113 l 644 113 l 630 64 l 450 64 m 366 479 l -12 113 l 267 113 l 366 479 z "},"5":{"ha":655,"x_min":-123,"x_max":617,"o":"m 617 737 q 529 594 581 646 q 410 543 477 543 q 371 549 391 543 q 319 568 351 555 q 236 592 262 592 q 225 591 229 592 l 96 313 q 311 363 187 363 q 490 319 431 363 q 549 197 549 275 q 440 -14 549 76 q 175 -153 332 -104 q -123 -205 18 -201 l -115 -180 q 94 -134 -12 -180 q 271 -3 201 -89 q 341 195 341 82 q 212 321 341 321 q 75 283 146 321 l 61 290 l 254 720 q 302 717 280 721 q 358 704 324 713 q 472 685 425 685 q 547 699 516 685 q 601 747 578 713 l 617 737 z "},"6":{"ha":787,"x_min":39,"x_max":766,"o":"m 766 975 q 516 829 638 941 q 317 546 395 718 q 239 170 239 374 q 248 72 239 108 q 272 22 256 37 q 312 8 288 8 q 419 76 371 8 q 495 241 467 144 q 523 420 523 339 q 454 543 523 543 q 385 509 419 543 q 328 399 351 474 l 305 407 q 532 608 363 608 q 634 584 589 608 q 703 513 678 560 q 728 398 728 465 q 667 194 728 291 q 501 39 605 98 q 277 -20 397 -20 q 39 236 39 -20 q 157 593 39 427 q 444 869 275 760 q 758 1003 614 978 l 766 975 z "},"7":{"ha":699,"x_min":59,"x_max":784,"o":"m 704 625 q 529 415 591 496 q 414 232 467 334 q 329 0 362 130 q 311 -81 317 -46 q 306 -110 309 -96 q 264 -179 296 -152 q 182 -205 233 -205 q 99 -128 99 -205 q 106 -78 99 -106 q 196 110 126 10 q 349 299 265 210 q 561 513 433 389 q 703 656 665 615 q 590 584 631 608 q 510 547 550 561 q 426 533 469 533 q 366 539 392 533 q 305 557 340 545 q 210 577 248 577 q 137 556 165 577 q 109 494 109 536 q 277 354 109 395 l 269 332 q 59 532 59 374 q 82 626 59 582 q 154 698 105 670 q 277 726 203 726 q 353 718 317 726 q 442 694 388 711 q 537 669 498 677 q 623 661 576 661 q 693 673 663 661 q 745 718 722 685 l 784 718 l 704 625 z "},"8":{"ha":798,"x_min":-3,"x_max":812,"o":"m 812 854 q 517 564 812 705 l 537 546 q 619 466 588 500 q 671 389 650 433 q 692 290 692 345 q 633 131 692 202 q 478 20 575 60 q 270 -20 381 -20 q 130 0 192 -20 q 33 60 68 20 q -3 162 -3 101 q 98 354 -3 267 q 347 500 199 441 q 277 573 304 542 q 232 645 250 605 q 214 733 214 685 q 265 873 214 812 q 401 969 317 935 q 580 1003 485 1003 q 747 965 683 1003 q 812 854 812 927 m 501 578 q 589 707 555 630 q 624 864 624 783 q 546 978 624 978 q 470 951 506 978 q 413 878 435 924 q 391 781 391 833 q 419 675 391 722 q 501 578 448 629 m 297 5 q 397 37 349 5 q 474 121 444 68 q 503 239 503 175 q 484 334 503 291 q 437 410 465 376 q 362 487 408 443 q 275 396 313 450 q 215 277 237 342 q 193 143 193 212 q 217 41 193 77 q 297 5 241 5 z "},"9":{"ha":770,"x_min":3,"x_max":716,"o":"m 477 737 q 716 482 716 737 q 600 136 716 298 q 318 -132 484 -26 q 11 -261 151 -238 l 3 -233 q 245 -91 126 -200 q 439 184 363 18 q 515 548 515 351 q 506 646 515 610 q 482 696 498 682 q 442 710 467 710 q 335 642 384 710 q 259 477 287 574 q 232 298 232 379 q 300 175 232 175 q 370 210 336 175 q 427 319 404 245 l 450 311 q 222 110 392 110 q 121 134 165 110 q 52 205 77 158 q 26 319 26 252 q 88 523 26 427 q 253 679 149 620 q 477 737 357 737 z "}," ":{"ha":355,"x_min":0,"x_max":0,"o":""},"A":{"ha":907,"x_min":-128,"x_max":809,"o":"m 741 117 q 765 50 745 71 q 809 28 785 29 l 804 0 q 602 4 732 4 q 393 0 460 4 l 399 28 q 470 38 444 30 q 507 68 495 47 q 519 129 519 89 l 519 144 l 507 372 l 206 372 l 83 199 q 39 97 39 137 q 155 28 39 35 l 149 0 q -33 4 33 4 q -128 0 -85 4 l -122 28 q -52 69 -86 37 q 35 175 -18 101 l 614 990 q 650 989 637 989 q 685 990 665 989 l 741 117 m 485 767 l 226 400 l 505 400 l 485 767 z "},"Á":{"ha":907,"x_min":-128,"x_max":959,"o":"m 0 0 m 741 117 q 765 50 745 71 q 809 28 785 29 l 804 0 q 602 4 732 4 q 393 0 460 4 l 399 28 q 470 38 444 30 q 507 68 495 47 q 519 129 519 89 l 519 144 l 507 372 l 206 372 l 83 199 q 39 97 39 137 q 155 28 39 35 l 149 0 q -33 4 33 4 q -128 0 -85 4 l -122 28 q -52 69 -86 37 q 35 175 -18 101 l 614 990 q 650 989 637 989 q 685 990 665 989 l 741 117 m 485 767 l 226 400 l 505 400 l 485 767 m 562 1088 q 707 1217 627 1140 q 774 1277 751 1257 q 825 1312 798 1297 q 885 1329 854 1329 q 952 1291 932 1329 q 959 1263 959 1277 q 942 1219 959 1240 q 897 1183 924 1198 q 844 1160 873 1169 q 764 1135 815 1150 q 571 1072 643 1100 l 562 1088 z "},"Ă":{"ha":907,"x_min":-128,"x_max":1009,"o":"m 0 0 m 741 117 q 765 50 745 71 q 809 28 785 29 l 804 0 q 602 4 732 4 q 393 0 460 4 l 399 28 q 470 38 444 30 q 507 68 495 47 q 519 129 519 89 l 519 144 l 507 372 l 206 372 l 83 199 q 39 97 39 137 q 155 28 39 35 l 149 0 q -33 4 33 4 q -128 0 -85 4 l -122 28 q -52 69 -86 37 q 35 175 -18 101 l 614 990 q 650 989 637 989 q 685 990 665 989 l 741 117 m 485 767 l 226 400 l 505 400 l 485 767 m 676 1206 q 994 1286 861 1206 l 1009 1272 q 913 1174 972 1220 q 785 1099 854 1128 q 650 1070 716 1070 q 502 1126 557 1070 q 429 1271 446 1181 l 450 1280 q 543 1224 491 1241 q 676 1206 595 1206 z "},"Â":{"ha":907,"x_min":-128,"x_max":943,"o":"m 0 0 m 741 117 q 765 50 745 71 q 809 28 785 29 l 804 0 q 602 4 732 4 q 393 0 460 4 l 399 28 q 470 38 444 30 q 507 68 495 47 q 519 129 519 89 l 519 144 l 507 372 l 206 372 l 83 199 q 39 97 39 137 q 155 28 39 35 l 149 0 q -33 4 33 4 q -128 0 -85 4 l -122 28 q -52 69 -86 37 q 35 175 -18 101 l 614 990 q 650 989 637 989 q 685 990 665 989 l 741 117 m 485 767 l 226 400 l 505 400 l 485 767 m 658 1154 q 356 1071 513 1099 l 349 1090 q 564 1184 464 1126 q 726 1305 665 1242 l 751 1305 q 826 1177 782 1228 q 943 1090 869 1126 l 938 1071 q 786 1105 846 1086 q 658 1154 725 1124 z "},"Ä":{"ha":907,"x_min":-128,"x_max":932,"o":"m 0 0 m 741 117 q 765 50 745 71 q 809 28 785 29 l 804 0 q 602 4 732 4 q 393 0 460 4 l 399 28 q 470 38 444 30 q 507 68 495 47 q 519 129 519 89 l 519 144 l 507 372 l 206 372 l 83 199 q 39 97 39 137 q 155 28 39 35 l 149 0 q -33 4 33 4 q -128 0 -85 4 l -122 28 q -52 69 -86 37 q 35 175 -18 101 l 614 990 q 650 989 637 989 q 685 990 665 989 l 741 117 m 485 767 l 226 400 l 505 400 l 485 767 m 389 1156 q 405 1218 389 1192 q 449 1259 422 1245 q 509 1274 477 1274 q 575 1248 552 1274 q 599 1181 599 1222 q 582 1118 599 1144 q 537 1078 565 1091 q 478 1064 509 1064 q 411 1089 434 1064 q 389 1156 389 1114 m 722 1156 q 738 1218 722 1192 q 782 1259 755 1245 q 842 1274 810 1274 q 908 1248 885 1274 q 932 1181 932 1222 q 915 1118 932 1144 q 870 1078 898 1091 q 811 1064 842 1064 q 744 1089 767 1064 q 722 1156 722 1114 z "},"À":{"ha":907,"x_min":-128,"x_max":809,"o":"m 0 0 m 741 117 q 765 50 745 71 q 809 28 785 29 l 804 0 q 602 4 732 4 q 393 0 460 4 l 399 28 q 470 38 444 30 q 507 68 495 47 q 519 129 519 89 l 519 144 l 507 372 l 206 372 l 83 199 q 39 97 39 137 q 155 28 39 35 l 149 0 q -33 4 33 4 q -128 0 -85 4 l -122 28 q -52 69 -86 37 q 35 175 -18 101 l 614 990 q 650 989 637 989 q 685 990 665 989 l 741 117 m 485 767 l 226 400 l 505 400 l 485 767 m 713 1071 q 549 1136 637 1105 q 448 1180 478 1160 q 417 1211 429 1192 q 405 1251 405 1230 q 414 1284 405 1267 q 478 1318 435 1318 q 530 1303 508 1318 q 564 1274 549 1291 q 605 1223 580 1257 q 724 1086 668 1141 l 713 1071 z "},"Ā":{"ha":907,"x_min":-128,"x_max":932,"o":"m 0 0 m 741 117 q 765 50 745 71 q 809 28 785 29 l 804 0 q 602 4 732 4 q 393 0 460 4 l 399 28 q 470 38 444 30 q 507 68 495 47 q 519 129 519 89 l 519 144 l 507 372 l 206 372 l 83 199 q 39 97 39 137 q 155 28 39 35 l 149 0 q -33 4 33 4 q -128 0 -85 4 l -122 28 q -52 69 -86 37 q 35 175 -18 101 l 614 990 q 650 989 637 989 q 685 990 665 989 l 741 117 m 485 767 l 226 400 l 505 400 l 485 767 m 368 1137 l 376 1173 l 932 1173 l 924 1137 l 368 1137 z "},"Ą":{"ha":907,"x_min":-128,"x_max":809,"o":"m 757 2 q 655 -63 695 -22 q 616 -150 616 -105 q 662 -192 616 -192 q 712 -183 684 -192 q 764 -161 739 -175 l 779 -185 q 576 -261 682 -261 q 490 -239 522 -261 q 459 -178 459 -217 q 535 -71 459 -117 q 722 3 611 -25 q 602 4 643 4 q 393 0 460 4 l 399 28 q 470 38 444 30 q 507 68 495 47 q 519 129 519 89 l 519 144 l 507 372 l 206 372 l 83 199 q 39 97 39 137 q 155 28 39 35 l 149 0 q -33 4 33 4 q -128 0 -84 4 l -122 28 q -52 69 -86 37 q 35 175 -18 101 l 614 990 q 650 989 626 989 q 685 990 675 989 l 741 117 q 765 50 745 71 q 809 28 785 29 l 804 0 l 757 2 m 485 767 l 226 400 l 505 400 l 485 767 z "},"Å":{"ha":907,"x_min":-128,"x_max":829,"o":"m 0 0 m 741 117 q 765 50 745 71 q 809 28 785 29 l 804 0 q 602 4 732 4 q 393 0 460 4 l 399 28 q 470 38 444 30 q 507 68 495 47 q 519 129 519 89 l 519 144 l 507 372 l 206 372 l 83 199 q 39 97 39 137 q 155 28 39 35 l 149 0 q -33 4 33 4 q -128 0 -85 4 l -122 28 q -52 69 -86 37 q 35 175 -18 101 l 614 990 q 650 989 637 989 q 685 990 665 989 l 741 117 m 485 767 l 226 400 l 505 400 l 485 767 m 693 1301 q 762 1287 731 1301 q 811 1245 793 1272 q 829 1183 829 1218 q 805 1107 829 1142 q 741 1052 781 1072 q 656 1031 701 1031 q 562 1063 599 1031 q 525 1150 525 1095 q 547 1227 525 1192 q 608 1281 570 1261 q 693 1301 647 1301 m 663 1060 q 726 1076 696 1060 q 774 1120 756 1092 q 793 1181 793 1148 q 778 1231 793 1211 q 738 1262 762 1252 q 688 1272 714 1272 q 626 1255 655 1272 q 579 1210 597 1238 q 562 1151 562 1182 q 576 1101 562 1122 q 613 1070 590 1081 q 663 1060 637 1060 z "},"Ã":{"ha":907,"x_min":-128,"x_max":1001,"o":"m 0 0 m 741 117 q 765 50 745 71 q 809 28 785 29 l 804 0 q 602 4 732 4 q 393 0 460 4 l 399 28 q 470 38 444 30 q 507 68 495 47 q 519 129 519 89 l 519 144 l 507 372 l 206 372 l 83 199 q 39 97 39 137 q 155 28 39 35 l 149 0 q -33 4 33 4 q -128 0 -85 4 l -122 28 q -52 69 -86 37 q 35 175 -18 101 l 614 990 q 650 989 637 989 q 685 990 665 989 l 741 117 m 485 767 l 226 400 l 505 400 l 485 767 m 605 1287 q 667 1279 640 1287 q 713 1260 694 1272 q 758 1231 732 1249 q 813 1197 790 1208 q 869 1186 837 1186 q 925 1205 899 1186 q 976 1266 951 1223 l 1001 1259 q 902 1114 964 1162 q 770 1066 840 1066 q 709 1074 736 1066 q 662 1093 682 1082 q 617 1122 643 1104 q 562 1157 586 1145 q 507 1168 538 1168 q 451 1149 477 1168 q 399 1087 425 1130 l 374 1094 q 474 1240 412 1192 q 605 1287 536 1287 z "},"Æ":{"ha":1257,"x_min":-119,"x_max":1322,"o":"m 1037 979 q 1322 983 1236 979 q 1270 819 1301 923 q 1251 733 1257 773 l 1221 733 q 1231 831 1231 791 q 1202 924 1231 897 q 1108 951 1173 951 l 1021 951 q 948 943 972 951 q 910 912 924 935 q 882 836 895 888 l 795 509 l 903 509 q 968 529 942 509 q 1010 581 994 550 q 1046 664 1026 612 l 1076 664 q 1038 529 1057 606 l 1029 494 q 993 325 1015 444 l 962 325 q 966 368 962 332 q 970 411 970 397 q 954 460 970 441 q 897 481 939 478 l 787 481 l 699 147 q 687 80 687 102 q 696 50 687 60 q 724 36 705 39 q 778 32 743 32 l 879 32 q 989 55 946 32 q 1064 130 1032 78 q 1128 278 1095 182 l 1158 278 q 1129 178 1145 244 q 1093 0 1105 92 q 779 4 999 4 q 329 0 480 4 l 335 28 q 410 39 385 30 q 450 71 435 47 q 478 147 465 95 l 567 481 l 345 481 l 47 131 q 7 65 7 85 q 93 28 7 35 l 93 0 q -26 4 55 4 q -119 0 -86 4 l -119 28 q 0 117 -77 30 l 673 909 q 650 944 671 935 q 579 956 629 954 l 586 983 q 734 981 632 982 l 812 1074 l 848 1074 l 769 980 q 917 979 848 979 q 1037 979 985 979 m 661 836 l 667 860 l 368 509 l 574 509 l 661 836 z "},"B":{"ha":943,"x_min":-58,"x_max":918,"o":"m 545 516 q 716 483 646 511 q 822 407 787 454 q 857 300 857 359 q 799 137 857 205 q 636 35 740 69 q 400 0 533 0 q 319 1 380 0 q 157 4 233 4 q -58 0 18 4 l -53 28 q 22 39 -3 30 q 62 71 47 47 q 90 147 77 95 l 273 836 q 286 903 286 880 q 265 943 286 930 q 192 956 245 955 l 199 983 q 410 979 272 979 q 527 981 458 979 q 612 982 585 982 q 844 934 769 982 q 918 798 918 886 q 871 666 918 726 q 740 567 825 606 q 545 516 655 528 m 593 956 q 548 947 564 956 q 520 919 531 939 q 498 857 509 898 l 410 522 l 459 522 q 588 564 533 522 q 671 674 643 606 q 700 821 700 743 q 676 921 700 886 q 593 956 652 956 m 366 32 q 507 71 448 32 q 595 177 566 111 q 625 326 625 244 q 587 452 625 405 q 465 498 549 498 l 404 498 l 311 147 q 300 83 300 102 q 315 45 300 58 q 366 32 330 32 z "},"C":{"ha":962,"x_min":59,"x_max":1036,"o":"m 1036 983 q 947 664 989 863 l 916 664 q 927 774 927 730 q 905 879 927 838 q 741 970 855 970 q 528 872 629 970 q 367 617 428 774 q 307 297 307 461 q 356 91 307 159 q 495 22 406 22 q 604 47 548 22 q 702 114 661 71 q 765 200 738 151 q 827 334 792 248 l 858 334 q 776 0 792 93 l 745 0 q 749 47 749 30 q 732 83 749 83 q 704 71 722 83 q 576 4 640 27 q 432 -20 512 -20 q 153 69 246 -20 q 59 324 59 157 q 146 646 59 488 q 386 903 233 804 q 724 1003 538 1003 q 815 991 777 1003 q 879 960 854 979 q 930 913 905 941 q 950 901 940 901 q 1006 983 975 901 l 1036 983 z "},"Ć":{"ha":962,"x_min":59,"x_max":1036,"o":"m 59 0 m 1036 983 q 947 664 989 863 l 916 664 q 927 774 927 730 q 905 879 927 838 q 741 970 855 970 q 528 872 629 970 q 367 617 428 774 q 307 297 307 461 q 356 91 307 159 q 495 22 406 22 q 604 47 548 22 q 702 114 661 71 q 765 200 738 151 q 827 334 792 248 l 858 334 q 776 0 792 93 l 745 0 q 749 47 749 30 q 732 83 749 83 q 704 71 722 83 q 576 4 640 27 q 432 -20 512 -20 q 153 69 246 -20 q 59 324 59 157 q 146 646 59 488 q 386 903 233 804 q 724 1003 538 1003 q 815 991 777 1003 q 879 960 854 979 q 930 913 905 941 q 950 901 940 901 q 1006 983 975 901 l 1036 983 m 610 1088 q 756 1217 675 1140 q 823 1277 800 1257 q 874 1312 847 1297 q 934 1329 903 1329 q 1001 1291 981 1329 q 1008 1263 1008 1277 q 990 1219 1008 1240 q 945 1183 973 1198 q 893 1160 922 1169 q 812 1135 864 1150 q 620 1072 692 1100 l 610 1088 z "},"Č":{"ha":962,"x_min":59,"x_max":1093,"o":"m 59 0 m 1036 983 q 947 664 989 863 l 916 664 q 927 774 927 730 q 905 879 927 838 q 741 970 855 970 q 528 872 629 970 q 367 617 428 774 q 307 297 307 461 q 356 91 307 159 q 495 22 406 22 q 604 47 548 22 q 702 114 661 71 q 765 200 738 151 q 827 334 792 248 l 858 334 q 776 0 792 93 l 745 0 q 749 47 749 30 q 732 83 749 83 q 704 71 722 83 q 576 4 640 27 q 432 -20 512 -20 q 153 69 246 -20 q 59 324 59 157 q 146 646 59 488 q 386 903 233 804 q 724 1003 538 1003 q 815 991 777 1003 q 879 960 854 979 q 930 913 905 941 q 950 901 940 901 q 1006 983 975 901 l 1036 983 m 783 1219 q 1085 1301 930 1273 l 1093 1282 q 878 1188 978 1246 q 716 1067 778 1131 l 691 1067 q 615 1195 659 1144 q 498 1282 572 1246 l 503 1301 q 655 1267 595 1286 q 783 1219 715 1249 z "},"Ç":{"ha":962,"x_min":59,"x_max":1036,"o":"m 1036 983 q 947 664 989 863 l 916 664 q 927 774 927 730 q 905 879 927 838 q 741 970 855 970 q 528 872 629 970 q 367 617 428 774 q 307 297 307 461 q 356 91 307 159 q 495 22 406 22 q 604 47 548 22 q 702 114 661 71 q 765 200 738 151 q 827 334 792 248 l 858 334 q 776 0 792 93 l 745 0 q 749 47 749 30 q 732 83 749 83 q 704 71 722 83 q 583 6 643 29 q 449 -20 523 -17 l 418 -87 q 498 -74 456 -74 q 566 -91 541 -74 q 591 -140 591 -107 q 556 -208 591 -181 q 468 -248 522 -235 q 355 -261 414 -261 q 268 -253 309 -261 q 203 -234 227 -244 l 212 -212 q 324 -228 264 -228 q 409 -214 370 -228 q 449 -164 449 -199 q 405 -132 449 -132 q 356 -142 380 -132 l 412 -20 q 147 74 235 -15 q 59 324 59 162 q 146 646 59 488 q 386 903 233 804 q 724 1003 538 1003 q 815 991 777 1003 q 879 960 854 979 q 930 913 905 941 q 950 901 940 901 q 1006 983 975 901 l 1036 983 z "},"Ĉ":{"ha":962,"x_min":59,"x_max":1036,"o":"m 59 0 m 1036 983 q 947 664 989 863 l 916 664 q 927 774 927 730 q 905 879 927 838 q 741 970 855 970 q 528 872 629 970 q 367 617 428 774 q 307 297 307 461 q 356 91 307 159 q 495 22 406 22 q 604 47 548 22 q 702 114 661 71 q 765 200 738 151 q 827 334 792 248 l 858 334 q 776 0 792 93 l 745 0 q 749 47 749 30 q 732 83 749 83 q 704 71 722 83 q 576 4 640 27 q 432 -20 512 -20 q 153 69 246 -20 q 59 324 59 157 q 146 646 59 488 q 386 903 233 804 q 724 1003 538 1003 q 815 991 777 1003 q 879 960 854 979 q 930 913 905 941 q 950 901 940 901 q 1006 983 975 901 l 1036 983 m 707 1154 q 405 1071 562 1099 l 398 1090 q 613 1184 513 1126 q 774 1305 713 1242 l 800 1305 q 874 1177 831 1228 q 992 1090 918 1126 l 987 1071 q 834 1105 895 1086 q 707 1154 774 1124 z "},"Ċ":{"ha":962,"x_min":59,"x_max":1036,"o":"m 59 0 m 1036 983 q 947 664 989 863 l 916 664 q 927 774 927 730 q 905 879 927 838 q 741 970 855 970 q 528 872 629 970 q 367 617 428 774 q 307 297 307 461 q 356 91 307 159 q 495 22 406 22 q 604 47 548 22 q 702 114 661 71 q 765 200 738 151 q 827 334 792 248 l 858 334 q 776 0 792 93 l 745 0 q 749 47 749 30 q 732 83 749 83 q 704 71 722 83 q 576 4 640 27 q 432 -20 512 -20 q 153 69 246 -20 q 59 324 59 157 q 146 646 59 488 q 386 903 233 804 q 724 1003 538 1003 q 815 991 777 1003 q 879 960 854 979 q 930 913 905 941 q 950 901 940 901 q 1006 983 975 901 l 1036 983 m 604 1147 q 623 1215 604 1185 q 673 1261 641 1245 q 747 1277 706 1277 q 823 1254 795 1277 q 850 1191 850 1232 q 830 1125 850 1155 q 778 1079 811 1096 q 705 1062 745 1062 q 631 1084 657 1062 q 604 1147 604 1107 z "},"D":{"ha":1071,"x_min":-52,"x_max":1050,"o":"m 1050 652 q 972 342 1050 492 q 740 96 895 192 q 366 0 585 0 q 296 1 352 0 q 156 4 219 4 q -52 0 19 4 l -48 28 q 23 39 -1 30 q 62 72 47 47 q 91 147 77 96 l 273 836 q 283 896 283 876 q 263 939 283 925 q 192 956 243 953 l 196 983 q 380 979 292 979 l 424 979 q 631 983 570 983 q 942 899 834 983 q 1050 652 1050 815 m 366 25 q 612 123 507 25 q 771 376 716 222 q 825 695 825 531 q 771 892 825 827 q 601 958 718 958 q 547 949 565 958 q 518 917 529 941 q 493 839 508 894 l 311 144 q 296 68 296 88 q 312 35 296 44 q 366 25 327 25 z "},"Ð":{"ha":1071,"x_min":-52,"x_max":1050,"o":"m 631 983 q 942 899 834 983 q 1050 652 1050 815 q 972 342 1050 492 q 740 96 895 192 q 366 0 585 0 q 296 1 352 0 q 156 4 219 4 q -52 0 19 4 l -48 28 q 23 39 -1 30 q 62 72 47 47 q 91 147 77 96 l 178 479 l 106 479 l 114 515 l 188 515 l 273 836 q 283 896 283 876 q 263 939 283 925 q 192 956 243 953 l 196 983 q 380 979 292 979 l 424 979 q 631 983 570 983 m 366 25 q 612 123 507 25 q 771 376 716 222 q 825 695 825 531 q 771 892 825 827 q 601 958 718 958 q 547 949 565 958 q 518 917 529 941 q 493 839 508 894 l 408 515 l 670 515 l 661 479 l 399 479 l 311 144 q 296 68 296 88 q 312 35 296 44 q 366 25 327 25 z "},"Ď":{"ha":1071,"x_min":-52,"x_max":1050,"o":"m 0 0 m 1050 652 q 972 342 1050 492 q 740 96 895 192 q 366 0 585 0 q 296 1 352 0 q 156 4 219 4 q -52 0 19 4 l -48 28 q 23 39 -1 30 q 62 72 47 47 q 91 147 77 96 l 273 836 q 283 896 283 876 q 263 939 283 925 q 192 956 243 953 l 196 983 q 380 979 292 979 l 424 979 q 631 983 570 983 q 942 899 834 983 q 1050 652 1050 815 m 366 25 q 612 123 507 25 q 771 376 716 222 q 825 695 825 531 q 771 892 825 827 q 601 958 718 958 q 547 949 565 958 q 518 917 529 941 q 493 839 508 894 l 311 144 q 296 68 296 88 q 312 35 296 44 q 366 25 327 25 m 705 1219 q 1007 1301 852 1273 l 1015 1282 q 800 1188 900 1246 q 638 1067 700 1131 l 613 1067 q 537 1195 581 1144 q 420 1282 494 1246 l 425 1301 q 577 1267 517 1286 q 705 1219 637 1249 z "},"Đ":{"ha":1071,"x_min":-52,"x_max":1050,"o":"m 0 0 m 631 983 q 942 899 834 983 q 1050 652 1050 815 q 972 342 1050 492 q 740 96 895 192 q 366 0 585 0 q 296 1 352 0 q 156 4 219 4 q -52 0 19 4 l -48 28 q 23 39 -1 30 q 62 72 47 47 q 91 147 77 96 l 178 479 l 106 479 l 114 515 l 188 515 l 273 836 q 283 896 283 876 q 263 939 283 925 q 192 956 243 953 l 196 983 q 380 979 292 979 l 424 979 q 631 983 570 983 m 366 25 q 612 123 507 25 q 771 376 716 222 q 825 695 825 531 q 771 892 825 827 q 601 958 718 958 q 547 949 565 958 q 518 917 529 941 q 493 839 508 894 l 408 515 l 670 515 l 661 479 l 399 479 l 311 144 q 296 68 296 88 q 312 35 296 44 q 366 25 327 25 z "},"E":{"ha":869,"x_min":-60,"x_max":932,"o":"m 650 979 q 932 983 847 979 q 880 819 899 892 q 861 733 868 774 l 830 733 q 832 784 832 761 q 817 883 832 847 q 768 936 802 920 q 678 951 735 951 l 635 951 q 562 943 586 951 q 523 912 538 935 q 494 836 509 888 l 407 509 l 458 509 q 574 557 528 509 q 649 675 621 606 l 680 675 q 637 528 658 608 l 629 494 q 589 314 612 431 l 558 314 q 559 345 559 334 q 444 481 559 481 l 399 481 l 311 147 q 298 80 298 104 q 308 50 298 60 q 336 36 317 39 q 391 32 355 32 l 442 32 q 569 55 517 32 q 660 131 620 78 q 742 278 700 183 l 773 278 q 743 178 758 239 q 707 0 720 94 q 391 4 612 4 q -60 0 91 4 l -54 28 q 22 39 -3 30 q 61 71 47 47 q 90 147 76 95 l 273 836 q 286 903 286 884 q 276 935 286 924 q 247 950 267 945 q 192 956 228 954 l 199 983 q 650 979 349 979 z "},"É":{"ha":869,"x_min":-60,"x_max":932,"o":"m 0 0 m 650 979 q 932 983 847 979 q 880 819 899 892 q 861 733 868 774 l 830 733 q 832 784 832 761 q 817 883 832 847 q 768 936 802 920 q 678 951 735 951 l 635 951 q 562 943 586 951 q 523 912 538 935 q 494 836 509 888 l 407 509 l 458 509 q 574 557 528 509 q 649 675 621 606 l 680 675 q 637 528 658 608 l 629 494 q 589 314 612 431 l 558 314 q 559 345 559 334 q 444 481 559 481 l 399 481 l 311 147 q 298 80 298 104 q 308 50 298 60 q 336 36 317 39 q 391 32 355 32 l 442 32 q 569 55 517 32 q 660 131 620 78 q 742 278 700 183 l 773 278 q 743 178 758 239 q 707 0 720 94 q 391 4 612 4 q -60 0 91 4 l -54 28 q 22 39 -3 30 q 61 71 47 47 q 90 147 76 95 l 273 836 q 286 903 286 884 q 276 935 286 924 q 247 950 267 945 q 192 956 228 954 l 199 983 q 650 979 349 979 m 505 1088 q 651 1217 570 1140 q 718 1277 694 1257 q 769 1312 742 1297 q 829 1329 798 1329 q 896 1291 876 1329 q 903 1263 903 1277 q 885 1219 903 1240 q 840 1183 868 1198 q 788 1160 817 1169 q 707 1135 759 1150 q 515 1072 587 1100 l 505 1088 z "},"Ĕ":{"ha":869,"x_min":-60,"x_max":953,"o":"m 0 0 m 650 979 q 932 983 847 979 q 880 819 899 892 q 861 733 868 774 l 830 733 q 832 784 832 761 q 817 883 832 847 q 768 936 802 920 q 678 951 735 951 l 635 951 q 562 943 586 951 q 523 912 538 935 q 494 836 509 888 l 407 509 l 458 509 q 574 557 528 509 q 649 675 621 606 l 680 675 q 637 528 658 608 l 629 494 q 589 314 612 431 l 558 314 q 559 345 559 334 q 444 481 559 481 l 399 481 l 311 147 q 298 80 298 104 q 308 50 298 60 q 336 36 317 39 q 391 32 355 32 l 442 32 q 569 55 517 32 q 660 131 620 78 q 742 278 700 183 l 773 278 q 743 178 758 239 q 707 0 720 94 q 391 4 612 4 q -60 0 91 4 l -54 28 q 22 39 -3 30 q 61 71 47 47 q 90 147 76 95 l 273 836 q 286 903 286 884 q 276 935 286 924 q 247 950 267 945 q 192 956 228 954 l 199 983 q 650 979 349 979 m 620 1206 q 937 1286 804 1206 l 953 1272 q 857 1174 916 1220 q 729 1099 798 1128 q 593 1070 660 1070 q 446 1126 501 1070 q 372 1271 390 1181 l 394 1280 q 487 1224 435 1241 q 620 1206 539 1206 z "},"Ě":{"ha":869,"x_min":-60,"x_max":987,"o":"m 0 0 m 650 979 q 932 983 847 979 q 880 819 899 892 q 861 733 868 774 l 830 733 q 832 784 832 761 q 817 883 832 847 q 768 936 802 920 q 678 951 735 951 l 635 951 q 562 943 586 951 q 523 912 538 935 q 494 836 509 888 l 407 509 l 458 509 q 574 557 528 509 q 649 675 621 606 l 680 675 q 637 528 658 608 l 629 494 q 589 314 612 431 l 558 314 q 559 345 559 334 q 444 481 559 481 l 399 481 l 311 147 q 298 80 298 104 q 308 50 298 60 q 336 36 317 39 q 391 32 355 32 l 442 32 q 569 55 517 32 q 660 131 620 78 q 742 278 700 183 l 773 278 q 743 178 758 239 q 707 0 720 94 q 391 4 612 4 q -60 0 91 4 l -54 28 q 22 39 -3 30 q 61 71 47 47 q 90 147 76 95 l 273 836 q 286 903 286 884 q 276 935 286 924 q 247 950 267 945 q 192 956 228 954 l 199 983 q 650 979 349 979 m 678 1219 q 980 1301 825 1273 l 987 1282 q 773 1188 873 1246 q 611 1067 673 1131 l 586 1067 q 510 1195 554 1144 q 393 1282 467 1246 l 398 1301 q 550 1267 490 1286 q 678 1219 610 1249 z "},"Ê":{"ha":869,"x_min":-60,"x_max":932,"o":"m 0 0 m 650 979 q 932 983 847 979 q 880 819 899 892 q 861 733 868 774 l 830 733 q 832 784 832 761 q 817 883 832 847 q 768 936 802 920 q 678 951 735 951 l 635 951 q 562 943 586 951 q 523 912 538 935 q 494 836 509 888 l 407 509 l 458 509 q 574 557 528 509 q 649 675 621 606 l 680 675 q 637 528 658 608 l 629 494 q 589 314 612 431 l 558 314 q 559 345 559 334 q 444 481 559 481 l 399 481 l 311 147 q 298 80 298 104 q 308 50 298 60 q 336 36 317 39 q 391 32 355 32 l 442 32 q 569 55 517 32 q 660 131 620 78 q 742 278 700 183 l 773 278 q 743 178 758 239 q 707 0 720 94 q 391 4 612 4 q -60 0 91 4 l -54 28 q 22 39 -3 30 q 61 71 47 47 q 90 147 76 95 l 273 836 q 286 903 286 884 q 276 935 286 924 q 247 950 267 945 q 192 956 228 954 l 199 983 q 650 979 349 979 m 602 1154 q 300 1071 456 1099 l 293 1090 q 508 1184 408 1126 q 669 1305 608 1242 l 694 1305 q 769 1177 726 1228 q 887 1090 813 1126 l 882 1071 q 729 1105 790 1086 q 602 1154 669 1124 z "},"Ë":{"ha":869,"x_min":-60,"x_max":932,"o":"m 0 0 m 650 979 q 932 983 847 979 q 880 819 899 892 q 861 733 868 774 l 830 733 q 832 784 832 761 q 817 883 832 847 q 768 936 802 920 q 678 951 735 951 l 635 951 q 562 943 586 951 q 523 912 538 935 q 494 836 509 888 l 407 509 l 458 509 q 574 557 528 509 q 649 675 621 606 l 680 675 q 637 528 658 608 l 629 494 q 589 314 612 431 l 558 314 q 559 345 559 334 q 444 481 559 481 l 399 481 l 311 147 q 298 80 298 104 q 308 50 298 60 q 336 36 317 39 q 391 32 355 32 l 442 32 q 569 55 517 32 q 660 131 620 78 q 742 278 700 183 l 773 278 q 743 178 758 239 q 707 0 720 94 q 391 4 612 4 q -60 0 91 4 l -54 28 q 22 39 -3 30 q 61 71 47 47 q 90 147 76 95 l 273 836 q 286 903 286 884 q 276 935 286 924 q 247 950 267 945 q 192 956 228 954 l 199 983 q 650 979 349 979 m 332 1156 q 349 1218 332 1192 q 393 1259 366 1245 q 452 1274 420 1274 q 519 1248 496 1274 q 543 1181 543 1222 q 526 1118 543 1144 q 481 1078 509 1091 q 422 1064 453 1064 q 355 1089 378 1064 q 332 1156 332 1114 m 665 1156 q 682 1218 665 1192 q 726 1259 699 1245 q 785 1274 753 1274 q 852 1248 829 1274 q 876 1181 876 1222 q 859 1118 876 1144 q 814 1078 842 1091 q 755 1064 786 1064 q 688 1089 711 1064 q 665 1156 665 1114 z "},"Ė":{"ha":869,"x_min":-60,"x_max":932,"o":"m 0 0 m 650 979 q 932 983 847 979 q 880 819 899 892 q 861 733 868 774 l 830 733 q 832 784 832 761 q 817 883 832 847 q 768 936 802 920 q 678 951 735 951 l 635 951 q 562 943 586 951 q 523 912 538 935 q 494 836 509 888 l 407 509 l 458 509 q 574 557 528 509 q 649 675 621 606 l 680 675 q 637 528 658 608 l 629 494 q 589 314 612 431 l 558 314 q 559 345 559 334 q 444 481 559 481 l 399 481 l 311 147 q 298 80 298 104 q 308 50 298 60 q 336 36 317 39 q 391 32 355 32 l 442 32 q 569 55 517 32 q 660 131 620 78 q 742 278 700 183 l 773 278 q 743 178 758 239 q 707 0 720 94 q 391 4 612 4 q -60 0 91 4 l -54 28 q 22 39 -3 30 q 61 71 47 47 q 90 147 76 95 l 273 836 q 286 903 286 884 q 276 935 286 924 q 247 950 267 945 q 192 956 228 954 l 199 983 q 650 979 349 979 m 499 1147 q 517 1215 499 1185 q 568 1261 536 1245 q 642 1277 601 1277 q 718 1254 690 1277 q 745 1191 745 1232 q 725 1125 745 1155 q 673 1079 706 1096 q 600 1062 640 1062 q 526 1084 552 1062 q 499 1147 499 1107 z "},"È":{"ha":869,"x_min":-60,"x_max":932,"o":"m 0 0 m 650 979 q 932 983 847 979 q 880 819 899 892 q 861 733 868 774 l 830 733 q 832 784 832 761 q 817 883 832 847 q 768 936 802 920 q 678 951 735 951 l 635 951 q 562 943 586 951 q 523 912 538 935 q 494 836 509 888 l 407 509 l 458 509 q 574 557 528 509 q 649 675 621 606 l 680 675 q 637 528 658 608 l 629 494 q 589 314 612 431 l 558 314 q 559 345 559 334 q 444 481 559 481 l 399 481 l 311 147 q 298 80 298 104 q 308 50 298 60 q 336 36 317 39 q 391 32 355 32 l 442 32 q 569 55 517 32 q 660 131 620 78 q 742 278 700 183 l 773 278 q 743 178 758 239 q 707 0 720 94 q 391 4 612 4 q -60 0 91 4 l -54 28 q 22 39 -3 30 q 61 71 47 47 q 90 147 76 95 l 273 836 q 286 903 286 884 q 276 935 286 924 q 247 950 267 945 q 192 956 228 954 l 199 983 q 650 979 349 979 m 656 1071 q 493 1136 581 1105 q 392 1180 422 1160 q 360 1211 372 1192 q 349 1251 349 1230 q 358 1284 349 1267 q 422 1318 378 1318 q 473 1303 452 1318 q 508 1274 492 1291 q 549 1223 524 1257 q 668 1086 612 1141 l 656 1071 z "},"Ē":{"ha":869,"x_min":-60,"x_max":932,"o":"m 0 0 m 650 979 q 932 983 847 979 q 880 819 899 892 q 861 733 868 774 l 830 733 q 832 784 832 761 q 817 883 832 847 q 768 936 802 920 q 678 951 735 951 l 635 951 q 562 943 586 951 q 523 912 538 935 q 494 836 509 888 l 407 509 l 458 509 q 574 557 528 509 q 649 675 621 606 l 680 675 q 637 528 658 608 l 629 494 q 589 314 612 431 l 558 314 q 559 345 559 334 q 444 481 559 481 l 399 481 l 311 147 q 298 80 298 104 q 308 50 298 60 q 336 36 317 39 q 391 32 355 32 l 442 32 q 569 55 517 32 q 660 131 620 78 q 742 278 700 183 l 773 278 q 743 178 758 239 q 707 0 720 94 q 391 4 612 4 q -60 0 91 4 l -54 28 q 22 39 -3 30 q 61 71 47 47 q 90 147 76 95 l 273 836 q 286 903 286 884 q 276 935 286 924 q 247 950 267 945 q 192 956 228 954 l 199 983 q 650 979 349 979 m 312 1137 l 320 1173 l 876 1173 l 867 1137 l 312 1137 z "},"Ę":{"ha":869,"x_min":-60,"x_max":932,"o":"m 650 979 q 932 983 847 979 q 880 819 899 892 q 861 733 868 774 l 830 733 q 832 784 832 761 q 817 883 832 847 q 768 936 802 920 q 678 951 735 951 l 635 951 q 562 943 586 951 q 523 912 538 935 q 494 836 509 888 l 407 509 l 458 509 q 574 557 528 509 q 649 675 621 606 l 680 675 q 637 528 658 608 l 629 494 q 589 314 612 431 l 558 314 q 559 345 559 334 q 444 481 559 481 l 399 481 l 311 147 q 298 80 298 104 q 308 50 298 60 q 336 36 317 39 q 391 32 355 32 l 442 32 q 569 55 517 32 q 660 131 620 78 q 742 278 700 183 l 773 278 q 743 178 758 239 q 707 0 720 94 l 693 1 q 594 -65 633 -24 q 556 -150 556 -106 q 602 -192 556 -192 q 652 -183 625 -192 q 704 -161 680 -175 l 720 -185 q 517 -261 622 -261 q 431 -239 462 -261 q 399 -178 399 -217 q 474 -72 399 -118 q 657 2 548 -26 q 391 4 571 4 q -60 0 91 4 l -54 28 q 22 39 -3 30 q 61 71 47 47 q 90 147 76 95 l 273 836 q 286 903 286 884 q 276 935 286 924 q 247 950 267 945 q 192 956 228 954 l 199 983 q 650 979 349 979 z "},"F":{"ha":817,"x_min":-60,"x_max":932,"o":"m 650 979 q 932 983 847 979 q 878 814 899 893 q 848 692 858 743 l 817 692 q 823 775 823 742 q 805 879 823 840 q 752 935 788 918 q 659 951 717 951 l 627 951 q 558 943 581 951 q 521 912 535 935 q 494 836 507 888 l 406 503 l 469 503 q 582 549 537 503 q 659 669 627 595 l 690 669 q 644 508 667 596 l 640 489 q 596 283 619 405 l 565 283 q 566 315 566 294 q 541 434 566 393 q 455 475 517 475 l 398 475 l 311 147 q 300 86 300 106 q 312 51 300 63 q 348 34 323 39 q 420 28 373 29 l 414 0 q 166 4 328 4 q -60 0 14 4 l -54 28 q 22 39 -3 30 q 61 71 47 47 q 90 147 76 95 l 273 836 q 286 903 286 884 q 276 935 286 924 q 247 950 267 945 q 192 956 228 954 l 199 983 q 650 979 349 979 z "},"G":{"ha":1026,"x_min":53,"x_max":1057,"o":"m 472 8 q 531 16 502 8 q 579 37 559 24 q 613 74 602 52 q 636 139 625 96 l 668 261 q 680 333 680 307 q 669 370 680 357 q 633 388 657 382 q 564 395 609 393 l 571 422 q 807 418 651 418 q 1003 422 942 418 l 996 395 q 946 384 962 392 q 919 352 930 375 q 893 275 907 329 l 819 0 l 791 0 q 792 17 792 6 q 782 63 792 46 q 753 79 772 79 q 710 71 732 79 q 654 44 688 62 l 635 35 q 435 -20 534 -20 q 229 18 315 -20 q 98 126 143 55 q 53 298 53 197 q 139 624 53 459 q 378 896 225 788 q 720 1003 530 1003 q 818 991 777 1003 q 888 961 859 980 q 947 913 918 942 q 971 900 960 900 q 1026 983 998 900 l 1057 983 q 968 664 1012 865 l 937 664 q 945 768 945 720 q 925 869 945 831 q 842 950 897 922 q 711 978 787 978 q 479 857 578 978 q 326 565 379 736 q 273 253 273 394 q 322 68 273 128 q 472 8 372 8 z "},"Ǵ":{"ha":1026,"x_min":53,"x_max":1057,"o":"m 53 0 m 472 8 q 531 16 502 8 q 579 37 559 24 q 613 74 602 52 q 636 139 625 96 l 668 261 q 680 333 680 307 q 669 370 680 357 q 633 388 657 382 q 564 395 609 393 l 571 422 q 807 418 651 418 q 1003 422 942 418 l 996 395 q 946 384 962 392 q 919 352 930 375 q 893 275 907 329 l 819 0 l 791 0 q 792 17 792 6 q 782 63 792 46 q 753 79 772 79 q 710 71 732 79 q 654 44 688 62 l 635 35 q 435 -20 534 -20 q 229 18 315 -20 q 98 126 143 55 q 53 298 53 197 q 139 624 53 459 q 378 896 225 788 q 720 1003 530 1003 q 818 991 777 1003 q 888 961 859 980 q 947 913 918 942 q 971 900 960 900 q 1026 983 998 900 l 1057 983 q 968 664 1012 865 l 937 664 q 945 768 945 720 q 925 869 945 831 q 842 950 897 922 q 711 978 787 978 q 479 857 578 978 q 326 565 379 736 q 273 253 273 394 q 322 68 273 128 q 472 8 372 8 m 627 1088 q 772 1217 692 1140 q 840 1277 816 1257 q 890 1312 863 1297 q 950 1329 920 1329 q 1017 1291 998 1329 q 1024 1263 1024 1277 q 1007 1219 1024 1240 q 962 1183 989 1198 q 909 1160 938 1169 q 829 1135 880 1150 q 636 1072 708 1100 l 627 1088 z "},"Ğ":{"ha":1026,"x_min":53,"x_max":1074,"o":"m 53 0 m 472 8 q 531 16 502 8 q 579 37 559 24 q 613 74 602 52 q 636 139 625 96 l 668 261 q 680 333 680 307 q 669 370 680 357 q 633 388 657 382 q 564 395 609 393 l 571 422 q 807 418 651 418 q 1003 422 942 418 l 996 395 q 946 384 962 392 q 919 352 930 375 q 893 275 907 329 l 819 0 l 791 0 q 792 17 792 6 q 782 63 792 46 q 753 79 772 79 q 710 71 732 79 q 654 44 688 62 l 635 35 q 435 -20 534 -20 q 229 18 315 -20 q 98 126 143 55 q 53 298 53 197 q 139 624 53 459 q 378 896 225 788 q 720 1003 530 1003 q 818 991 777 1003 q 888 961 859 980 q 947 913 918 942 q 971 900 960 900 q 1026 983 998 900 l 1057 983 q 968 664 1012 865 l 937 664 q 945 768 945 720 q 925 869 945 831 q 842 950 897 922 q 711 978 787 978 q 479 857 578 978 q 326 565 379 736 q 273 253 273 394 q 322 68 273 128 q 472 8 372 8 m 741 1206 q 1059 1286 926 1206 l 1074 1272 q 978 1174 1037 1220 q 850 1099 920 1128 q 715 1070 781 1070 q 567 1126 623 1070 q 494 1271 511 1181 l 515 1280 q 608 1224 556 1241 q 741 1206 661 1206 z "},"Ĝ":{"ha":1026,"x_min":53,"x_max":1057,"o":"m 53 0 m 472 8 q 531 16 502 8 q 579 37 559 24 q 613 74 602 52 q 636 139 625 96 l 668 261 q 680 333 680 307 q 669 370 680 357 q 633 388 657 382 q 564 395 609 393 l 571 422 q 807 418 651 418 q 1003 422 942 418 l 996 395 q 946 384 962 392 q 919 352 930 375 q 893 275 907 329 l 819 0 l 791 0 q 792 17 792 6 q 782 63 792 46 q 753 79 772 79 q 710 71 732 79 q 654 44 688 62 l 635 35 q 435 -20 534 -20 q 229 18 315 -20 q 98 126 143 55 q 53 298 53 197 q 139 624 53 459 q 378 896 225 788 q 720 1003 530 1003 q 818 991 777 1003 q 888 961 859 980 q 947 913 918 942 q 971 900 960 900 q 1026 983 998 900 l 1057 983 q 968 664 1012 865 l 937 664 q 945 768 945 720 q 925 869 945 831 q 842 950 897 922 q 711 978 787 978 q 479 857 578 978 q 326 565 379 736 q 273 253 273 394 q 322 68 273 128 q 472 8 372 8 m 723 1154 q 421 1071 578 1099 l 414 1090 q 629 1184 529 1126 q 791 1305 730 1242 l 816 1305 q 891 1177 847 1228 q 1008 1090 935 1126 l 1003 1071 q 851 1105 911 1086 q 723 1154 790 1124 z "},"Ģ":{"ha":1026,"x_min":53,"x_max":1057,"o":"m 53 0 m 472 8 q 531 16 502 8 q 579 37 559 24 q 613 74 602 52 q 636 139 625 96 l 668 261 q 680 333 680 307 q 669 370 680 357 q 633 388 657 382 q 564 395 609 393 l 571 422 q 807 418 651 418 q 1003 422 942 418 l 996 395 q 946 384 962 392 q 919 352 930 375 q 893 275 907 329 l 819 0 l 791 0 q 792 17 792 6 q 782 63 792 46 q 753 79 772 79 q 710 71 732 79 q 654 44 688 62 l 635 35 q 435 -20 534 -20 q 229 18 315 -20 q 98 126 143 55 q 53 298 53 197 q 139 624 53 459 q 378 896 225 788 q 720 1003 530 1003 q 818 991 777 1003 q 888 961 859 980 q 947 913 918 942 q 971 900 960 900 q 1026 983 998 900 l 1057 983 q 968 664 1012 865 l 937 664 q 945 768 945 720 q 925 869 945 831 q 842 950 897 922 q 711 978 787 978 q 479 857 578 978 q 326 565 379 736 q 273 253 273 394 q 322 68 273 128 q 472 8 372 8 m 338 -183 q 355 -127 338 -152 q 400 -87 372 -102 q 463 -73 429 -73 q 531 -96 503 -73 q 558 -159 558 -118 q 505 -278 558 -232 q 367 -335 452 -325 l 363 -308 q 456 -281 417 -303 q 502 -227 494 -260 q 421 -251 469 -251 q 360 -234 382 -251 q 338 -183 338 -216 z "},"Ġ":{"ha":1026,"x_min":53,"x_max":1057,"o":"m 53 0 m 472 8 q 531 16 502 8 q 579 37 559 24 q 613 74 602 52 q 636 139 625 96 l 668 261 q 680 333 680 307 q 669 370 680 357 q 633 388 657 382 q 564 395 609 393 l 571 422 q 807 418 651 418 q 1003 422 942 418 l 996 395 q 946 384 962 392 q 919 352 930 375 q 893 275 907 329 l 819 0 l 791 0 q 792 17 792 6 q 782 63 792 46 q 753 79 772 79 q 710 71 732 79 q 654 44 688 62 l 635 35 q 435 -20 534 -20 q 229 18 315 -20 q 98 126 143 55 q 53 298 53 197 q 139 624 53 459 q 378 896 225 788 q 720 1003 530 1003 q 818 991 777 1003 q 888 961 859 980 q 947 913 918 942 q 971 900 960 900 q 1026 983 998 900 l 1057 983 q 968 664 1012 865 l 937 664 q 945 768 945 720 q 925 869 945 831 q 842 950 897 922 q 711 978 787 978 q 479 857 578 978 q 326 565 379 736 q 273 253 273 394 q 322 68 273 128 q 472 8 372 8 m 621 1147 q 639 1215 621 1185 q 690 1261 657 1245 q 763 1277 722 1277 q 839 1254 812 1277 q 866 1191 866 1232 q 847 1125 866 1155 q 794 1079 827 1096 q 722 1062 762 1062 q 647 1084 673 1062 q 621 1147 621 1107 z "},"H":{"ha":1124,"x_min":-58,"x_max":1227,"o":"m 998 979 q 1227 983 1151 979 l 1220 956 q 1144 945 1169 954 q 1105 912 1120 936 q 1077 836 1090 888 l 894 147 q 882 80 882 102 q 891 49 882 60 q 920 34 901 38 q 976 28 940 29 l 970 0 q 743 4 897 4 q 524 0 602 4 l 530 28 q 605 39 581 30 q 645 71 630 47 q 673 147 659 95 l 762 481 l 399 481 l 311 147 q 299 80 299 102 q 308 49 299 60 q 337 34 317 38 q 393 28 357 29 l 387 0 q 169 4 310 4 q -58 0 18 4 l -51 28 q 22 39 -3 30 q 61 72 46 47 q 90 147 76 96 l 273 836 q 285 903 285 880 q 275 935 285 924 q 247 950 266 945 q 191 956 227 954 l 198 983 q 425 979 269 979 q 644 983 558 979 l 637 956 q 561 945 586 954 q 522 912 536 936 q 494 836 507 888 l 407 509 l 769 509 l 857 836 q 869 903 869 879 q 859 935 869 924 q 830 950 850 945 q 774 956 810 954 l 781 983 q 998 979 857 979 z "},"Ħ":{"ha":1126,"x_min":-56,"x_max":1230,"o":"m 1222 956 q 1146 945 1171 954 q 1107 912 1122 936 q 1079 836 1093 888 l 1054 741 l 1179 741 l 1171 713 l 1046 713 l 896 147 q 884 80 884 102 q 893 49 884 60 q 922 34 903 38 q 978 28 942 29 l 972 0 q 745 4 899 4 q 526 0 604 4 l 532 28 q 607 39 583 30 q 647 71 632 47 q 675 147 661 95 l 764 481 l 401 481 l 313 147 q 301 80 301 102 q 310 49 301 60 q 339 34 319 38 q 395 28 359 29 l 389 0 q 171 4 312 4 q -56 0 20 4 l -49 28 q 24 39 -1 30 q 63 72 48 47 q 92 147 78 96 l 242 713 l 128 713 l 135 741 l 250 741 l 275 836 q 287 903 287 880 q 277 935 287 924 q 249 950 268 945 q 193 956 229 954 l 200 983 q 427 979 271 979 q 646 983 560 979 l 639 956 q 563 945 588 954 q 524 912 538 936 q 496 836 509 888 l 471 741 l 833 741 l 859 836 q 871 903 871 879 q 861 935 871 924 q 832 950 852 945 q 777 956 812 954 l 783 983 q 1000 979 859 979 q 1230 983 1154 979 l 1222 956 m 463 713 l 409 509 l 771 509 l 825 713 l 463 713 z "},"Ĥ":{"ha":1124,"x_min":-58,"x_max":1227,"o":"m 0 0 m 998 979 q 1227 983 1151 979 l 1220 956 q 1144 945 1169 954 q 1105 912 1120 936 q 1077 836 1090 888 l 894 147 q 882 80 882 102 q 891 49 882 60 q 920 34 901 38 q 976 28 940 29 l 970 0 q 743 4 897 4 q 524 0 602 4 l 530 28 q 605 39 581 30 q 645 71 630 47 q 673 147 659 95 l 762 481 l 399 481 l 311 147 q 299 80 299 102 q 308 49 299 60 q 337 34 317 38 q 393 28 357 29 l 387 0 q 169 4 310 4 q -58 0 18 4 l -51 28 q 22 39 -3 30 q 61 72 46 47 q 90 147 76 96 l 273 836 q 285 903 285 880 q 275 935 285 924 q 247 950 266 945 q 191 956 227 954 l 198 983 q 425 979 269 979 q 644 983 558 979 l 637 956 q 561 945 586 954 q 522 912 536 936 q 494 836 507 888 l 407 509 l 769 509 l 857 836 q 869 903 869 879 q 859 935 869 924 q 830 950 850 945 q 774 956 810 954 l 781 983 q 998 979 857 979 m 726 1154 q 425 1071 581 1099 l 418 1090 q 633 1184 532 1126 q 794 1305 733 1242 l 819 1305 q 894 1177 850 1228 q 1012 1090 938 1126 l 1006 1071 q 854 1105 915 1086 q 726 1154 793 1124 z "},"I":{"ha":541,"x_min":-58,"x_max":644,"o":"m 311 147 q 299 80 299 102 q 308 49 299 60 q 337 34 317 38 q 393 28 357 29 l 387 0 q 161 4 307 4 q -58 0 16 4 l -51 28 q 22 39 -3 30 q 61 72 46 47 q 90 147 76 96 l 273 836 q 285 903 285 880 q 275 935 285 924 q 247 950 266 945 q 191 956 227 954 l 198 983 q 416 979 267 979 q 644 983 555 979 l 637 956 q 561 945 586 954 q 522 912 536 936 q 494 836 507 888 l 311 147 z "},"Ĳ":{"ha":1189,"x_min":22,"x_max":1320,"o":"m 1310 1014 q 1320 996 1320 1006 q 1219 925 1320 964 q 1094 758 1142 858 q 1006 509 1045 658 l 1149 509 l 1145 481 l 998 481 l 989 445 l 904 90 q 767 -164 866 -67 q 497 -261 668 -261 q 355 -235 408 -261 q 302 -154 302 -210 q 333 -80 302 -110 q 418 -51 364 -51 q 496 -74 465 -51 q 526 -137 526 -97 q 506 -194 526 -169 q 451 -233 486 -218 q 490 -238 470 -238 q 573 -201 541 -238 q 626 -104 605 -164 q 676 75 646 -43 q 682 97 677 82 l 757 382 q 788 481 772 437 l 607 481 l 612 509 l 799 509 q 891 666 837 598 q 1009 786 946 734 q 1177 910 1073 838 q 1027 852 1118 892 q 944 817 977 829 q 870 796 910 804 q 784 787 830 787 q 681 796 729 787 q 565 823 632 805 q 451 848 499 840 q 350 857 404 857 q 268 838 297 857 q 238 779 238 819 q 293 700 238 728 q 437 672 348 672 q 551 685 503 672 q 648 723 600 697 l 658 700 q 544 655 601 669 l 390 147 q 376 79 376 103 q 398 40 376 51 q 472 28 419 29 l 466 0 q 239 4 387 4 q 22 0 95 4 l 28 28 q 100 39 76 30 q 138 72 123 48 q 169 147 153 95 l 322 653 q 189 717 239 671 q 139 839 139 763 q 168 936 139 894 q 250 1002 196 979 q 379 1026 304 1026 q 484 1016 435 1026 q 571 992 533 1006 q 663 955 610 979 q 751 918 715 932 q 833 896 787 905 q 930 886 878 886 q 1206 940 1075 886 q 1292 1021 1258 1021 q 1310 1014 1301 1021 z "},"Í":{"ha":541,"x_min":-58,"x_max":765,"o":"m 0 0 m 311 147 q 299 80 299 102 q 308 49 299 60 q 337 34 317 38 q 393 28 357 29 l 387 0 q 161 4 307 4 q -58 0 16 4 l -51 28 q 22 39 -3 30 q 61 72 46 47 q 90 147 76 96 l 273 836 q 285 903 285 880 q 275 935 285 924 q 247 950 266 945 q 191 956 227 954 l 198 983 q 416 979 267 979 q 644 983 555 979 l 637 956 q 561 945 586 954 q 522 912 536 936 q 494 836 507 888 l 311 147 m 368 1088 q 513 1217 433 1140 q 581 1277 557 1257 q 631 1312 604 1297 q 691 1329 661 1329 q 758 1291 739 1329 q 765 1263 765 1277 q 748 1219 765 1240 q 703 1183 730 1198 q 650 1160 679 1169 q 570 1135 621 1150 q 377 1072 449 1100 l 368 1088 z "},"Ĭ":{"ha":541,"x_min":-58,"x_max":815,"o":"m 0 0 m 311 147 q 299 80 299 102 q 308 49 299 60 q 337 34 317 38 q 393 28 357 29 l 387 0 q 161 4 307 4 q -58 0 16 4 l -51 28 q 22 39 -3 30 q 61 72 46 47 q 90 147 76 96 l 273 836 q 285 903 285 880 q 275 935 285 924 q 247 950 266 945 q 191 956 227 954 l 198 983 q 416 979 267 979 q 644 983 555 979 l 637 956 q 561 945 586 954 q 522 912 536 936 q 494 836 507 888 l 311 147 m 482 1206 q 800 1286 667 1206 l 815 1272 q 719 1174 778 1220 q 591 1099 661 1128 q 456 1070 522 1070 q 308 1126 363 1070 q 235 1271 252 1181 l 256 1280 q 349 1224 297 1241 q 482 1206 401 1206 z "},"Î":{"ha":541,"x_min":-58,"x_max":749,"o":"m 0 0 m 311 147 q 299 80 299 102 q 308 49 299 60 q 337 34 317 38 q 393 28 357 29 l 387 0 q 161 4 307 4 q -58 0 16 4 l -51 28 q 22 39 -3 30 q 61 72 46 47 q 90 147 76 96 l 273 836 q 285 903 285 880 q 275 935 285 924 q 247 950 266 945 q 191 956 227 954 l 198 983 q 416 979 267 979 q 644 983 555 979 l 637 956 q 561 945 586 954 q 522 912 536 936 q 494 836 507 888 l 311 147 m 464 1154 q 162 1071 319 1099 l 155 1090 q 370 1184 270 1126 q 532 1305 471 1242 l 557 1305 q 632 1177 588 1228 q 749 1090 675 1126 l 744 1071 q 592 1105 652 1086 q 464 1154 531 1124 z "},"Ï":{"ha":541,"x_min":-58,"x_max":738,"o":"m 0 0 m 311 147 q 299 80 299 102 q 308 49 299 60 q 337 34 317 38 q 393 28 357 29 l 387 0 q 161 4 307 4 q -58 0 16 4 l -51 28 q 22 39 -3 30 q 61 72 46 47 q 90 147 76 96 l 273 836 q 285 903 285 880 q 275 935 285 924 q 247 950 266 945 q 191 956 227 954 l 198 983 q 416 979 267 979 q 644 983 555 979 l 637 956 q 561 945 586 954 q 522 912 536 936 q 494 836 507 888 l 311 147 m 195 1156 q 211 1218 195 1192 q 255 1259 228 1245 q 315 1274 283 1274 q 381 1248 358 1274 q 405 1181 405 1222 q 388 1118 405 1144 q 343 1078 371 1091 q 284 1064 315 1064 q 217 1089 240 1064 q 195 1156 195 1114 m 528 1156 q 544 1218 528 1192 q 588 1259 561 1245 q 648 1274 616 1274 q 714 1248 691 1274 q 738 1181 738 1222 q 721 1118 738 1144 q 676 1078 704 1091 q 617 1064 648 1064 q 550 1089 573 1064 q 528 1156 528 1114 z "},"İ":{"ha":541,"x_min":-58,"x_max":644,"o":"m 0 0 m 311 147 q 299 80 299 102 q 308 49 299 60 q 337 34 317 38 q 393 28 357 29 l 387 0 q 161 4 307 4 q -58 0 16 4 l -51 28 q 22 39 -3 30 q 61 72 46 47 q 90 147 76 96 l 273 836 q 285 903 285 880 q 275 935 285 924 q 247 950 266 945 q 191 956 227 954 l 198 983 q 416 979 267 979 q 644 983 555 979 l 637 956 q 561 945 586 954 q 522 912 536 936 q 494 836 507 888 l 311 147 m 361 1147 q 380 1215 361 1185 q 431 1261 398 1245 q 504 1277 463 1277 q 580 1254 553 1277 q 607 1191 607 1232 q 588 1125 607 1155 q 535 1079 568 1096 q 463 1062 503 1062 q 388 1084 414 1062 q 361 1147 361 1107 z "},"Ì":{"ha":541,"x_min":-58,"x_max":644,"o":"m 0 0 m 311 147 q 299 80 299 102 q 308 49 299 60 q 337 34 317 38 q 393 28 357 29 l 387 0 q 161 4 307 4 q -58 0 16 4 l -51 28 q 22 39 -3 30 q 61 72 46 47 q 90 147 76 96 l 273 836 q 285 903 285 880 q 275 935 285 924 q 247 950 266 945 q 191 956 227 954 l 198 983 q 416 979 267 979 q 644 983 555 979 l 637 956 q 561 945 586 954 q 522 912 536 936 q 494 836 507 888 l 311 147 m 519 1071 q 355 1136 444 1105 q 254 1180 284 1160 q 223 1211 235 1192 q 211 1251 211 1230 q 220 1284 211 1267 q 284 1318 241 1318 q 336 1303 314 1318 q 370 1274 355 1291 q 411 1223 386 1257 q 530 1086 474 1141 l 519 1071 z "},"Ī":{"ha":541,"x_min":-58,"x_max":739,"o":"m 0 0 m 311 147 q 299 80 299 102 q 308 49 299 60 q 337 34 317 38 q 393 28 357 29 l 387 0 q 161 4 307 4 q -58 0 16 4 l -51 28 q 22 39 -3 30 q 61 72 46 47 q 90 147 76 96 l 273 836 q 285 903 285 880 q 275 935 285 924 q 247 950 266 945 q 191 956 227 954 l 198 983 q 416 979 267 979 q 644 983 555 979 l 637 956 q 561 945 586 954 q 522 912 536 936 q 494 836 507 888 l 311 147 m 174 1137 l 182 1173 l 739 1173 l 730 1137 l 174 1137 z "},"Į":{"ha":541,"x_min":-58,"x_max":644,"o":"m 416 979 q 644 983 555 979 l 637 956 q 561 945 586 954 q 522 912 536 936 q 494 836 507 888 l 311 147 q 299 80 299 102 q 308 49 299 60 q 337 34 317 38 q 393 28 357 29 l 387 0 l 374 1 q 274 -65 313 -24 q 236 -150 236 -106 q 282 -192 236 -192 q 332 -183 304 -192 q 384 -161 359 -175 l 399 -185 q 197 -261 302 -261 q 111 -239 142 -261 q 79 -178 79 -217 q 154 -72 79 -118 q 338 2 229 -26 q 161 4 262 4 q -58 0 16 4 l -51 28 q 22 39 -3 30 q 61 72 46 47 q 90 147 76 96 l 273 836 q 285 903 285 880 q 275 935 285 924 q 247 950 266 945 q 191 956 227 954 l 198 983 q 416 979 267 979 z "},"Ĩ":{"ha":541,"x_min":-58,"x_max":807,"o":"m 0 0 m 311 147 q 299 80 299 102 q 308 49 299 60 q 337 34 317 38 q 393 28 357 29 l 387 0 q 161 4 307 4 q -58 0 16 4 l -51 28 q 22 39 -3 30 q 61 72 46 47 q 90 147 76 96 l 273 836 q 285 903 285 880 q 275 935 285 924 q 247 950 266 945 q 191 956 227 954 l 198 983 q 416 979 267 979 q 644 983 555 979 l 637 956 q 561 945 586 954 q 522 912 536 936 q 494 836 507 888 l 311 147 m 411 1287 q 473 1279 446 1287 q 519 1260 500 1272 q 564 1231 538 1249 q 620 1197 596 1208 q 675 1186 643 1186 q 731 1205 705 1186 q 782 1266 757 1223 l 807 1259 q 708 1114 770 1162 q 576 1066 646 1066 q 515 1074 542 1066 q 468 1093 488 1082 q 423 1122 449 1104 q 368 1157 392 1145 q 313 1168 345 1168 q 257 1149 283 1168 q 205 1087 231 1130 l 180 1094 q 280 1240 218 1192 q 411 1287 342 1287 z "},"J":{"ha":949,"x_min":37,"x_max":1094,"o":"m 1085 1014 q 1094 997 1094 1006 q 992 925 1094 963 q 852 755 909 859 q 753 509 795 652 l 891 509 l 886 481 l 745 481 q 730 427 739 463 l 644 90 q 503 -164 603 -68 q 232 -261 403 -261 q 91 -235 144 -261 q 37 -155 37 -210 q 52 -102 37 -126 q 92 -65 66 -79 q 155 -51 119 -51 q 232 -73 201 -51 q 262 -134 262 -96 q 186 -233 262 -201 q 224 -238 205 -238 q 308 -201 275 -238 q 363 -104 341 -164 q 416 75 385 -43 l 422 97 l 496 364 q 537 481 513 427 l 349 481 l 353 509 l 549 509 q 650 665 591 596 q 779 789 709 734 q 950 910 849 844 q 815 852 898 892 q 740 817 770 829 q 674 796 710 804 q 597 787 638 787 q 520 797 556 787 q 434 825 484 806 q 361 849 391 841 q 300 857 331 857 q 238 837 261 857 q 216 779 216 817 q 372 671 216 685 l 369 644 q 193 703 259 653 q 127 842 127 753 q 148 938 125 897 q 215 1003 170 980 q 323 1026 259 1026 q 401 1017 366 1026 q 466 993 437 1007 q 533 956 494 979 q 602 919 574 932 q 666 896 630 905 q 745 886 703 886 q 980 940 866 886 q 1066 1021 1032 1021 q 1085 1014 1076 1021 z "},"Ĵ":{"ha":949,"x_min":37,"x_max":1094,"o":"m 37 0 m 1085 1014 q 1094 997 1094 1006 q 992 925 1094 963 q 852 755 909 859 q 753 509 795 652 l 891 509 l 886 481 l 745 481 q 730 427 739 463 l 644 90 q 503 -164 603 -68 q 232 -261 403 -261 q 91 -235 144 -261 q 37 -155 37 -210 q 52 -102 37 -126 q 92 -65 66 -79 q 155 -51 119 -51 q 232 -73 201 -51 q 262 -134 262 -96 q 186 -233 262 -201 q 224 -238 205 -238 q 308 -201 275 -238 q 363 -104 341 -164 q 416 75 385 -43 l 422 97 l 496 364 q 537 481 513 427 l 349 481 l 353 509 l 549 509 q 650 665 591 596 q 779 789 709 734 q 950 910 849 844 q 815 852 898 892 q 740 817 770 829 q 674 796 710 804 q 597 787 638 787 q 520 797 556 787 q 434 825 484 806 q 361 849 391 841 q 300 857 331 857 q 238 837 261 857 q 216 779 216 817 q 372 671 216 685 l 369 644 q 193 703 259 653 q 127 842 127 753 q 148 938 125 897 q 215 1003 170 980 q 323 1026 259 1026 q 401 1017 366 1026 q 466 993 437 1007 q 533 956 494 979 q 602 919 574 932 q 666 896 630 905 q 745 886 703 886 q 980 940 866 886 q 1066 1021 1032 1021 q 1085 1014 1076 1021 m 740 1154 q 438 1071 595 1099 l 431 1090 q 646 1184 546 1126 q 808 1305 747 1242 l 833 1305 q 908 1177 864 1228 q 1025 1090 951 1126 l 1020 1071 q 868 1105 928 1086 q 740 1154 807 1124 z "},"K":{"ha":1027,"x_min":-58,"x_max":1077,"o":"m 946 1003 q 1041 969 1006 1003 q 1077 880 1077 935 q 1062 815 1077 847 q 1019 762 1048 783 q 951 741 991 741 q 884 766 911 741 q 858 833 858 791 q 886 913 858 874 q 962 972 915 952 q 939 977 952 977 q 899 969 915 977 q 867 946 882 962 q 829 883 845 921 q 793 780 814 846 q 748 655 769 703 q 692 568 728 607 q 601 517 656 529 q 716 488 673 509 q 779 429 760 467 q 799 331 799 391 q 796 279 799 304 l 781 133 q 780 123 780 130 q 816 82 780 82 q 860 102 842 82 q 892 165 878 123 l 916 236 l 944 236 l 908 129 q 834 17 882 54 q 722 -20 785 -20 q 603 19 644 -20 q 561 123 561 57 q 564 156 561 133 l 591 351 q 594 407 594 378 q 586 463 594 442 q 559 498 578 484 q 474 484 502 484 q 439 506 439 484 q 439 513 439 511 q 451 534 441 527 q 479 541 460 541 q 560 526 509 541 q 662 573 623 535 q 723 660 701 611 q 767 787 744 709 q 804 897 788 857 q 846 962 821 936 q 946 1003 888 1003 m 311 147 q 299 80 299 102 q 308 49 299 60 q 337 34 317 38 q 393 28 357 29 l 387 0 q 169 4 310 4 q -58 0 18 4 l -51 28 q 22 39 -3 30 q 61 72 46 47 q 90 147 76 96 l 273 836 q 285 903 285 880 q 275 935 285 924 q 247 950 266 945 q 191 956 227 954 l 198 983 q 425 979 269 979 q 644 983 558 979 l 637 956 q 561 945 586 954 q 522 912 536 936 q 494 836 507 888 l 311 147 z "},"Ķ":{"ha":1027,"x_min":-58,"x_max":1077,"o":"m 0 0 m 946 1003 q 1041 969 1006 1003 q 1077 880 1077 935 q 1062 815 1077 847 q 1019 762 1048 783 q 951 741 991 741 q 884 766 911 741 q 858 833 858 791 q 886 913 858 874 q 962 972 915 952 q 939 977 952 977 q 899 969 915 977 q 867 946 882 962 q 829 883 845 921 q 793 780 814 846 q 748 655 769 703 q 692 568 728 607 q 601 517 656 529 q 716 488 673 509 q 779 429 760 467 q 799 331 799 391 q 796 279 799 304 l 781 133 q 780 123 780 130 q 816 82 780 82 q 860 102 842 82 q 892 165 878 123 l 916 236 l 944 236 l 908 129 q 834 17 882 54 q 722 -20 785 -20 q 603 19 644 -20 q 561 123 561 57 q 564 156 561 133 l 591 351 q 594 407 594 378 q 586 463 594 442 q 559 498 578 484 q 474 484 502 484 q 439 506 439 484 q 439 513 439 511 q 451 534 441 527 q 479 541 460 541 q 560 526 509 541 q 662 573 623 535 q 723 660 701 611 q 767 787 744 709 q 804 897 788 857 q 846 962 821 936 q 946 1003 888 1003 m 311 147 q 299 80 299 102 q 308 49 299 60 q 337 34 317 38 q 393 28 357 29 l 387 0 q 169 4 310 4 q -58 0 18 4 l -51 28 q 22 39 -3 30 q 61 72 46 47 q 90 147 76 96 l 273 836 q 285 903 285 880 q 275 935 285 924 q 247 950 266 945 q 191 956 227 954 l 198 983 q 425 979 269 979 q 644 983 558 979 l 637 956 q 561 945 586 954 q 522 912 536 936 q 494 836 507 888 l 311 147 m 283 -183 q 300 -127 283 -152 q 346 -87 317 -102 q 409 -73 375 -73 q 476 -96 449 -73 q 504 -159 504 -118 q 451 -278 504 -232 q 313 -335 398 -325 l 309 -308 q 401 -281 363 -303 q 448 -227 440 -260 q 367 -251 415 -251 q 306 -234 328 -251 q 283 -183 283 -216 z "},"L":{"ha":840,"x_min":-60,"x_max":781,"o":"m 781 292 q 747 178 766 252 q 710 0 724 94 q 395 4 616 4 q -60 0 91 4 l -54 28 q 22 39 -3 30 q 61 71 47 47 q 90 147 76 95 l 273 836 q 286 903 286 884 q 276 935 286 924 q 247 950 267 945 q 192 956 228 954 l 199 983 q 428 979 271 979 q 644 983 559 979 l 637 956 q 562 945 587 954 q 523 912 537 936 q 494 836 508 888 l 310 147 q 298 79 298 104 q 307 50 298 60 q 335 36 316 39 q 390 32 355 32 l 446 32 q 620 92 545 32 q 749 292 694 153 l 781 292 z "},"Ĺ":{"ha":840,"x_min":-60,"x_max":781,"o":"m 0 0 m 781 292 q 747 178 766 252 q 710 0 724 94 q 395 4 616 4 q -60 0 91 4 l -54 28 q 22 39 -3 30 q 61 71 47 47 q 90 147 76 95 l 273 836 q 286 903 286 884 q 276 935 286 924 q 247 950 267 945 q 192 956 228 954 l 199 983 q 428 979 271 979 q 644 983 559 979 l 637 956 q 562 945 587 954 q 523 912 537 936 q 494 836 508 888 l 310 147 q 298 79 298 104 q 307 50 298 60 q 335 36 316 39 q 390 32 355 32 l 446 32 q 620 92 545 32 q 749 292 694 153 l 781 292 m 343 1088 q 489 1217 408 1140 q 556 1277 532 1257 q 607 1312 580 1297 q 667 1329 636 1329 q 734 1291 714 1329 q 741 1263 741 1277 q 723 1219 741 1240 q 678 1183 706 1198 q 626 1160 654 1169 q 545 1135 597 1150 q 353 1072 425 1100 l 343 1088 z "},"Ľ":{"ha":840,"x_min":-60,"x_max":867,"o":"m 0 0 m 781 292 q 747 178 766 252 q 710 0 724 94 q 395 4 616 4 q -60 0 91 4 l -54 28 q 22 39 -3 30 q 61 71 47 47 q 90 147 76 95 l 273 836 q 286 903 286 884 q 276 935 286 924 q 247 950 267 945 q 192 956 228 954 l 199 983 q 428 979 271 979 q 644 983 559 979 l 637 956 q 562 945 587 954 q 523 912 537 936 q 494 836 508 888 l 310 147 q 298 79 298 104 q 307 50 298 60 q 335 36 316 39 q 390 32 355 32 l 446 32 q 620 92 545 32 q 749 292 694 153 l 781 292 m 626 673 q 687 830 667 762 q 707 928 707 898 q 699 948 707 941 q 670 954 691 954 l 674 983 l 706 983 q 732 982 715 982 q 866 999 801 982 q 867 984 867 996 q 808 850 867 934 q 645 668 749 767 l 626 673 z "},"Ļ":{"ha":840,"x_min":-60,"x_max":781,"o":"m 0 0 m 781 292 q 747 178 766 252 q 710 0 724 94 q 395 4 616 4 q -60 0 91 4 l -54 28 q 22 39 -3 30 q 61 71 47 47 q 90 147 76 95 l 273 836 q 286 903 286 884 q 276 935 286 924 q 247 950 267 945 q 192 956 228 954 l 199 983 q 428 979 271 979 q 644 983 559 979 l 637 956 q 562 945 587 954 q 523 912 537 936 q 494 836 508 888 l 310 147 q 298 79 298 104 q 307 50 298 60 q 335 36 316 39 q 390 32 355 32 l 446 32 q 620 92 545 32 q 749 292 694 153 l 781 292 m 270 -183 q 287 -127 270 -152 q 333 -87 304 -102 q 395 -73 361 -73 q 463 -96 435 -73 q 490 -159 490 -118 q 437 -278 490 -232 q 299 -335 385 -325 l 295 -308 q 388 -281 349 -303 q 434 -227 427 -260 q 353 -251 401 -251 q 292 -234 314 -251 q 270 -183 270 -216 z "},"Ŀ":{"ha":863,"x_min":-60,"x_max":861,"o":"m 0 0 m 781 292 q 747 178 766 252 q 710 0 724 94 q 395 4 616 4 q -60 0 91 4 l -54 28 q 22 39 -3 30 q 61 71 47 47 q 90 147 76 95 l 273 836 q 286 903 286 884 q 276 935 286 924 q 247 950 267 945 q 192 956 228 954 l 199 983 q 428 979 271 979 q 644 983 559 979 l 637 956 q 562 945 587 954 q 523 912 537 936 q 494 836 508 888 l 310 147 q 298 79 298 104 q 307 50 298 60 q 335 36 316 39 q 390 32 355 32 l 446 32 q 620 92 545 32 q 749 292 694 153 l 781 292 m 634 486 q 652 554 634 524 q 700 602 669 584 q 768 619 730 619 q 837 597 812 619 q 861 534 861 574 q 843 471 861 501 q 793 423 825 441 q 726 404 762 404 q 659 426 683 404 q 634 486 634 448 z "},"Ł":{"ha":841,"x_min":-58,"x_max":783,"o":"m 783 292 q 749 178 768 252 q 712 0 726 94 q 397 4 618 4 q -58 0 93 4 l -52 28 q 24 39 -1 30 q 63 71 49 47 q 92 147 78 95 l 146 354 l 22 292 l 31 323 l 155 386 l 275 836 q 288 903 288 884 q 278 935 288 924 q 249 950 269 945 q 194 956 230 954 l 201 983 q 430 979 274 979 q 646 983 562 979 l 640 956 q 564 945 589 954 q 525 912 539 936 q 496 836 510 888 l 406 500 l 718 657 l 710 625 l 397 468 l 312 147 q 300 79 300 104 q 309 50 300 60 q 337 36 318 39 q 392 32 357 32 l 448 32 q 622 92 547 32 q 751 292 696 153 l 783 292 z "},"M":{"ha":1273,"x_min":-58,"x_max":1376,"o":"m 1152 979 q 1376 983 1286 979 l 1369 956 q 1293 945 1318 954 q 1254 912 1268 936 q 1226 836 1240 888 l 1042 147 q 1031 81 1031 103 q 1040 49 1031 60 q 1069 34 1050 38 q 1124 28 1088 29 l 1119 0 q 897 4 1031 4 q 675 0 745 4 l 680 28 q 756 39 731 30 q 795 71 781 47 q 823 147 810 95 l 1025 896 l 448 -7 l 418 -7 l 306 845 l 130 178 q 119 111 119 138 q 145 51 119 72 q 235 28 172 30 l 229 0 q 73 4 180 4 q -58 0 -12 4 l -52 28 q 23 48 -6 30 q 69 98 52 67 q 99 178 86 130 l 275 836 q 286 903 286 880 q 277 935 286 924 q 248 950 267 945 q 193 956 229 954 l 199 983 q 390 979 264 979 q 515 983 463 979 l 594 274 l 1044 979 l 1152 979 z "},"N":{"ha":1145,"x_min":-111,"x_max":1295,"o":"m 1164 1047 q 1235 1031 1206 1047 q 1280 989 1265 1016 q 1295 930 1295 963 q 1279 865 1295 895 q 1234 819 1263 836 q 1169 802 1205 802 q 1099 825 1124 802 q 1074 886 1074 848 q 1104 966 1074 931 q 1179 1015 1133 1002 q 1156 1021 1171 1021 q 1040 947 1089 1021 q 911 624 978 855 q 760 -7 845 393 l 730 -7 l 385 747 q 272 252 326 454 q 169 -16 218 50 q 103 -80 137 -56 q 20 -103 70 -103 q -51 -87 -22 -103 q -95 -45 -80 -72 q -111 16 -111 -18 q -94 80 -111 51 q -49 126 -78 109 q 16 142 -20 142 q 85 119 60 142 q 111 59 111 96 q 81 -22 111 13 q 6 -71 52 -57 q 28 -77 13 -77 q 146 -1 99 -77 q 256 299 200 82 q 380 867 313 517 q 382 898 382 883 q 373 933 382 921 q 340 949 363 945 q 275 956 318 954 l 283 983 q 406 979 326 979 q 519 983 471 979 l 806 322 q 1015 958 922 824 q 1164 1047 1076 1047 z "},"Ń":{"ha":1145,"x_min":-111,"x_max":1295,"o":"m 0 0 m 1164 1047 q 1235 1031 1206 1047 q 1280 989 1265 1016 q 1295 930 1295 963 q 1279 865 1295 895 q 1234 819 1263 836 q 1169 802 1205 802 q 1099 825 1124 802 q 1074 886 1074 848 q 1104 966 1074 931 q 1179 1015 1133 1002 q 1156 1021 1171 1021 q 1040 947 1089 1021 q 911 624 978 855 q 760 -7 845 393 l 730 -7 l 385 747 q 272 252 326 454 q 169 -16 218 50 q 103 -80 137 -56 q 20 -103 70 -103 q -51 -87 -22 -103 q -95 -45 -80 -72 q -111 16 -111 -18 q -94 80 -111 51 q -49 126 -78 109 q 16 142 -20 142 q 85 119 60 142 q 111 59 111 96 q 81 -22 111 13 q 6 -71 52 -57 q 28 -77 13 -77 q 146 -1 99 -77 q 256 299 200 82 q 380 867 313 517 q 382 898 382 883 q 373 933 382 921 q 340 949 363 945 q 275 956 318 954 l 283 983 q 406 979 326 979 q 519 983 471 979 l 806 322 q 1015 958 922 824 q 1164 1047 1076 1047 m 671 1088 q 817 1217 736 1140 q 884 1277 861 1257 q 935 1312 908 1297 q 995 1329 964 1329 q 1062 1291 1042 1329 q 1069 1263 1069 1277 q 1052 1219 1069 1240 q 1006 1183 1034 1198 q 954 1160 983 1169 q 873 1135 925 1150 q 681 1072 753 1100 l 671 1088 z "},"Ň":{"ha":1145,"x_min":-111,"x_max":1295,"o":"m 0 0 m 1164 1047 q 1235 1031 1206 1047 q 1280 989 1265 1016 q 1295 930 1295 963 q 1279 865 1295 895 q 1234 819 1263 836 q 1169 802 1205 802 q 1099 825 1124 802 q 1074 886 1074 848 q 1104 966 1074 931 q 1179 1015 1133 1002 q 1156 1021 1171 1021 q 1040 947 1089 1021 q 911 624 978 855 q 760 -7 845 393 l 730 -7 l 385 747 q 272 252 326 454 q 169 -16 218 50 q 103 -80 137 -56 q 20 -103 70 -103 q -51 -87 -22 -103 q -95 -45 -80 -72 q -111 16 -111 -18 q -94 80 -111 51 q -49 126 -78 109 q 16 142 -20 142 q 85 119 60 142 q 111 59 111 96 q 81 -22 111 13 q 6 -71 52 -57 q 28 -77 13 -77 q 146 -1 99 -77 q 256 299 200 82 q 380 867 313 517 q 382 898 382 883 q 373 933 382 921 q 340 949 363 945 q 275 956 318 954 l 283 983 q 406 979 326 979 q 519 983 471 979 l 806 322 q 1015 958 922 824 q 1164 1047 1076 1047 m 844 1219 q 1146 1301 991 1273 l 1154 1282 q 939 1188 1039 1246 q 777 1067 839 1131 l 752 1067 q 676 1195 720 1144 q 559 1282 633 1246 l 564 1301 q 716 1267 656 1286 q 844 1219 777 1249 z "},"Ņ":{"ha":1145,"x_min":-111,"x_max":1295,"o":"m 0 0 m 1164 1047 q 1235 1031 1206 1047 q 1280 989 1265 1016 q 1295 930 1295 963 q 1279 865 1295 895 q 1234 819 1263 836 q 1169 802 1205 802 q 1099 825 1124 802 q 1074 886 1074 848 q 1104 966 1074 931 q 1179 1015 1133 1002 q 1156 1021 1171 1021 q 1040 947 1089 1021 q 911 624 978 855 q 760 -7 845 393 l 730 -7 l 385 747 q 272 252 326 454 q 169 -16 218 50 q 103 -80 137 -56 q 20 -103 70 -103 q -51 -87 -22 -103 q -95 -45 -80 -72 q -111 16 -111 -18 q -94 80 -111 51 q -49 126 -78 109 q 16 142 -20 142 q 85 119 60 142 q 111 59 111 96 q 81 -22 111 13 q 6 -71 52 -57 q 28 -77 13 -77 q 146 -1 99 -77 q 256 299 200 82 q 380 867 313 517 q 382 898 382 883 q 373 933 382 921 q 340 949 363 945 q 275 956 318 954 l 283 983 q 406 979 326 979 q 519 983 471 979 l 806 322 q 1015 958 922 824 q 1164 1047 1076 1047 m 323 -183 q 340 -127 323 -152 q 386 -87 357 -102 q 448 -73 414 -73 q 516 -96 488 -73 q 543 -159 543 -118 q 490 -278 543 -232 q 352 -335 437 -325 l 348 -308 q 441 -281 402 -303 q 487 -227 479 -260 q 406 -251 454 -251 q 345 -234 367 -251 q 323 -183 323 -216 z "},"Ŋ":{"ha":1002,"x_min":-56,"x_max":1116,"o":"m 988 979 q 1116 983 1068 979 l 1109 956 q 1034 943 1059 954 q 993 908 1008 933 q 965 831 979 884 l 753 33 q 667 -187 722 -113 q 511 -261 611 -261 q 394 -235 443 -261 q 345 -155 345 -209 q 359 -102 345 -126 q 399 -65 373 -79 q 462 -51 426 -51 q 539 -74 509 -51 q 569 -136 569 -96 q 548 -193 569 -168 q 491 -233 528 -218 q 522 -238 505 -238 q 642 -174 597 -238 q 713 -8 687 -111 l 286 758 l 125 153 q 113 85 113 106 q 123 51 113 63 q 154 34 133 39 q 212 28 175 29 l 206 0 q 75 4 157 4 q -56 0 -9 4 l -50 28 q 25 40 0 30 q 66 75 51 50 q 94 153 81 100 l 276 836 q 288 901 288 878 q 277 933 288 922 q 245 949 267 945 q 184 956 224 954 l 191 983 q 315 979 235 979 q 427 983 380 979 l 797 311 l 934 831 q 945 899 945 875 q 936 932 945 920 q 905 949 926 944 q 847 956 884 954 l 854 983 q 988 979 902 979 z "},"Ñ":{"ha":1145,"x_min":-111,"x_max":1295,"o":"m 0 0 m 1164 1047 q 1235 1031 1206 1047 q 1280 989 1265 1016 q 1295 930 1295 963 q 1279 865 1295 895 q 1234 819 1263 836 q 1169 802 1205 802 q 1099 825 1124 802 q 1074 886 1074 848 q 1104 966 1074 931 q 1179 1015 1133 1002 q 1156 1021 1171 1021 q 1040 947 1089 1021 q 911 624 978 855 q 760 -7 845 393 l 730 -7 l 385 747 q 272 252 326 454 q 169 -16 218 50 q 103 -80 137 -56 q 20 -103 70 -103 q -51 -87 -22 -103 q -95 -45 -80 -72 q -111 16 -111 -18 q -94 80 -111 51 q -49 126 -78 109 q 16 142 -20 142 q 85 119 60 142 q 111 59 111 96 q 81 -22 111 13 q 6 -71 52 -57 q 28 -77 13 -77 q 146 -1 99 -77 q 256 299 200 82 q 380 867 313 517 q 382 898 382 883 q 373 933 382 921 q 340 949 363 945 q 275 956 318 954 l 283 983 q 406 979 326 979 q 519 983 471 979 l 806 322 q 1015 958 922 824 q 1164 1047 1076 1047 m 715 1287 q 777 1279 749 1287 q 823 1260 804 1272 q 868 1231 842 1249 q 923 1197 900 1208 q 979 1186 947 1186 q 1035 1205 1009 1186 q 1086 1266 1061 1223 l 1111 1259 q 1011 1114 1074 1162 q 880 1066 949 1066 q 819 1074 846 1066 q 772 1093 791 1082 q 727 1122 753 1104 q 672 1157 696 1145 q 616 1168 648 1168 q 561 1149 587 1168 q 509 1087 534 1130 l 484 1094 q 584 1240 522 1192 q 715 1287 646 1287 z "},"O":{"ha":1079,"x_min":58,"x_max":1065,"o":"m 58 314 q 139 632 58 471 q 363 898 219 793 q 688 1003 507 1003 q 890 964 805 1003 q 1020 849 975 924 q 1065 668 1065 774 q 984 351 1065 511 q 759 85 903 191 q 435 -20 614 -20 q 233 20 317 -20 q 103 134 148 59 q 58 314 58 209 m 675 978 q 493 878 581 978 q 351 619 405 778 q 297 296 297 460 q 316 141 297 207 q 369 40 335 75 q 447 5 403 5 q 629 105 542 5 q 771 364 717 205 q 825 688 825 523 q 806 842 825 777 q 753 943 787 908 q 675 978 719 978 z "},"Ó":{"ha":1079,"x_min":58,"x_max":1065,"o":"m 58 0 m 58 314 q 139 632 58 471 q 363 898 219 793 q 688 1003 507 1003 q 890 964 805 1003 q 1020 849 975 924 q 1065 668 1065 774 q 984 351 1065 511 q 759 85 903 191 q 435 -20 614 -20 q 233 20 317 -20 q 103 134 148 59 q 58 314 58 209 m 675 978 q 493 878 581 978 q 351 619 405 778 q 297 296 297 460 q 316 141 297 207 q 369 40 335 75 q 447 5 403 5 q 629 105 542 5 q 771 364 717 205 q 825 688 825 523 q 806 842 825 777 q 753 943 787 908 q 675 978 719 978 m 635 1088 q 781 1217 700 1140 q 848 1277 824 1257 q 899 1312 871 1297 q 958 1329 928 1329 q 1025 1291 1006 1329 q 1032 1263 1032 1277 q 1015 1219 1032 1240 q 970 1183 998 1198 q 917 1160 946 1169 q 837 1135 888 1150 q 644 1072 716 1100 l 635 1088 z "},"Ŏ":{"ha":1079,"x_min":58,"x_max":1082,"o":"m 58 0 m 58 314 q 139 632 58 471 q 363 898 219 793 q 688 1003 507 1003 q 890 964 805 1003 q 1020 849 975 924 q 1065 668 1065 774 q 984 351 1065 511 q 759 85 903 191 q 435 -20 614 -20 q 233 20 317 -20 q 103 134 148 59 q 58 314 58 209 m 675 978 q 493 878 581 978 q 351 619 405 778 q 297 296 297 460 q 316 141 297 207 q 369 40 335 75 q 447 5 403 5 q 629 105 542 5 q 771 364 717 205 q 825 688 825 523 q 806 842 825 777 q 753 943 787 908 q 675 978 719 978 m 749 1206 q 1067 1286 934 1206 l 1082 1272 q 986 1174 1045 1220 q 859 1099 928 1128 q 723 1070 789 1070 q 575 1126 631 1070 q 502 1271 519 1181 l 524 1280 q 616 1224 564 1241 q 749 1206 669 1206 z "},"Ô":{"ha":1079,"x_min":58,"x_max":1065,"o":"m 58 0 m 58 314 q 139 632 58 471 q 363 898 219 793 q 688 1003 507 1003 q 890 964 805 1003 q 1020 849 975 924 q 1065 668 1065 774 q 984 351 1065 511 q 759 85 903 191 q 435 -20 614 -20 q 233 20 317 -20 q 103 134 148 59 q 58 314 58 209 m 675 978 q 493 878 581 978 q 351 619 405 778 q 297 296 297 460 q 316 141 297 207 q 369 40 335 75 q 447 5 403 5 q 629 105 542 5 q 771 364 717 205 q 825 688 825 523 q 806 842 825 777 q 753 943 787 908 q 675 978 719 978 m 731 1154 q 429 1071 586 1099 l 422 1090 q 637 1184 537 1126 q 799 1305 738 1242 l 824 1305 q 899 1177 855 1228 q 1017 1090 943 1126 l 1011 1071 q 859 1105 920 1086 q 731 1154 798 1124 z "},"Ö":{"ha":1079,"x_min":58,"x_max":1065,"o":"m 58 0 m 58 314 q 139 632 58 471 q 363 898 219 793 q 688 1003 507 1003 q 890 964 805 1003 q 1020 849 975 924 q 1065 668 1065 774 q 984 351 1065 511 q 759 85 903 191 q 435 -20 614 -20 q 233 20 317 -20 q 103 134 148 59 q 58 314 58 209 m 675 978 q 493 878 581 978 q 351 619 405 778 q 297 296 297 460 q 316 141 297 207 q 369 40 335 75 q 447 5 403 5 q 629 105 542 5 q 771 364 717 205 q 825 688 825 523 q 806 842 825 777 q 753 943 787 908 q 675 978 719 978 m 462 1156 q 478 1218 462 1192 q 523 1259 495 1245 q 582 1274 550 1274 q 649 1248 625 1274 q 672 1181 672 1222 q 655 1118 672 1144 q 610 1078 638 1091 q 551 1064 583 1064 q 485 1089 507 1064 q 462 1156 462 1114 m 795 1156 q 811 1218 795 1192 q 856 1259 828 1245 q 915 1274 883 1274 q 982 1248 958 1274 q 1005 1181 1005 1222 q 988 1118 1005 1144 q 943 1078 971 1091 q 884 1064 916 1064 q 818 1089 840 1064 q 795 1156 795 1114 z "},"Ò":{"ha":1079,"x_min":58,"x_max":1065,"o":"m 58 0 m 58 314 q 139 632 58 471 q 363 898 219 793 q 688 1003 507 1003 q 890 964 805 1003 q 1020 849 975 924 q 1065 668 1065 774 q 984 351 1065 511 q 759 85 903 191 q 435 -20 614 -20 q 233 20 317 -20 q 103 134 148 59 q 58 314 58 209 m 675 978 q 493 878 581 978 q 351 619 405 778 q 297 296 297 460 q 316 141 297 207 q 369 40 335 75 q 447 5 403 5 q 629 105 542 5 q 771 364 717 205 q 825 688 825 523 q 806 842 825 777 q 753 943 787 908 q 675 978 719 978 m 786 1071 q 623 1136 711 1105 q 522 1180 551 1160 q 490 1211 502 1192 q 478 1251 478 1230 q 488 1284 478 1267 q 551 1318 508 1318 q 603 1303 581 1318 q 637 1274 622 1291 q 678 1223 653 1257 q 798 1086 741 1141 l 786 1071 z "},"Ő":{"ha":1079,"x_min":58,"x_max":1101,"o":"m 58 0 m 58 314 q 139 632 58 471 q 363 898 219 793 q 688 1003 507 1003 q 890 964 805 1003 q 1020 849 975 924 q 1065 668 1065 774 q 984 351 1065 511 q 759 85 903 191 q 435 -20 614 -20 q 233 20 317 -20 q 103 134 148 59 q 58 314 58 209 m 675 978 q 493 878 581 978 q 351 619 405 778 q 297 296 297 460 q 316 141 297 207 q 369 40 335 75 q 447 5 403 5 q 629 105 542 5 q 771 364 717 205 q 825 688 825 523 q 806 842 825 777 q 753 943 787 908 q 675 978 719 978 m 500 1087 q 594 1201 543 1133 q 643 1261 624 1240 q 682 1298 662 1283 q 734 1315 705 1315 q 797 1281 776 1315 q 807 1247 807 1265 q 795 1208 807 1227 q 762 1175 783 1189 q 716 1151 742 1161 q 644 1124 690 1140 q 510 1072 562 1095 l 500 1087 m 793 1087 q 886 1200 835 1133 q 937 1262 918 1241 q 976 1298 955 1283 q 1027 1315 998 1315 q 1090 1282 1067 1315 q 1101 1248 1101 1265 q 1089 1209 1101 1228 q 1056 1175 1076 1190 q 1009 1150 1035 1161 q 937 1124 983 1139 q 804 1072 844 1090 l 793 1087 z "},"Ō":{"ha":1079,"x_min":58,"x_max":1065,"o":"m 58 0 m 58 314 q 139 632 58 471 q 363 898 219 793 q 688 1003 507 1003 q 890 964 805 1003 q 1020 849 975 924 q 1065 668 1065 774 q 984 351 1065 511 q 759 85 903 191 q 435 -20 614 -20 q 233 20 317 -20 q 103 134 148 59 q 58 314 58 209 m 675 978 q 493 878 581 978 q 351 619 405 778 q 297 296 297 460 q 316 141 297 207 q 369 40 335 75 q 447 5 403 5 q 629 105 542 5 q 771 364 717 205 q 825 688 825 523 q 806 842 825 777 q 753 943 787 908 q 675 978 719 978 m 441 1137 l 450 1173 l 1006 1173 l 997 1137 l 441 1137 z "},"Ø":{"ha":1079,"x_min":-3,"x_max":1117,"o":"m 976 905 q 1065 668 1065 818 q 984 351 1065 511 q 759 85 903 191 q 435 -20 614 -20 q 172 56 270 -20 l 20 -102 l -3 -82 l 149 76 q 58 314 58 164 q 139 632 58 471 q 363 898 219 793 q 688 1003 507 1003 q 954 924 856 1003 l 1097 1074 l 1117 1055 l 976 905 m 675 978 q 493 878 581 978 q 351 619 405 778 q 297 296 297 460 q 303 205 297 248 l 817 793 q 765 929 802 881 q 675 978 727 978 m 447 5 q 629 105 542 5 q 771 364 717 205 q 825 688 825 523 q 822 755 825 720 l 309 168 q 362 48 326 90 q 447 5 398 5 z "},"Õ":{"ha":1079,"x_min":58,"x_max":1074,"o":"m 58 0 m 58 314 q 139 632 58 471 q 363 898 219 793 q 688 1003 507 1003 q 890 964 805 1003 q 1020 849 975 924 q 1065 668 1065 774 q 984 351 1065 511 q 759 85 903 191 q 435 -20 614 -20 q 233 20 317 -20 q 103 134 148 59 q 58 314 58 209 m 675 978 q 493 878 581 978 q 351 619 405 778 q 297 296 297 460 q 316 141 297 207 q 369 40 335 75 q 447 5 403 5 q 629 105 542 5 q 771 364 717 205 q 825 688 825 523 q 806 842 825 777 q 753 943 787 908 q 675 978 719 978 m 678 1287 q 740 1279 713 1287 q 786 1260 767 1272 q 831 1231 806 1249 q 887 1197 863 1208 q 942 1186 910 1186 q 998 1205 972 1186 q 1049 1266 1024 1223 l 1074 1259 q 975 1114 1037 1162 q 844 1066 913 1066 q 782 1074 809 1066 q 735 1093 755 1082 q 690 1122 716 1104 q 635 1157 659 1145 q 580 1168 612 1168 q 524 1149 550 1168 q 473 1087 498 1130 l 448 1094 q 548 1240 486 1192 q 678 1287 610 1287 z "},"Œ":{"ha":1381,"x_min":60,"x_max":1447,"o":"m 1171 979 q 1447 983 1362 979 q 1394 819 1418 909 q 1376 733 1379 770 l 1345 733 q 1356 831 1356 791 q 1327 924 1356 897 q 1233 951 1298 951 l 1151 951 q 1079 943 1103 951 q 1040 912 1055 935 q 1012 836 1025 888 l 925 509 l 1027 509 q 1093 529 1067 509 q 1135 581 1119 550 q 1171 664 1151 612 l 1201 664 q 1164 536 1185 617 l 1154 494 q 1118 325 1137 432 l 1087 325 q 1090 368 1087 332 q 1094 410 1094 393 q 1079 460 1094 441 q 1022 481 1063 478 l 918 481 l 829 147 q 817 79 817 100 q 826 50 817 60 q 854 36 835 39 q 908 32 873 32 l 1004 32 q 1114 55 1071 32 q 1188 130 1157 78 q 1252 278 1220 182 l 1283 278 q 1260 202 1275 259 l 1254 178 q 1217 0 1230 98 q 909 4 1124 4 q 570 2 688 4 q 425 -20 494 -20 q 229 20 311 -20 q 103 134 146 59 q 60 314 60 209 q 139 632 60 471 q 359 898 218 793 q 677 1003 500 1003 q 807 980 745 1003 q 1008 979 869 979 l 1171 979 m 791 836 q 801 898 801 874 q 772 961 801 943 q 682 978 743 978 q 494 878 583 978 q 352 620 405 779 q 298 296 298 462 q 317 140 298 205 q 369 40 335 75 q 450 5 404 5 q 547 27 511 5 q 597 104 583 49 l 791 836 z "},"P":{"ha":893,"x_min":-58,"x_max":949,"o":"m 310 147 q 299 86 299 108 q 320 44 299 57 q 392 28 340 31 l 386 0 q 172 4 302 4 q -58 0 15 4 l -53 28 q 22 39 -3 30 q 62 71 47 47 q 90 147 77 95 l 273 836 q 284 901 284 883 q 264 941 284 929 q 192 956 244 954 l 199 983 q 419 979 270 979 q 519 981 452 979 q 623 982 587 982 q 949 772 949 982 q 877 578 949 664 q 674 444 804 492 q 376 395 543 395 l 310 147 m 389 422 q 578 478 505 422 q 684 620 652 534 q 717 804 717 707 q 685 918 717 880 q 582 956 652 956 q 539 946 553 956 q 516 913 525 936 q 493 836 507 891 l 383 422 l 389 422 z "},"Þ":{"ha":918,"x_min":-58,"x_max":916,"o":"m 311 147 q 299 80 299 102 q 308 49 299 60 q 337 34 317 38 q 393 28 357 29 l 387 0 q 161 4 307 4 q -58 0 16 4 l -51 28 q 22 39 -3 30 q 61 72 46 47 q 90 147 76 96 l 273 836 q 285 903 285 880 q 275 935 285 924 q 247 950 266 945 q 191 956 227 954 l 198 983 q 416 979 267 979 q 644 983 555 979 l 637 956 q 561 945 586 954 q 522 912 536 936 q 494 836 507 888 l 479 781 q 589 782 552 782 q 771 756 698 782 q 880 683 844 730 q 916 572 916 636 q 843 378 916 464 q 640 243 770 292 q 342 195 510 195 l 323 195 l 311 147 m 532 755 q 472 754 503 755 l 330 222 l 356 222 q 540 274 467 222 q 649 409 614 325 q 684 595 684 494 q 645 713 684 670 q 532 755 607 755 z "},"Q":{"ha":1155,"x_min":-54,"x_max":1133,"o":"m 928 143 q 1011 113 979 143 q 1043 27 1043 83 q 991 -110 1043 -43 q 850 -219 939 -177 q 656 -261 761 -261 q 507 -235 574 -261 q 388 -171 439 -209 q 277 -77 337 -134 q 91 -114 169 -114 q -15 -85 24 -114 q -54 -2 -54 -57 q -28 78 -54 42 q 42 134 -3 114 q 141 154 86 154 q 243 136 193 154 q 338 92 293 119 q 446 22 383 65 q 675 192 572 88 q 837 426 777 296 q 897 696 897 556 q 843 903 897 829 q 688 978 789 978 q 519 915 593 978 q 405 753 446 852 q 365 550 365 654 q 399 421 365 465 q 507 378 433 378 q 611 402 563 378 q 690 468 659 427 q 733 554 722 508 q 739 621 741 587 q 690 558 725 579 q 616 537 654 537 q 544 566 571 537 q 517 641 517 595 q 534 706 517 677 q 582 752 552 735 q 648 768 612 768 q 740 727 706 768 q 773 615 773 685 q 729 472 773 536 q 608 373 686 409 q 431 338 530 338 q 275 367 342 338 q 169 452 207 397 q 132 585 132 508 q 214 797 132 701 q 431 948 296 893 q 717 1003 566 1003 q 933 968 839 1003 q 1080 869 1027 933 q 1133 721 1133 806 q 1036 468 1133 602 q 788 212 940 334 q 469 5 635 91 q 589 -72 538 -42 q 699 -122 640 -102 q 821 -142 758 -142 q 1000 -44 949 -142 q 911 -75 962 -75 q 834 -47 864 -75 q 804 26 804 -20 q 820 86 804 59 q 864 128 836 113 q 928 143 892 143 m 102 -90 q 256 -58 161 -90 q 185 4 215 -20 q 124 42 156 27 q 58 57 92 57 q -1 39 22 57 q -24 -11 -24 20 q 9 -70 -24 -49 q 102 -90 43 -90 z "},"R":{"ha":987,"x_min":-58,"x_max":949,"o":"m 942 168 l 936 150 q 860 22 910 63 q 724 -20 809 -20 q 597 17 640 -20 q 554 115 554 53 q 556 142 554 128 l 576 300 q 580 345 580 327 q 564 415 580 389 q 508 456 547 442 q 397 472 468 471 l 311 147 q 297 79 297 96 q 318 42 297 54 q 392 28 338 30 l 386 0 q 169 4 302 4 q -58 0 15 4 l -53 28 q 22 39 -3 30 q 62 71 47 47 q 90 147 77 95 l 273 836 q 285 901 285 880 q 264 941 285 928 q 192 956 244 953 l 199 983 q 409 979 270 979 q 529 981 457 979 q 617 982 590 982 q 867 935 786 982 q 949 789 949 887 q 898 643 949 707 q 754 536 847 578 q 536 480 661 494 l 537 480 q 676 458 621 473 q 764 410 731 443 q 796 319 796 377 q 794 289 796 305 l 776 146 q 774 114 774 129 q 818 49 774 49 q 865 73 844 49 q 903 149 885 98 l 909 168 l 942 168 m 414 497 q 576 534 505 497 q 686 641 646 570 q 725 810 725 711 q 693 920 725 884 q 596 956 661 956 q 550 948 568 956 q 522 921 533 940 q 500 865 510 901 l 404 497 l 414 497 z "},"Ŕ":{"ha":987,"x_min":-58,"x_max":949,"o":"m 0 0 m 942 168 l 936 150 q 860 22 910 63 q 724 -20 809 -20 q 597 17 640 -20 q 554 115 554 53 q 556 142 554 128 l 576 300 q 580 345 580 327 q 564 415 580 389 q 508 456 547 442 q 397 472 468 471 l 311 147 q 297 79 297 96 q 318 42 297 54 q 392 28 338 30 l 386 0 q 169 4 302 4 q -58 0 15 4 l -53 28 q 22 39 -3 30 q 62 71 47 47 q 90 147 77 95 l 273 836 q 285 901 285 880 q 264 941 285 928 q 192 956 244 953 l 199 983 q 409 979 270 979 q 529 981 457 979 q 617 982 590 982 q 867 935 786 982 q 949 789 949 887 q 898 643 949 707 q 754 536 847 578 q 536 480 661 494 l 537 480 q 676 458 621 473 q 764 410 731 443 q 796 319 796 377 q 794 289 796 305 l 776 146 q 774 114 774 129 q 818 49 774 49 q 865 73 844 49 q 903 149 885 98 l 909 168 l 942 168 m 414 497 q 576 534 505 497 q 686 641 646 570 q 725 810 725 711 q 693 920 725 884 q 596 956 661 956 q 550 948 568 956 q 522 921 533 940 q 500 865 510 901 l 404 497 l 414 497 m 497 1088 q 643 1217 562 1140 q 710 1277 686 1257 q 761 1312 734 1297 q 821 1329 790 1329 q 888 1291 868 1329 q 895 1263 895 1277 q 877 1219 895 1240 q 832 1183 860 1198 q 780 1160 808 1169 q 699 1135 751 1150 q 507 1072 578 1100 l 497 1088 z "},"Ř":{"ha":987,"x_min":-58,"x_max":979,"o":"m 0 0 m 942 168 l 936 150 q 860 22 910 63 q 724 -20 809 -20 q 597 17 640 -20 q 554 115 554 53 q 556 142 554 128 l 576 300 q 580 345 580 327 q 564 415 580 389 q 508 456 547 442 q 397 472 468 471 l 311 147 q 297 79 297 96 q 318 42 297 54 q 392 28 338 30 l 386 0 q 169 4 302 4 q -58 0 15 4 l -53 28 q 22 39 -3 30 q 62 71 47 47 q 90 147 77 95 l 273 836 q 285 901 285 880 q 264 941 285 928 q 192 956 244 953 l 199 983 q 409 979 270 979 q 529 981 457 979 q 617 982 590 982 q 867 935 786 982 q 949 789 949 887 q 898 643 949 707 q 754 536 847 578 q 536 480 661 494 l 537 480 q 676 458 621 473 q 764 410 731 443 q 796 319 796 377 q 794 289 796 305 l 776 146 q 774 114 774 129 q 818 49 774 49 q 865 73 844 49 q 903 149 885 98 l 909 168 l 942 168 m 414 497 q 576 534 505 497 q 686 641 646 570 q 725 810 725 711 q 693 920 725 884 q 596 956 661 956 q 550 948 568 956 q 522 921 533 940 q 500 865 510 901 l 404 497 l 414 497 m 670 1219 q 972 1301 817 1273 l 979 1282 q 765 1188 865 1246 q 603 1067 665 1131 l 578 1067 q 502 1195 546 1144 q 385 1282 458 1246 l 390 1301 q 542 1267 481 1286 q 670 1219 602 1249 z "},"Ŗ":{"ha":987,"x_min":-58,"x_max":949,"o":"m 0 0 m 942 168 l 936 150 q 860 22 910 63 q 724 -20 809 -20 q 597 17 640 -20 q 554 115 554 53 q 556 142 554 128 l 576 300 q 580 345 580 327 q 564 415 580 389 q 508 456 547 442 q 397 472 468 471 l 311 147 q 297 79 297 96 q 318 42 297 54 q 392 28 338 30 l 386 0 q 169 4 302 4 q -58 0 15 4 l -53 28 q 22 39 -3 30 q 62 71 47 47 q 90 147 77 95 l 273 836 q 285 901 285 880 q 264 941 285 928 q 192 956 244 953 l 199 983 q 409 979 270 979 q 529 981 457 979 q 617 982 590 982 q 867 935 786 982 q 949 789 949 887 q 898 643 949 707 q 754 536 847 578 q 536 480 661 494 l 537 480 q 676 458 621 473 q 764 410 731 443 q 796 319 796 377 q 794 289 796 305 l 776 146 q 774 114 774 129 q 818 49 774 49 q 865 73 844 49 q 903 149 885 98 l 909 168 l 942 168 m 414 497 q 576 534 505 497 q 686 641 646 570 q 725 810 725 711 q 693 920 725 884 q 596 956 661 956 q 550 948 568 956 q 522 921 533 940 q 500 865 510 901 l 404 497 l 414 497 m 318 -183 q 335 -127 318 -152 q 381 -87 352 -102 q 444 -73 410 -73 q 511 -96 484 -73 q 538 -159 538 -118 q 486 -278 538 -232 q 347 -335 433 -325 l 343 -308 q 436 -281 397 -303 q 482 -227 475 -260 q 401 -251 450 -251 q 340 -234 362 -251 q 318 -183 318 -216 z "},"S":{"ha":815,"x_min":-39,"x_max":861,"o":"m 861 993 q 779 710 808 858 l 751 710 q 760 787 760 749 q 737 883 760 842 q 669 947 714 924 q 561 970 625 970 q 439 932 486 970 q 393 819 393 895 q 413 731 393 774 q 465 650 434 688 q 547 558 495 613 q 638 456 604 497 q 695 364 671 414 q 719 258 719 313 q 660 102 719 165 q 512 10 600 40 q 336 -20 424 -20 q 231 -12 274 -20 q 160 9 189 -3 q 96 45 132 22 q 47 65 64 65 q 19 50 30 65 q -12 -9 7 35 l -39 -9 q 56 323 7 100 l 83 323 q 71 224 71 277 q 129 65 71 120 q 297 11 186 11 q 476 157 476 11 q 456 259 476 212 q 407 346 436 307 q 329 439 378 384 q 250 534 279 495 q 201 621 221 572 q 180 725 180 669 q 231 877 180 814 q 361 971 282 940 q 522 1003 439 1003 q 645 986 595 1003 q 741 941 696 969 q 787 920 778 920 q 809 937 798 920 q 833 993 819 954 l 861 993 z "},"Ś":{"ha":815,"x_min":-39,"x_max":865,"o":"m 0 0 m 861 993 q 779 710 808 858 l 751 710 q 760 787 760 749 q 737 883 760 842 q 669 947 714 924 q 561 970 625 970 q 439 932 486 970 q 393 819 393 895 q 413 731 393 774 q 465 650 434 688 q 547 558 495 613 q 638 456 604 497 q 695 364 671 414 q 719 258 719 313 q 660 102 719 165 q 512 10 600 40 q 336 -20 424 -20 q 231 -12 274 -20 q 160 9 189 -3 q 96 45 132 22 q 47 65 64 65 q 19 50 30 65 q -12 -9 7 35 l -39 -9 q 56 323 7 100 l 83 323 q 71 224 71 277 q 129 65 71 120 q 297 11 186 11 q 476 157 476 11 q 456 259 476 212 q 407 346 436 307 q 329 439 378 384 q 250 534 279 495 q 201 621 221 572 q 180 725 180 669 q 231 877 180 814 q 361 971 282 940 q 522 1003 439 1003 q 645 986 595 1003 q 741 941 696 969 q 787 920 778 920 q 809 937 798 920 q 833 993 819 954 l 861 993 m 468 1088 q 614 1217 533 1140 q 681 1277 657 1257 q 732 1312 705 1297 q 791 1329 761 1329 q 859 1291 839 1329 q 865 1263 865 1277 q 848 1219 865 1240 q 803 1183 831 1198 q 750 1160 779 1169 q 670 1135 722 1150 q 477 1072 549 1100 l 468 1088 z "},"Š":{"ha":815,"x_min":-39,"x_max":950,"o":"m 0 0 m 861 993 q 779 710 808 858 l 751 710 q 760 787 760 749 q 737 883 760 842 q 669 947 714 924 q 561 970 625 970 q 439 932 486 970 q 393 819 393 895 q 413 731 393 774 q 465 650 434 688 q 547 558 495 613 q 638 456 604 497 q 695 364 671 414 q 719 258 719 313 q 660 102 719 165 q 512 10 600 40 q 336 -20 424 -20 q 231 -12 274 -20 q 160 9 189 -3 q 96 45 132 22 q 47 65 64 65 q 19 50 30 65 q -12 -9 7 35 l -39 -9 q 56 323 7 100 l 83 323 q 71 224 71 277 q 129 65 71 120 q 297 11 186 11 q 476 157 476 11 q 456 259 476 212 q 407 346 436 307 q 329 439 378 384 q 250 534 279 495 q 201 621 221 572 q 180 725 180 669 q 231 877 180 814 q 361 971 282 940 q 522 1003 439 1003 q 645 986 595 1003 q 741 941 696 969 q 787 920 778 920 q 809 937 798 920 q 833 993 819 954 l 861 993 m 641 1219 q 943 1301 787 1273 l 950 1282 q 735 1188 836 1246 q 574 1067 635 1131 l 549 1067 q 473 1195 517 1144 q 355 1282 429 1246 l 361 1301 q 513 1267 452 1286 q 641 1219 573 1249 z "},"Ş":{"ha":815,"x_min":-39,"x_max":861,"o":"m 861 993 q 779 710 808 858 l 751 710 q 760 787 760 749 q 737 883 760 842 q 669 947 714 924 q 561 970 625 970 q 439 932 486 970 q 393 819 393 895 q 413 731 393 774 q 465 650 434 688 q 547 558 495 613 q 638 456 604 497 q 695 364 671 414 q 719 258 719 313 q 660 102 719 165 q 512 10 600 40 q 336 -20 424 -20 l 326 -20 l 296 -87 q 376 -74 334 -74 q 444 -91 419 -74 q 469 -140 469 -107 q 434 -208 469 -181 q 346 -248 399 -235 q 233 -261 292 -261 q 145 -253 186 -261 q 81 -234 104 -244 l 90 -212 q 202 -228 142 -228 q 287 -214 248 -228 q 327 -164 327 -199 q 283 -132 327 -132 q 234 -142 258 -132 l 290 -18 q 209 -7 243 -16 q 152 13 176 1 q 96 45 127 25 q 47 65 64 65 q 19 50 30 65 q -12 -9 7 35 l -39 -9 q 56 323 7 100 l 83 323 q 71 224 71 277 q 129 65 71 120 q 297 11 186 11 q 476 157 476 11 q 456 259 476 212 q 407 346 436 307 q 329 439 378 384 q 250 534 279 495 q 201 621 221 572 q 180 725 180 669 q 231 877 180 814 q 361 971 282 940 q 522 1003 439 1003 q 645 986 595 1003 q 741 941 696 969 q 787 920 778 920 q 809 937 798 920 q 833 993 819 954 l 861 993 z "},"Ŝ":{"ha":815,"x_min":-39,"x_max":861,"o":"m 0 0 m 861 993 q 779 710 808 858 l 751 710 q 760 787 760 749 q 737 883 760 842 q 669 947 714 924 q 561 970 625 970 q 439 932 486 970 q 393 819 393 895 q 413 731 393 774 q 465 650 434 688 q 547 558 495 613 q 638 456 604 497 q 695 364 671 414 q 719 258 719 313 q 660 102 719 165 q 512 10 600 40 q 336 -20 424 -20 q 231 -12 274 -20 q 160 9 189 -3 q 96 45 132 22 q 47 65 64 65 q 19 50 30 65 q -12 -9 7 35 l -39 -9 q 56 323 7 100 l 83 323 q 71 224 71 277 q 129 65 71 120 q 297 11 186 11 q 476 157 476 11 q 456 259 476 212 q 407 346 436 307 q 329 439 378 384 q 250 534 279 495 q 201 621 221 572 q 180 725 180 669 q 231 877 180 814 q 361 971 282 940 q 522 1003 439 1003 q 645 986 595 1003 q 741 941 696 969 q 787 920 778 920 q 809 937 798 920 q 833 993 819 954 l 861 993 m 564 1154 q 262 1071 419 1099 l 256 1090 q 471 1184 370 1126 q 632 1305 571 1242 l 657 1305 q 732 1177 688 1228 q 850 1090 776 1126 l 844 1071 q 692 1105 753 1086 q 564 1154 631 1124 z "},"Ș":{"ha":815,"x_min":-39,"x_max":861,"o":"m 0 0 m 861 993 q 779 710 808 858 l 751 710 q 760 787 760 749 q 737 883 760 842 q 669 947 714 924 q 561 970 625 970 q 439 932 486 970 q 393 819 393 895 q 413 731 393 774 q 465 650 434 688 q 547 558 495 613 q 638 456 604 497 q 695 364 671 414 q 719 258 719 313 q 660 102 719 165 q 512 10 600 40 q 336 -20 424 -20 q 231 -12 274 -20 q 160 9 189 -3 q 96 45 132 22 q 47 65 64 65 q 19 50 30 65 q -12 -9 7 35 l -39 -9 q 56 323 7 100 l 83 323 q 71 224 71 277 q 129 65 71 120 q 297 11 186 11 q 476 157 476 11 q 456 259 476 212 q 407 346 436 307 q 329 439 378 384 q 250 534 279 495 q 201 621 221 572 q 180 725 180 669 q 231 877 180 814 q 361 971 282 940 q 522 1003 439 1003 q 645 986 595 1003 q 741 941 696 969 q 787 920 778 920 q 809 937 798 920 q 833 993 819 954 l 861 993 m 192 -183 q 209 -127 192 -152 q 255 -87 226 -102 q 317 -73 283 -73 q 385 -96 357 -73 q 412 -159 412 -118 q 359 -278 412 -232 q 221 -335 307 -325 l 217 -308 q 310 -281 271 -303 q 356 -227 349 -260 q 275 -251 323 -251 q 214 -234 236 -251 q 192 -183 192 -216 z "},"ẞ":{"ha":913,"x_min":-85,"x_max":891,"o":"m 138 -240 q -85 -261 21 -242 l 155 635 q 329 915 205 826 q 633 1003 452 1003 q 824 959 756 1003 q 891 821 891 914 q 842 689 891 749 q 710 586 792 629 q 532 519 629 543 q 711 474 642 510 q 810 389 780 439 q 840 284 840 339 q 786 124 840 193 q 638 18 732 55 q 432 -20 545 -20 q 321 6 363 -20 q 279 85 279 32 q 293 146 279 117 q 334 195 307 176 q 395 214 360 214 q 458 191 434 214 q 481 131 481 168 q 452 54 481 89 q 378 8 422 19 q 427 3 401 3 q 524 38 481 3 q 591 139 567 74 q 615 288 615 203 q 602 391 615 340 q 563 475 588 442 q 504 507 537 507 q 432 490 453 490 q 404 507 404 490 q 416 527 404 519 q 444 534 427 534 q 512 522 462 534 q 593 610 557 551 q 647 740 628 669 q 667 873 667 810 q 652 957 667 932 q 595 982 637 982 q 491 935 538 982 q 414 779 444 887 l 138 -240 z "},"T":{"ha":945,"x_min":120,"x_max":1192,"o":"m 1085 1192 q 1142 1179 1118 1192 q 1179 1142 1166 1165 q 1192 1094 1192 1120 q 1095 963 1192 1008 q 863 922 1010 922 q 782 926 829 922 l 580 161 q 569 96 569 123 q 580 58 569 72 q 616 37 591 43 q 684 28 641 30 l 678 0 q 421 4 591 4 q 177 0 256 4 l 182 28 q 274 42 241 30 q 326 81 307 54 q 359 161 345 109 l 568 945 q 401 956 457 956 q 244 932 288 956 q 304 891 281 922 q 328 819 328 861 q 314 761 328 787 q 276 719 300 734 q 220 703 251 703 q 146 734 173 703 q 120 812 120 766 q 141 888 120 851 q 210 948 161 924 q 396 981 277 981 q 654 964 489 981 q 876 950 802 950 q 1023 968 970 950 q 975 1078 975 1015 q 1005 1160 975 1128 q 1085 1192 1036 1192 z "},"Ŧ":{"ha":966,"x_min":121,"x_max":1193,"o":"m 1086 1192 q 1143 1179 1119 1192 q 1180 1142 1167 1165 q 1193 1094 1193 1120 q 1097 963 1193 1008 q 865 922 1012 922 q 783 926 831 922 l 673 509 l 871 509 l 864 481 l 666 481 l 581 161 q 570 96 570 123 q 582 58 570 72 q 617 37 593 43 q 685 28 642 30 l 680 0 q 422 4 592 4 q 178 0 258 4 l 184 28 q 276 42 243 30 q 327 81 309 54 q 360 161 346 109 l 445 481 l 248 481 l 254 509 l 452 509 l 569 945 q 402 956 458 956 q 245 932 290 956 q 306 891 282 922 q 330 819 330 861 q 316 761 330 787 q 277 719 302 734 q 221 703 252 703 q 148 734 174 703 q 121 812 121 766 q 142 888 121 851 q 212 948 163 924 q 397 981 279 981 q 656 964 490 981 q 877 950 804 950 q 1024 968 971 950 q 977 1078 977 1015 q 1007 1160 977 1128 q 1086 1192 1037 1192 z "},"Ť":{"ha":945,"x_min":120,"x_max":1192,"o":"m 120 0 m 1085 1192 q 1142 1179 1118 1192 q 1179 1142 1166 1165 q 1192 1094 1192 1120 q 1095 963 1192 1008 q 863 922 1010 922 q 782 926 829 922 l 580 161 q 569 96 569 123 q 580 58 569 72 q 616 37 591 43 q 684 28 641 30 l 678 0 q 421 4 591 4 q 177 0 256 4 l 182 28 q 274 42 241 30 q 326 81 307 54 q 359 161 345 109 l 568 945 q 401 956 457 956 q 244 932 288 956 q 304 891 281 922 q 328 819 328 861 q 314 761 328 787 q 276 719 300 734 q 220 703 251 703 q 146 734 173 703 q 120 812 120 766 q 141 888 120 851 q 210 948 161 924 q 396 981 277 981 q 654 964 489 981 q 876 950 802 950 q 1023 968 970 950 q 975 1078 975 1015 q 1005 1160 975 1128 q 1085 1192 1036 1192 m 753 1219 q 1055 1301 899 1273 l 1062 1282 q 847 1188 947 1246 q 686 1067 747 1131 l 661 1067 q 585 1195 629 1144 q 467 1282 541 1246 l 473 1301 q 625 1267 564 1286 q 753 1219 685 1249 z "},"Ţ":{"ha":945,"x_min":120,"x_max":1192,"o":"m 1085 1192 q 1142 1179 1118 1192 q 1179 1142 1166 1165 q 1192 1094 1192 1120 q 1095 963 1192 1008 q 863 922 1010 922 q 782 926 829 922 l 580 161 q 569 96 569 123 q 580 58 569 72 q 616 37 591 43 q 684 28 641 30 l 678 0 q 441 4 597 4 l 400 -87 q 480 -74 439 -74 q 549 -91 524 -74 q 574 -140 574 -107 q 539 -208 574 -181 q 450 -248 504 -235 q 338 -261 396 -261 q 250 -253 291 -261 q 186 -234 209 -244 l 195 -212 q 307 -228 246 -228 q 392 -214 352 -228 q 431 -164 431 -199 q 387 -132 431 -132 q 338 -142 363 -132 l 404 4 q 177 0 252 4 l 182 28 q 274 42 241 30 q 326 81 307 54 q 359 161 345 109 l 568 945 q 401 956 457 956 q 244 932 288 956 q 304 891 281 922 q 328 819 328 861 q 314 761 328 787 q 276 719 300 734 q 220 703 251 703 q 146 734 173 703 q 120 812 120 766 q 141 888 120 851 q 210 948 161 924 q 396 981 277 981 q 654 964 489 981 q 876 950 802 950 q 1023 968 970 950 q 975 1078 975 1015 q 1005 1160 975 1128 q 1085 1192 1036 1192 z "},"Ț":{"ha":945,"x_min":120,"x_max":1192,"o":"m 120 0 m 1085 1192 q 1142 1179 1118 1192 q 1179 1142 1166 1165 q 1192 1094 1192 1120 q 1095 963 1192 1008 q 863 922 1010 922 q 782 926 829 922 l 580 161 q 569 96 569 123 q 580 58 569 72 q 616 37 591 43 q 684 28 641 30 l 678 0 q 421 4 591 4 q 177 0 256 4 l 182 28 q 274 42 241 30 q 326 81 307 54 q 359 161 345 109 l 568 945 q 401 956 457 956 q 244 932 288 956 q 304 891 281 922 q 328 819 328 861 q 314 761 328 787 q 276 719 300 734 q 220 703 251 703 q 146 734 173 703 q 120 812 120 766 q 141 888 120 851 q 210 948 161 924 q 396 981 277 981 q 654 964 489 981 q 876 950 802 950 q 1023 968 970 950 q 975 1078 975 1015 q 1005 1160 975 1128 q 1085 1192 1036 1192 m 296 -183 q 313 -127 296 -152 q 359 -87 330 -102 q 422 -73 388 -73 q 489 -96 462 -73 q 517 -159 517 -118 q 464 -278 517 -232 q 326 -335 411 -325 l 321 -308 q 414 -281 376 -303 q 460 -227 453 -260 q 380 -251 428 -251 q 318 -234 340 -251 q 296 -183 296 -216 z "},"U":{"ha":964,"x_min":105,"x_max":1088,"o":"m 893 755 q 914 873 914 836 q 891 932 914 914 q 809 956 867 949 l 817 983 q 966 979 868 979 q 1088 983 1042 979 l 1080 956 q 1007 932 1034 949 q 963 879 981 915 q 928 772 946 843 l 833 404 q 696 110 783 212 q 571 15 646 50 q 412 -20 496 -20 q 243 9 311 -20 q 141 90 175 37 q 105 220 105 142 q 134 400 105 291 l 250 836 q 261 903 261 880 q 252 935 261 924 q 223 950 242 945 q 168 956 203 954 l 176 983 q 405 979 247 979 q 621 983 535 979 l 612 956 q 536 945 561 954 q 497 912 511 936 q 469 836 482 888 l 347 376 q 313 175 313 253 q 344 65 313 102 q 438 29 374 29 q 668 123 584 29 q 797 389 752 218 l 893 755 z "},"Ú":{"ha":964,"x_min":105,"x_max":1088,"o":"m 105 0 m 893 755 q 914 873 914 836 q 891 932 914 914 q 809 956 867 949 l 817 983 q 966 979 868 979 q 1088 983 1042 979 l 1080 956 q 1007 932 1034 949 q 963 879 981 915 q 928 772 946 843 l 833 404 q 696 110 783 212 q 571 15 646 50 q 412 -20 496 -20 q 243 9 311 -20 q 141 90 175 37 q 105 220 105 142 q 134 400 105 291 l 250 836 q 261 903 261 880 q 252 935 261 924 q 223 950 242 945 q 168 956 203 954 l 176 983 q 405 979 247 979 q 621 983 535 979 l 612 956 q 536 945 561 954 q 497 912 511 936 q 469 836 482 888 l 347 376 q 313 175 313 253 q 344 65 313 102 q 438 29 374 29 q 668 123 584 29 q 797 389 752 218 l 893 755 m 591 1088 q 736 1217 656 1140 q 804 1277 780 1257 q 854 1312 827 1297 q 914 1329 884 1329 q 981 1291 962 1329 q 988 1263 988 1277 q 971 1219 988 1240 q 926 1183 954 1198 q 873 1160 902 1169 q 793 1135 844 1150 q 600 1072 672 1100 l 591 1088 z "},"Ŭ":{"ha":964,"x_min":105,"x_max":1088,"o":"m 105 0 m 893 755 q 914 873 914 836 q 891 932 914 914 q 809 956 867 949 l 817 983 q 966 979 868 979 q 1088 983 1042 979 l 1080 956 q 1007 932 1034 949 q 963 879 981 915 q 928 772 946 843 l 833 404 q 696 110 783 212 q 571 15 646 50 q 412 -20 496 -20 q 243 9 311 -20 q 141 90 175 37 q 105 220 105 142 q 134 400 105 291 l 250 836 q 261 903 261 880 q 252 935 261 924 q 223 950 242 945 q 168 956 203 954 l 176 983 q 405 979 247 979 q 621 983 535 979 l 612 956 q 536 945 561 954 q 497 912 511 936 q 469 836 482 888 l 347 376 q 313 175 313 253 q 344 65 313 102 q 438 29 374 29 q 668 123 584 29 q 797 389 752 218 l 893 755 m 705 1206 q 1023 1286 890 1206 l 1038 1272 q 942 1174 1001 1220 q 814 1099 884 1128 q 679 1070 745 1070 q 531 1126 587 1070 q 458 1271 475 1181 l 479 1280 q 572 1224 520 1241 q 705 1206 625 1206 z "},"Û":{"ha":964,"x_min":105,"x_max":1088,"o":"m 105 0 m 893 755 q 914 873 914 836 q 891 932 914 914 q 809 956 867 949 l 817 983 q 966 979 868 979 q 1088 983 1042 979 l 1080 956 q 1007 932 1034 949 q 963 879 981 915 q 928 772 946 843 l 833 404 q 696 110 783 212 q 571 15 646 50 q 412 -20 496 -20 q 243 9 311 -20 q 141 90 175 37 q 105 220 105 142 q 134 400 105 291 l 250 836 q 261 903 261 880 q 252 935 261 924 q 223 950 242 945 q 168 956 203 954 l 176 983 q 405 979 247 979 q 621 983 535 979 l 612 956 q 536 945 561 954 q 497 912 511 936 q 469 836 482 888 l 347 376 q 313 175 313 253 q 344 65 313 102 q 438 29 374 29 q 668 123 584 29 q 797 389 752 218 l 893 755 m 687 1154 q 385 1071 542 1099 l 378 1090 q 593 1184 493 1126 q 755 1305 694 1242 l 780 1305 q 855 1177 811 1228 q 972 1090 899 1126 l 967 1071 q 815 1105 876 1086 q 687 1154 754 1124 z "},"Ü":{"ha":964,"x_min":105,"x_max":1088,"o":"m 105 0 m 893 755 q 914 873 914 836 q 891 932 914 914 q 809 956 867 949 l 817 983 q 966 979 868 979 q 1088 983 1042 979 l 1080 956 q 1007 932 1034 949 q 963 879 981 915 q 928 772 946 843 l 833 404 q 696 110 783 212 q 571 15 646 50 q 412 -20 496 -20 q 243 9 311 -20 q 141 90 175 37 q 105 220 105 142 q 134 400 105 291 l 250 836 q 261 903 261 880 q 252 935 261 924 q 223 950 242 945 q 168 956 203 954 l 176 983 q 405 979 247 979 q 621 983 535 979 l 612 956 q 536 945 561 954 q 497 912 511 936 q 469 836 482 888 l 347 376 q 313 175 313 253 q 344 65 313 102 q 438 29 374 29 q 668 123 584 29 q 797 389 752 218 l 893 755 m 418 1156 q 434 1218 418 1192 q 478 1259 451 1245 q 538 1274 506 1274 q 605 1248 581 1274 q 628 1181 628 1222 q 611 1118 628 1144 q 566 1078 594 1091 q 507 1064 538 1064 q 440 1089 463 1064 q 418 1156 418 1114 m 751 1156 q 767 1218 751 1192 q 811 1259 784 1245 q 871 1274 839 1274 q 938 1248 914 1274 q 961 1181 961 1222 q 944 1118 961 1144 q 899 1078 927 1091 q 840 1064 871 1064 q 773 1089 796 1064 q 751 1156 751 1114 z "},"Ù":{"ha":964,"x_min":105,"x_max":1088,"o":"m 105 0 m 893 755 q 914 873 914 836 q 891 932 914 914 q 809 956 867 949 l 817 983 q 966 979 868 979 q 1088 983 1042 979 l 1080 956 q 1007 932 1034 949 q 963 879 981 915 q 928 772 946 843 l 833 404 q 696 110 783 212 q 571 15 646 50 q 412 -20 496 -20 q 243 9 311 -20 q 141 90 175 37 q 105 220 105 142 q 134 400 105 291 l 250 836 q 261 903 261 880 q 252 935 261 924 q 223 950 242 945 q 168 956 203 954 l 176 983 q 405 979 247 979 q 621 983 535 979 l 612 956 q 536 945 561 954 q 497 912 511 936 q 469 836 482 888 l 347 376 q 313 175 313 253 q 344 65 313 102 q 438 29 374 29 q 668 123 584 29 q 797 389 752 218 l 893 755 m 742 1071 q 578 1136 667 1105 q 477 1180 507 1160 q 446 1211 458 1192 q 434 1251 434 1230 q 444 1284 434 1267 q 507 1318 464 1318 q 559 1303 537 1318 q 593 1274 578 1291 q 634 1223 609 1257 q 753 1086 697 1141 l 742 1071 z "},"Ű":{"ha":964,"x_min":105,"x_max":1088,"o":"m 105 0 m 893 755 q 914 873 914 836 q 891 932 914 914 q 809 956 867 949 l 817 983 q 966 979 868 979 q 1088 983 1042 979 l 1080 956 q 1007 932 1034 949 q 963 879 981 915 q 928 772 946 843 l 833 404 q 696 110 783 212 q 571 15 646 50 q 412 -20 496 -20 q 243 9 311 -20 q 141 90 175 37 q 105 220 105 142 q 134 400 105 291 l 250 836 q 261 903 261 880 q 252 935 261 924 q 223 950 242 945 q 168 956 203 954 l 176 983 q 405 979 247 979 q 621 983 535 979 l 612 956 q 536 945 561 954 q 497 912 511 936 q 469 836 482 888 l 347 376 q 313 175 313 253 q 344 65 313 102 q 438 29 374 29 q 668 123 584 29 q 797 389 752 218 l 893 755 m 456 1087 q 550 1201 498 1133 q 599 1261 580 1240 q 638 1298 618 1283 q 690 1315 661 1315 q 753 1281 732 1315 q 763 1247 763 1265 q 751 1208 763 1227 q 718 1175 739 1189 q 672 1151 698 1161 q 600 1124 646 1140 q 466 1072 518 1095 l 456 1087 m 749 1087 q 842 1200 791 1133 q 892 1262 874 1241 q 932 1298 911 1283 q 983 1315 954 1315 q 1046 1282 1023 1315 q 1057 1248 1057 1265 q 1045 1209 1057 1228 q 1012 1175 1032 1190 q 965 1150 991 1161 q 893 1124 939 1139 q 760 1072 800 1090 l 749 1087 z "},"Ū":{"ha":964,"x_min":105,"x_max":1088,"o":"m 105 0 m 893 755 q 914 873 914 836 q 891 932 914 914 q 809 956 867 949 l 817 983 q 966 979 868 979 q 1088 983 1042 979 l 1080 956 q 1007 932 1034 949 q 963 879 981 915 q 928 772 946 843 l 833 404 q 696 110 783 212 q 571 15 646 50 q 412 -20 496 -20 q 243 9 311 -20 q 141 90 175 37 q 105 220 105 142 q 134 400 105 291 l 250 836 q 261 903 261 880 q 252 935 261 924 q 223 950 242 945 q 168 956 203 954 l 176 983 q 405 979 247 979 q 621 983 535 979 l 612 956 q 536 945 561 954 q 497 912 511 936 q 469 836 482 888 l 347 376 q 313 175 313 253 q 344 65 313 102 q 438 29 374 29 q 668 123 584 29 q 797 389 752 218 l 893 755 m 397 1137 l 406 1173 l 962 1173 l 953 1137 l 397 1137 z "},"Ų":{"ha":964,"x_min":105,"x_max":1088,"o":"m 966 979 q 1088 983 1042 979 l 1080 956 q 1007 932 1034 949 q 963 879 981 915 q 928 772 946 843 l 833 404 q 696 110 783 212 q 529 -1 630 32 q 433 -66 470 -26 q 396 -150 396 -106 q 442 -192 396 -192 q 492 -183 465 -192 q 544 -161 519 -175 l 559 -185 q 357 -261 462 -261 q 271 -239 302 -261 q 239 -178 239 -217 q 292 -89 239 -129 q 427 -20 344 -49 l 412 -20 q 243 9 311 -20 q 141 90 175 37 q 105 220 105 142 q 134 400 105 291 l 250 836 q 261 903 261 880 q 252 935 261 924 q 223 950 242 945 q 168 956 203 954 l 176 983 q 405 979 247 979 q 621 983 535 979 l 612 956 q 536 945 561 954 q 497 912 511 936 q 469 836 482 888 l 347 376 q 313 175 313 253 q 344 65 313 102 q 438 29 374 29 q 668 123 584 29 q 797 389 752 218 l 893 755 q 914 873 914 836 q 891 932 914 914 q 809 956 867 949 l 817 983 q 966 979 868 979 z "},"Ů":{"ha":964,"x_min":105,"x_max":1088,"o":"m 105 0 m 893 755 q 914 873 914 836 q 891 932 914 914 q 809 956 867 949 l 817 983 q 966 979 868 979 q 1088 983 1042 979 l 1080 956 q 1007 932 1034 949 q 963 879 981 915 q 928 772 946 843 l 833 404 q 696 110 783 212 q 571 15 646 50 q 412 -20 496 -20 q 243 9 311 -20 q 141 90 175 37 q 105 220 105 142 q 134 400 105 291 l 250 836 q 261 903 261 880 q 252 935 261 924 q 223 950 242 945 q 168 956 203 954 l 176 983 q 405 979 247 979 q 621 983 535 979 l 612 956 q 536 945 561 954 q 497 912 511 936 q 469 836 482 888 l 347 376 q 313 175 313 253 q 344 65 313 102 q 438 29 374 29 q 668 123 584 29 q 797 389 752 218 l 893 755 m 722 1301 q 791 1287 760 1301 q 840 1245 823 1272 q 858 1183 858 1218 q 834 1107 858 1142 q 770 1052 810 1072 q 685 1031 730 1031 q 591 1063 628 1031 q 554 1150 554 1095 q 576 1227 554 1192 q 637 1281 599 1261 q 722 1301 676 1301 m 692 1060 q 755 1076 725 1060 q 804 1120 785 1092 q 822 1181 822 1148 q 807 1231 822 1211 q 767 1262 791 1252 q 718 1272 743 1272 q 655 1255 684 1272 q 608 1210 626 1238 q 591 1151 591 1182 q 605 1101 591 1122 q 643 1070 619 1081 q 692 1060 666 1060 z "},"Ũ":{"ha":964,"x_min":105,"x_max":1088,"o":"m 105 0 m 893 755 q 914 873 914 836 q 891 932 914 914 q 809 956 867 949 l 817 983 q 966 979 868 979 q 1088 983 1042 979 l 1080 956 q 1007 932 1034 949 q 963 879 981 915 q 928 772 946 843 l 833 404 q 696 110 783 212 q 571 15 646 50 q 412 -20 496 -20 q 243 9 311 -20 q 141 90 175 37 q 105 220 105 142 q 134 400 105 291 l 250 836 q 261 903 261 880 q 252 935 261 924 q 223 950 242 945 q 168 956 203 954 l 176 983 q 405 979 247 979 q 621 983 535 979 l 612 956 q 536 945 561 954 q 497 912 511 936 q 469 836 482 888 l 347 376 q 313 175 313 253 q 344 65 313 102 q 438 29 374 29 q 668 123 584 29 q 797 389 752 218 l 893 755 m 634 1287 q 696 1279 669 1287 q 742 1260 723 1272 q 787 1231 762 1249 q 843 1197 819 1208 q 898 1186 866 1186 q 954 1205 928 1186 q 1005 1266 980 1223 l 1030 1259 q 931 1114 993 1162 q 800 1066 869 1066 q 738 1074 765 1066 q 691 1093 711 1082 q 646 1122 672 1104 q 591 1157 615 1145 q 536 1168 568 1168 q 480 1149 506 1168 q 429 1087 454 1130 l 404 1094 q 504 1240 441 1192 q 634 1287 566 1287 z "},"V":{"ha":918,"x_min":128,"x_max":1084,"o":"m 979 979 q 1084 983 1040 979 l 1077 956 q 995 912 1031 943 q 911 808 958 882 l 381 -7 q 346 -6 370 -6 q 311 -7 322 -6 l 201 867 q 174 933 195 912 q 128 956 153 954 l 135 983 q 335 979 204 979 q 547 983 474 979 l 540 956 q 474 947 498 954 q 438 922 450 940 q 427 871 427 905 q 429 839 427 857 l 498 222 l 865 784 q 906 887 906 848 q 877 936 906 920 q 791 956 847 952 l 798 983 q 979 979 852 979 z "},"W":{"ha":1364,"x_min":119,"x_max":1515,"o":"m 1410 979 q 1515 983 1472 979 l 1508 956 q 1451 933 1476 947 q 1399 889 1426 919 q 1345 808 1373 860 l 907 -7 l 835 -7 l 749 613 l 374 -7 l 303 -7 l 193 867 q 166 934 187 913 q 119 956 145 954 l 126 983 q 321 979 195 979 q 501 983 439 979 l 494 956 q 452 947 467 954 q 428 923 436 940 q 420 873 420 905 q 422 839 420 851 l 489 236 l 743 654 l 714 867 q 691 934 708 913 q 654 956 675 954 l 661 983 q 842 979 726 979 q 1058 983 986 979 l 1051 956 q 986 947 1009 954 q 951 923 962 940 q 940 875 940 907 q 943 839 940 857 l 1017 258 l 1303 784 q 1337 887 1337 849 q 1309 937 1337 922 q 1221 956 1280 952 l 1228 983 q 1410 979 1283 979 z "},"Ẃ":{"ha":1364,"x_min":119,"x_max":1515,"o":"m 119 0 m 1410 979 q 1515 983 1472 979 l 1508 956 q 1451 933 1476 947 q 1399 889 1426 919 q 1345 808 1373 860 l 907 -7 l 835 -7 l 749 613 l 374 -7 l 303 -7 l 193 867 q 166 934 187 913 q 119 956 145 954 l 126 983 q 321 979 195 979 q 501 983 439 979 l 494 956 q 452 947 467 954 q 428 923 436 940 q 420 873 420 905 q 422 839 420 851 l 489 236 l 743 654 l 714 867 q 691 934 708 913 q 654 956 675 954 l 661 983 q 842 979 726 979 q 1058 983 986 979 l 1051 956 q 986 947 1009 954 q 951 923 962 940 q 940 875 940 907 q 943 839 940 857 l 1017 258 l 1303 784 q 1337 887 1337 849 q 1309 937 1337 922 q 1221 956 1280 952 l 1228 983 q 1410 979 1283 979 m 781 1086 q 927 1214 846 1137 q 994 1275 970 1255 q 1045 1310 1018 1295 q 1105 1326 1074 1326 q 1172 1288 1152 1326 q 1179 1260 1179 1274 q 1161 1216 1179 1237 q 1116 1180 1144 1196 q 1064 1157 1093 1166 q 983 1133 1035 1147 q 791 1069 863 1097 l 781 1086 z "},"Ŵ":{"ha":1364,"x_min":119,"x_max":1515,"o":"m 119 0 m 1410 979 q 1515 983 1472 979 l 1508 956 q 1451 933 1476 947 q 1399 889 1426 919 q 1345 808 1373 860 l 907 -7 l 835 -7 l 749 613 l 374 -7 l 303 -7 l 193 867 q 166 934 187 913 q 119 956 145 954 l 126 983 q 321 979 195 979 q 501 983 439 979 l 494 956 q 452 947 467 954 q 428 923 436 940 q 420 873 420 905 q 422 839 420 851 l 489 236 l 743 654 l 714 867 q 691 934 708 913 q 654 956 675 954 l 661 983 q 842 979 726 979 q 1058 983 986 979 l 1051 956 q 986 947 1009 954 q 951 923 962 940 q 940 875 940 907 q 943 839 940 857 l 1017 258 l 1303 784 q 1337 887 1337 849 q 1309 937 1337 922 q 1221 956 1280 952 l 1228 983 q 1410 979 1283 979 m 878 1151 q 576 1068 732 1097 l 569 1087 q 784 1181 684 1123 q 945 1303 884 1239 l 970 1303 q 1045 1175 1002 1225 q 1163 1087 1089 1124 l 1158 1068 q 1005 1103 1066 1084 q 878 1151 945 1122 z "},"Ẅ":{"ha":1364,"x_min":119,"x_max":1515,"o":"m 119 0 m 1410 979 q 1515 983 1472 979 l 1508 956 q 1451 933 1476 947 q 1399 889 1426 919 q 1345 808 1373 860 l 907 -7 l 835 -7 l 749 613 l 374 -7 l 303 -7 l 193 867 q 166 934 187 913 q 119 956 145 954 l 126 983 q 321 979 195 979 q 501 983 439 979 l 494 956 q 452 947 467 954 q 428 923 436 940 q 420 873 420 905 q 422 839 420 851 l 489 236 l 743 654 l 714 867 q 691 934 708 913 q 654 956 675 954 l 661 983 q 842 979 726 979 q 1058 983 986 979 l 1051 956 q 986 947 1009 954 q 951 923 962 940 q 940 875 940 907 q 943 839 940 857 l 1017 258 l 1303 784 q 1337 887 1337 849 q 1309 937 1337 922 q 1221 956 1280 952 l 1228 983 q 1410 979 1283 979 m 608 1153 q 625 1216 608 1189 q 669 1257 642 1242 q 728 1271 696 1271 q 795 1245 772 1271 q 819 1178 819 1219 q 802 1115 819 1141 q 757 1075 785 1088 q 698 1061 729 1061 q 631 1086 654 1061 q 608 1153 608 1111 m 941 1153 q 958 1216 941 1189 q 1002 1257 975 1242 q 1061 1271 1029 1271 q 1128 1245 1105 1271 q 1152 1178 1152 1219 q 1135 1115 1152 1141 q 1090 1075 1118 1088 q 1031 1061 1062 1061 q 964 1086 987 1061 q 941 1153 941 1111 z "},"Ẁ":{"ha":1364,"x_min":119,"x_max":1515,"o":"m 119 0 m 1410 979 q 1515 983 1472 979 l 1508 956 q 1451 933 1476 947 q 1399 889 1426 919 q 1345 808 1373 860 l 907 -7 l 835 -7 l 749 613 l 374 -7 l 303 -7 l 193 867 q 166 934 187 913 q 119 956 145 954 l 126 983 q 321 979 195 979 q 501 983 439 979 l 494 956 q 452 947 467 954 q 428 923 436 940 q 420 873 420 905 q 422 839 420 851 l 489 236 l 743 654 l 714 867 q 691 934 708 913 q 654 956 675 954 l 661 983 q 842 979 726 979 q 1058 983 986 979 l 1051 956 q 986 947 1009 954 q 951 923 962 940 q 940 875 940 907 q 943 839 940 857 l 1017 258 l 1303 784 q 1337 887 1337 849 q 1309 937 1337 922 q 1221 956 1280 952 l 1228 983 q 1410 979 1283 979 m 932 1068 q 769 1133 857 1103 q 668 1177 698 1157 q 636 1208 648 1190 q 625 1249 625 1227 q 634 1282 625 1265 q 698 1316 654 1316 q 749 1300 728 1316 q 784 1271 768 1288 q 825 1221 800 1254 q 944 1084 888 1139 l 932 1068 z "},"X":{"ha":1029,"x_min":-56,"x_max":1118,"o":"m 995 1003 q 1085 968 1053 1003 q 1118 878 1118 932 q 1102 809 1118 840 q 1058 759 1086 777 q 994 741 1030 741 q 928 766 952 741 q 905 831 905 791 q 933 916 905 878 q 1009 970 962 954 q 986 977 1001 977 q 895 945 941 977 q 775 805 842 903 q 645 568 709 707 l 692 174 q 771 79 704 79 q 827 99 804 79 q 865 165 849 119 l 888 236 l 916 236 l 880 129 q 804 16 852 51 q 687 -20 757 -20 q 568 7 613 -20 q 502 82 524 35 q 472 197 481 130 l 452 358 q 330 166 399 256 q 197 28 260 77 q 67 -20 133 -20 q -23 16 9 -20 q -56 105 -56 51 q -40 175 -56 143 q 4 224 -24 206 q 68 242 32 242 q 134 217 111 242 q 157 151 157 192 q 129 66 157 104 q 53 13 100 28 q 77 6 61 6 q 168 39 120 7 q 303 175 228 80 q 447 403 378 270 l 397 814 q 319 911 386 911 q 264 888 287 911 q 224 818 241 866 l 201 747 l 173 747 l 209 854 q 288 968 237 932 q 413 1003 338 1003 q 559 947 513 1003 q 619 786 606 892 l 640 613 q 751 813 690 720 q 868 954 813 905 q 995 1003 931 1003 z "},"Y":{"ha":1019,"x_min":115,"x_max":1132,"o":"m 1003 1003 q 1072 987 1043 1003 q 1117 943 1101 970 q 1132 882 1132 916 q 1116 819 1132 848 q 1070 774 1099 791 q 1006 758 1042 758 q 935 781 960 758 q 910 842 910 804 q 940 922 910 887 q 1015 970 969 957 q 992 977 1006 977 q 908 945 951 977 q 819 851 869 916 q 717 684 770 785 q 621 452 665 582 l 544 147 q 535 91 535 110 q 546 53 535 66 q 580 35 557 40 q 642 28 602 30 l 635 0 q 397 4 558 4 q 173 0 246 4 l 180 28 q 256 39 231 30 q 296 72 281 47 q 323 147 311 96 l 399 446 q 338 768 378 635 q 239 901 299 901 q 200 883 216 901 q 175 836 185 866 l 145 747 l 115 747 l 151 854 q 225 968 176 933 q 346 1003 275 1003 q 489 947 437 1003 q 566 787 541 890 q 611 507 591 684 q 715 741 657 637 q 838 917 774 846 q 1003 1003 918 1003 z "},"Ý":{"ha":1019,"x_min":115,"x_max":1132,"o":"m 115 0 m 1003 1003 q 1072 987 1043 1003 q 1117 943 1101 970 q 1132 882 1132 916 q 1116 819 1132 848 q 1070 774 1099 791 q 1006 758 1042 758 q 935 781 960 758 q 910 842 910 804 q 940 922 910 887 q 1015 970 969 957 q 992 977 1006 977 q 908 945 951 977 q 819 851 869 916 q 717 684 770 785 q 621 452 665 582 l 544 147 q 535 91 535 110 q 546 53 535 66 q 580 35 557 40 q 642 28 602 30 l 635 0 q 397 4 558 4 q 173 0 246 4 l 180 28 q 256 39 231 30 q 296 72 281 47 q 323 147 311 96 l 399 446 q 338 768 378 635 q 239 901 299 901 q 200 883 216 901 q 175 836 185 866 l 145 747 l 115 747 l 151 854 q 225 968 176 933 q 346 1003 275 1003 q 489 947 437 1003 q 566 787 541 890 q 611 507 591 684 q 715 741 657 637 q 838 917 774 846 q 1003 1003 918 1003 m 580 1088 q 726 1217 645 1140 q 793 1277 769 1257 q 844 1312 817 1297 q 903 1329 873 1329 q 970 1291 951 1329 q 977 1263 977 1277 q 960 1219 977 1240 q 915 1183 943 1198 q 862 1160 891 1169 q 782 1135 833 1150 q 589 1072 661 1100 l 580 1088 z "},"Ŷ":{"ha":1019,"x_min":115,"x_max":1132,"o":"m 115 0 m 1003 1003 q 1072 987 1043 1003 q 1117 943 1101 970 q 1132 882 1132 916 q 1116 819 1132 848 q 1070 774 1099 791 q 1006 758 1042 758 q 935 781 960 758 q 910 842 910 804 q 940 922 910 887 q 1015 970 969 957 q 992 977 1006 977 q 908 945 951 977 q 819 851 869 916 q 717 684 770 785 q 621 452 665 582 l 544 147 q 535 91 535 110 q 546 53 535 66 q 580 35 557 40 q 642 28 602 30 l 635 0 q 397 4 558 4 q 173 0 246 4 l 180 28 q 256 39 231 30 q 296 72 281 47 q 323 147 311 96 l 399 446 q 338 768 378 635 q 239 901 299 901 q 200 883 216 901 q 175 836 185 866 l 145 747 l 115 747 l 151 854 q 225 968 176 933 q 346 1003 275 1003 q 489 947 437 1003 q 566 787 541 890 q 611 507 591 684 q 715 741 657 637 q 838 917 774 846 q 1003 1003 918 1003 m 676 1154 q 374 1071 531 1099 l 368 1090 q 583 1184 482 1126 q 744 1305 683 1242 l 769 1305 q 844 1177 800 1228 q 962 1090 888 1126 l 956 1071 q 804 1105 865 1086 q 676 1154 743 1124 z "},"Ÿ":{"ha":1019,"x_min":115,"x_max":1132,"o":"m 115 0 m 1003 1003 q 1072 987 1043 1003 q 1117 943 1101 970 q 1132 882 1132 916 q 1116 819 1132 848 q 1070 774 1099 791 q 1006 758 1042 758 q 935 781 960 758 q 910 842 910 804 q 940 922 910 887 q 1015 970 969 957 q 992 977 1006 977 q 908 945 951 977 q 819 851 869 916 q 717 684 770 785 q 621 452 665 582 l 544 147 q 535 91 535 110 q 546 53 535 66 q 580 35 557 40 q 642 28 602 30 l 635 0 q 397 4 558 4 q 173 0 246 4 l 180 28 q 256 39 231 30 q 296 72 281 47 q 323 147 311 96 l 399 446 q 338 768 378 635 q 239 901 299 901 q 200 883 216 901 q 175 836 185 866 l 145 747 l 115 747 l 151 854 q 225 968 176 933 q 346 1003 275 1003 q 489 947 437 1003 q 566 787 541 890 q 611 507 591 684 q 715 741 657 637 q 838 917 774 846 q 1003 1003 918 1003 m 407 1156 q 424 1218 407 1192 q 468 1259 440 1245 q 527 1274 495 1274 q 594 1248 570 1274 q 617 1181 617 1222 q 600 1118 617 1144 q 555 1078 583 1091 q 496 1064 528 1064 q 430 1089 452 1064 q 407 1156 407 1114 m 740 1156 q 756 1218 740 1192 q 801 1259 773 1245 q 860 1274 828 1274 q 927 1248 903 1274 q 950 1181 950 1222 q 933 1118 950 1144 q 888 1078 916 1091 q 829 1064 861 1064 q 763 1089 785 1064 q 740 1156 740 1114 z "},"Ỳ":{"ha":1019,"x_min":115,"x_max":1132,"o":"m 115 0 m 1003 1003 q 1072 987 1043 1003 q 1117 943 1101 970 q 1132 882 1132 916 q 1116 819 1132 848 q 1070 774 1099 791 q 1006 758 1042 758 q 935 781 960 758 q 910 842 910 804 q 940 922 910 887 q 1015 970 969 957 q 992 977 1006 977 q 908 945 951 977 q 819 851 869 916 q 717 684 770 785 q 621 452 665 582 l 544 147 q 535 91 535 110 q 546 53 535 66 q 580 35 557 40 q 642 28 602 30 l 635 0 q 397 4 558 4 q 173 0 246 4 l 180 28 q 256 39 231 30 q 296 72 281 47 q 323 147 311 96 l 399 446 q 338 768 378 635 q 239 901 299 901 q 200 883 216 901 q 175 836 185 866 l 145 747 l 115 747 l 151 854 q 225 968 176 933 q 346 1003 275 1003 q 489 947 437 1003 q 566 787 541 890 q 611 507 591 684 q 715 741 657 637 q 838 917 774 846 q 1003 1003 918 1003 m 731 1071 q 568 1136 656 1105 q 467 1180 496 1160 q 435 1211 447 1192 q 423 1251 423 1230 q 433 1284 423 1267 q 496 1318 453 1318 q 548 1303 526 1318 q 583 1274 567 1291 q 623 1223 598 1257 q 743 1086 686 1141 l 731 1071 z "},"Z":{"ha":914,"x_min":-44,"x_max":1002,"o":"m 994 990 q 1002 972 1002 983 q 977 929 1002 953 q 899 886 951 906 l 514 509 l 725 509 l 714 481 l 486 481 l 93 94 q 376 220 239 220 q 463 211 425 220 q 549 184 500 201 q 611 165 585 172 q 664 158 637 158 q 726 214 726 158 q 625 294 726 273 l 631 321 q 759 270 707 309 q 811 160 811 231 q 786 67 811 109 q 716 3 762 26 q 610 -20 671 -20 q 515 -4 556 -20 q 419 43 473 12 q 357 76 382 64 q 301 96 332 87 q 233 104 269 104 q 164 95 196 104 q 86 66 132 86 q 33 8 62 31 q -16 -14 5 -14 q -36 -7 -27 -14 q -44 12 -44 0 q -18 54 -44 31 q 60 97 7 77 l 450 481 l 225 481 l 235 509 l 478 509 l 865 889 q 583 764 720 764 q 496 773 534 764 q 410 799 458 782 q 348 819 374 812 q 295 825 322 825 q 250 811 266 825 q 233 769 233 797 q 334 690 233 710 l 328 663 q 199 714 251 675 q 147 823 147 753 q 172 916 147 875 q 242 980 197 957 q 349 1003 288 1003 q 444 987 402 1003 q 539 941 485 972 q 601 908 576 920 q 657 887 626 896 q 725 879 689 879 q 794 888 762 879 q 872 917 826 897 q 925 975 897 953 q 974 998 953 998 q 994 990 985 998 z "},"Ź":{"ha":914,"x_min":-44,"x_max":1002,"o":"m 0 0 m 994 990 q 1002 972 1002 983 q 977 929 1002 953 q 899 886 951 906 l 514 509 l 725 509 l 714 481 l 486 481 l 93 94 q 376 220 239 220 q 463 211 425 220 q 549 184 500 201 q 611 165 585 172 q 664 158 637 158 q 726 214 726 158 q 625 294 726 273 l 631 321 q 759 270 707 309 q 811 160 811 231 q 786 67 811 109 q 716 3 762 26 q 610 -20 671 -20 q 515 -4 556 -20 q 419 43 473 12 q 357 76 382 64 q 301 96 332 87 q 233 104 269 104 q 164 95 196 104 q 86 66 132 86 q 33 8 62 31 q -16 -14 5 -14 q -36 -7 -27 -14 q -44 12 -44 0 q -18 54 -44 31 q 60 97 7 77 l 450 481 l 225 481 l 235 509 l 478 509 l 865 889 q 583 764 720 764 q 496 773 534 764 q 410 799 458 782 q 348 819 374 812 q 295 825 322 825 q 250 811 266 825 q 233 769 233 797 q 334 690 233 710 l 328 663 q 199 714 251 675 q 147 823 147 753 q 172 916 147 875 q 242 980 197 957 q 349 1003 288 1003 q 444 987 402 1003 q 539 941 485 972 q 601 908 576 920 q 657 887 626 896 q 725 879 689 879 q 794 888 762 879 q 872 917 826 897 q 925 975 897 953 q 974 998 953 998 q 994 990 985 998 m 519 1088 q 665 1217 584 1140 q 732 1277 708 1257 q 783 1312 755 1297 q 842 1329 812 1329 q 909 1291 890 1329 q 916 1263 916 1277 q 899 1219 916 1240 q 854 1183 882 1198 q 801 1160 830 1169 q 721 1135 772 1150 q 528 1072 600 1100 l 519 1088 z "},"Ž":{"ha":914,"x_min":-44,"x_max":1002,"o":"m 0 0 m 994 990 q 1002 972 1002 983 q 977 929 1002 953 q 899 886 951 906 l 514 509 l 725 509 l 714 481 l 486 481 l 93 94 q 376 220 239 220 q 463 211 425 220 q 549 184 500 201 q 611 165 585 172 q 664 158 637 158 q 726 214 726 158 q 625 294 726 273 l 631 321 q 759 270 707 309 q 811 160 811 231 q 786 67 811 109 q 716 3 762 26 q 610 -20 671 -20 q 515 -4 556 -20 q 419 43 473 12 q 357 76 382 64 q 301 96 332 87 q 233 104 269 104 q 164 95 196 104 q 86 66 132 86 q 33 8 62 31 q -16 -14 5 -14 q -36 -7 -27 -14 q -44 12 -44 0 q -18 54 -44 31 q 60 97 7 77 l 450 481 l 225 481 l 235 509 l 478 509 l 865 889 q 583 764 720 764 q 496 773 534 764 q 410 799 458 782 q 348 819 374 812 q 295 825 322 825 q 250 811 266 825 q 233 769 233 797 q 334 690 233 710 l 328 663 q 199 714 251 675 q 147 823 147 753 q 172 916 147 875 q 242 980 197 957 q 349 1003 288 1003 q 444 987 402 1003 q 539 941 485 972 q 601 908 576 920 q 657 887 626 896 q 725 879 689 879 q 794 888 762 879 q 872 917 826 897 q 925 975 897 953 q 974 998 953 998 q 994 990 985 998 m 692 1219 q 994 1301 838 1273 l 1001 1282 q 786 1188 886 1246 q 625 1067 686 1131 l 600 1067 q 524 1195 568 1144 q 406 1282 480 1246 l 412 1301 q 564 1267 503 1286 q 692 1219 624 1249 z "},"Ż":{"ha":914,"x_min":-44,"x_max":1002,"o":"m 0 0 m 994 990 q 1002 972 1002 983 q 977 929 1002 953 q 899 886 951 906 l 514 509 l 725 509 l 714 481 l 486 481 l 93 94 q 376 220 239 220 q 463 211 425 220 q 549 184 500 201 q 611 165 585 172 q 664 158 637 158 q 726 214 726 158 q 625 294 726 273 l 631 321 q 759 270 707 309 q 811 160 811 231 q 786 67 811 109 q 716 3 762 26 q 610 -20 671 -20 q 515 -4 556 -20 q 419 43 473 12 q 357 76 382 64 q 301 96 332 87 q 233 104 269 104 q 164 95 196 104 q 86 66 132 86 q 33 8 62 31 q -16 -14 5 -14 q -36 -7 -27 -14 q -44 12 -44 0 q -18 54 -44 31 q 60 97 7 77 l 450 481 l 225 481 l 235 509 l 478 509 l 865 889 q 583 764 720 764 q 496 773 534 764 q 410 799 458 782 q 348 819 374 812 q 295 825 322 825 q 250 811 266 825 q 233 769 233 797 q 334 690 233 710 l 328 663 q 199 714 251 675 q 147 823 147 753 q 172 916 147 875 q 242 980 197 957 q 349 1003 288 1003 q 444 987 402 1003 q 539 941 485 972 q 601 908 576 920 q 657 887 626 896 q 725 879 689 879 q 794 888 762 879 q 872 917 826 897 q 925 975 897 953 q 974 998 953 998 q 994 990 985 998 m 513 1147 q 531 1215 513 1185 q 582 1261 549 1245 q 655 1277 614 1277 q 731 1254 704 1277 q 758 1191 758 1232 q 739 1125 758 1155 q 687 1079 720 1096 q 614 1062 654 1062 q 539 1084 566 1062 q 513 1147 513 1107 z "},"a":{"ha":776,"x_min":-1,"x_max":739,"o":"m 713 226 l 679 124 q 602 13 651 45 q 496 -20 553 -20 q 393 24 423 -20 q 374 94 374 52 q 387 178 374 127 q 282 27 340 73 q 155 -20 224 -20 q 38 25 77 -20 q -1 152 -1 71 q 65 413 -1 275 q 233 644 132 551 q 431 737 334 737 q 491 715 468 737 q 518 648 514 692 l 538 718 q 739 737 652 720 l 557 119 q 551 79 551 94 q 576 49 551 49 q 663 158 624 49 l 687 226 l 713 226 m 503 592 q 504 614 504 607 q 492 667 504 648 q 457 686 479 686 q 350 601 410 686 q 247 388 290 516 q 205 142 205 260 q 214 75 205 95 q 243 55 223 55 q 310 97 273 55 q 384 220 347 140 q 449 410 420 300 l 442 375 l 503 592 z "},"á":{"ha":776,"x_min":-1,"x_max":772,"o":"m 0 0 m 713 226 l 679 124 q 602 13 651 45 q 496 -20 553 -20 q 393 24 423 -20 q 374 94 374 52 q 387 178 374 127 q 282 27 340 73 q 155 -20 224 -20 q 38 25 77 -20 q -1 152 -1 71 q 65 413 -1 275 q 233 644 132 551 q 431 737 334 737 q 491 715 468 737 q 518 648 514 692 l 538 718 q 739 737 652 720 l 557 119 q 551 79 551 94 q 576 49 551 49 q 663 158 624 49 l 687 226 l 713 226 m 503 592 q 504 614 504 607 q 492 667 504 648 q 457 686 479 686 q 350 601 410 686 q 247 388 290 516 q 205 142 205 260 q 214 75 205 95 q 243 55 223 55 q 310 97 273 55 q 384 220 347 140 q 449 410 420 300 l 442 375 l 503 592 m 437 845 q 541 1009 475 899 q 588 1085 570 1059 q 627 1133 605 1112 q 663 1160 642 1150 q 703 1169 683 1169 q 753 1149 732 1169 q 772 1107 772 1131 q 732 1031 772 1069 q 688 994 712 1011 q 616 946 664 977 q 451 832 518 884 l 437 845 z "},"ă":{"ha":776,"x_min":-1,"x_max":842,"o":"m 0 0 m 713 226 l 679 124 q 602 13 651 45 q 496 -20 553 -20 q 393 24 423 -20 q 374 94 374 52 q 387 178 374 127 q 282 27 340 73 q 155 -20 224 -20 q 38 25 77 -20 q -1 152 -1 71 q 65 413 -1 275 q 233 644 132 551 q 431 737 334 737 q 491 715 468 737 q 518 648 514 692 l 538 718 q 739 737 652 720 l 557 119 q 551 79 551 94 q 576 49 551 49 q 663 158 624 49 l 687 226 l 713 226 m 503 592 q 504 614 504 607 q 492 667 504 648 q 457 686 479 686 q 350 601 410 686 q 247 388 290 516 q 205 142 205 260 q 214 75 205 95 q 243 55 223 55 q 310 97 273 55 q 384 220 347 140 q 449 410 420 300 l 442 375 l 503 592 m 544 999 q 693 1023 619 999 q 826 1095 766 1048 l 842 1081 q 755 975 808 1025 q 638 894 701 925 q 515 863 574 863 q 398 923 441 863 q 342 1080 355 983 l 363 1089 q 436 1019 396 1040 q 544 999 475 999 z "},"â":{"ha":776,"x_min":-1,"x_max":765,"o":"m 0 0 m 713 226 l 679 124 q 602 13 651 45 q 496 -20 553 -20 q 393 24 423 -20 q 374 94 374 52 q 387 178 374 127 q 282 27 340 73 q 155 -20 224 -20 q 38 25 77 -20 q -1 152 -1 71 q 65 413 -1 275 q 233 644 132 551 q 431 737 334 737 q 491 715 468 737 q 518 648 514 692 l 538 718 q 739 737 652 720 l 557 119 q 551 79 551 94 q 576 49 551 49 q 663 158 624 49 l 687 226 l 713 226 m 503 592 q 504 614 504 607 q 492 667 504 648 q 457 686 479 686 q 350 601 410 686 q 247 388 290 516 q 205 142 205 260 q 214 75 205 95 q 243 55 223 55 q 310 97 273 55 q 384 220 347 140 q 449 410 420 300 l 442 375 l 503 592 m 501 950 q 250 847 382 885 l 243 867 q 431 983 343 910 q 574 1139 519 1057 l 600 1139 q 656 978 618 1041 q 765 867 694 914 l 760 847 q 614 890 673 866 q 501 950 555 915 z "},"ä":{"ha":776,"x_min":-1,"x_max":811,"o":"m 0 0 m 713 226 l 679 124 q 602 13 651 45 q 496 -20 553 -20 q 393 24 423 -20 q 374 94 374 52 q 387 178 374 127 q 282 27 340 73 q 155 -20 224 -20 q 38 25 77 -20 q -1 152 -1 71 q 65 413 -1 275 q 233 644 132 551 q 431 737 334 737 q 491 715 468 737 q 518 648 514 692 l 538 718 q 739 737 652 720 l 557 119 q 551 79 551 94 q 576 49 551 49 q 663 158 624 49 l 687 226 l 713 226 m 503 592 q 504 614 504 607 q 492 667 504 648 q 457 686 479 686 q 350 601 410 686 q 247 388 290 516 q 205 142 205 260 q 214 75 205 95 q 243 55 223 55 q 310 97 273 55 q 384 220 347 140 q 449 410 420 300 l 442 375 l 503 592 m 285 939 q 301 1001 285 975 q 346 1042 318 1028 q 405 1056 373 1056 q 472 1030 448 1056 q 495 963 495 1005 q 478 901 495 927 q 433 860 461 874 q 374 846 406 846 q 308 871 330 846 q 285 939 285 897 m 601 939 q 617 1001 601 975 q 662 1042 634 1028 q 721 1056 689 1056 q 788 1030 764 1056 q 811 963 811 1005 q 794 901 811 927 q 749 860 777 874 q 690 846 722 846 q 624 871 646 846 q 601 939 601 897 z "},"à":{"ha":776,"x_min":-1,"x_max":739,"o":"m 0 0 m 713 226 l 679 124 q 602 13 651 45 q 496 -20 553 -20 q 393 24 423 -20 q 374 94 374 52 q 387 178 374 127 q 282 27 340 73 q 155 -20 224 -20 q 38 25 77 -20 q -1 152 -1 71 q 65 413 -1 275 q 233 644 132 551 q 431 737 334 737 q 491 715 468 737 q 518 648 514 692 l 538 718 q 739 737 652 720 l 557 119 q 551 79 551 94 q 576 49 551 49 q 663 158 624 49 l 687 226 l 713 226 m 503 592 q 504 614 504 607 q 492 667 504 648 q 457 686 479 686 q 350 601 410 686 q 247 388 290 516 q 205 142 205 260 q 214 75 205 95 q 243 55 223 55 q 310 97 273 55 q 384 220 347 140 q 449 410 420 300 l 442 375 l 503 592 m 519 832 q 387 976 461 903 q 339 1026 355 1008 q 311 1064 323 1044 q 296 1113 296 1088 q 328 1173 296 1154 q 366 1182 345 1182 q 408 1170 387 1182 q 441 1137 428 1158 q 463 1090 454 1116 q 480 1024 471 1065 q 506 929 495 966 q 536 841 516 892 l 519 832 z "},"ā":{"ha":776,"x_min":-1,"x_max":783,"o":"m 0 0 m 713 226 l 679 124 q 602 13 651 45 q 496 -20 553 -20 q 393 24 423 -20 q 374 94 374 52 q 387 178 374 127 q 282 27 340 73 q 155 -20 224 -20 q 38 25 77 -20 q -1 152 -1 71 q 65 413 -1 275 q 233 644 132 551 q 431 737 334 737 q 491 715 468 737 q 518 648 514 692 l 538 718 q 739 737 652 720 l 557 119 q 551 79 551 94 q 576 49 551 49 q 663 158 624 49 l 687 226 l 713 226 m 503 592 q 504 614 504 607 q 492 667 504 648 q 457 686 479 686 q 350 601 410 686 q 247 388 290 516 q 205 142 205 260 q 214 75 205 95 q 243 55 223 55 q 310 97 273 55 q 384 220 347 140 q 449 410 420 300 l 442 375 l 503 592 m 308 954 l 316 989 l 783 989 l 774 954 l 308 954 z "},"ą":{"ha":776,"x_min":-1,"x_max":739,"o":"m 713 226 l 679 124 q 549 -13 640 13 q 471 -75 500 -38 q 441 -151 441 -112 q 481 -192 441 -192 q 526 -180 503 -192 q 568 -150 550 -168 l 587 -167 q 400 -261 509 -261 q 315 -239 347 -261 q 284 -178 284 -216 q 337 -88 284 -128 q 474 -18 389 -48 q 393 24 418 -12 q 374 94 374 52 q 387 178 374 127 q 282 27 340 73 q 155 -20 224 -20 q 38 25 77 -20 q -1 152 -1 71 q 65 413 -1 275 q 233 644 132 551 q 431 737 334 737 q 491 715 468 737 q 518 648 514 692 l 538 718 q 739 737 652 720 l 557 119 q 551 79 551 94 q 576 49 551 49 q 663 158 624 49 l 687 226 l 713 226 m 243 55 q 310 97 273 55 q 384 220 347 140 q 449 410 420 300 l 442 375 l 503 592 q 504 614 504 607 q 492 667 504 648 q 457 686 479 686 q 350 601 410 686 q 247 388 290 516 q 205 142 205 260 q 214 75 205 95 q 243 55 223 55 z "},"å":{"ha":776,"x_min":-1,"x_max":739,"o":"m 0 0 m 713 226 l 679 124 q 602 13 651 45 q 496 -20 553 -20 q 393 24 423 -20 q 374 94 374 52 q 387 178 374 127 q 282 27 340 73 q 155 -20 224 -20 q 38 25 77 -20 q -1 152 -1 71 q 65 413 -1 275 q 233 644 132 551 q 431 737 334 737 q 491 715 468 737 q 518 648 514 692 l 538 718 q 739 737 652 720 l 557 119 q 551 79 551 94 q 576 49 551 49 q 663 158 624 49 l 687 226 l 713 226 m 503 592 q 504 614 504 607 q 492 667 504 648 q 457 686 479 686 q 350 601 410 686 q 247 388 290 516 q 205 142 205 260 q 214 75 205 95 q 243 55 223 55 q 310 97 273 55 q 384 220 347 140 q 449 410 420 300 l 442 375 l 503 592 m 572 1107 q 641 1092 610 1107 q 690 1050 672 1078 q 708 988 708 1023 q 684 912 708 947 q 620 857 660 878 q 534 836 580 836 q 467 851 497 836 q 420 892 437 865 q 404 956 404 919 q 426 1032 404 998 q 487 1087 448 1067 q 572 1107 526 1107 m 541 865 q 605 882 574 865 q 653 926 635 898 q 671 987 671 954 q 656 1037 671 1017 q 617 1067 641 1057 q 567 1078 593 1078 q 505 1061 534 1078 q 458 1016 475 1044 q 440 956 440 987 q 454 907 440 928 q 492 876 469 886 q 541 865 515 865 z "},"ã":{"ha":776,"x_min":-1,"x_max":817,"o":"m 0 0 m 713 226 l 679 124 q 602 13 651 45 q 496 -20 553 -20 q 393 24 423 -20 q 374 94 374 52 q 387 178 374 127 q 282 27 340 73 q 155 -20 224 -20 q 38 25 77 -20 q -1 152 -1 71 q 65 413 -1 275 q 233 644 132 551 q 431 737 334 737 q 491 715 468 737 q 518 648 514 692 l 538 718 q 739 737 652 720 l 557 119 q 551 79 551 94 q 576 49 551 49 q 663 158 624 49 l 687 226 l 713 226 m 503 592 q 504 614 504 607 q 492 667 504 648 q 457 686 479 686 q 350 601 410 686 q 247 388 290 516 q 205 142 205 260 q 214 75 205 95 q 243 55 223 55 q 310 97 273 55 q 384 220 347 140 q 449 410 420 300 l 442 375 l 503 592 m 482 1092 q 549 1077 522 1092 q 606 1035 575 1063 q 649 1001 631 1013 q 693 990 668 990 q 745 1009 721 990 q 792 1071 769 1028 l 817 1064 q 724 919 782 966 q 604 871 667 871 q 537 885 564 871 q 480 928 511 900 q 436 961 455 950 q 393 972 418 972 q 341 954 365 972 q 294 892 317 935 l 269 899 q 361 1044 304 996 q 482 1092 418 1092 z "},"æ":{"ha":1020,"x_min":-8,"x_max":1019,"o":"m 1019 622 q 954 478 1019 544 q 792 367 889 413 q 589 293 694 321 q 581 198 581 245 q 608 94 581 125 q 688 64 635 64 q 784 91 730 64 q 888 178 837 119 l 912 167 q 833 75 881 117 q 723 6 785 33 q 590 -20 661 -20 q 459 13 514 -20 q 383 106 404 45 q 278 13 338 45 q 151 -20 218 -20 q 32 24 71 -20 q -8 146 -8 67 q 75 403 -8 269 q 286 626 158 537 q 540 715 414 715 q 640 667 611 715 q 863 737 746 737 q 976 708 932 737 q 1019 622 1019 679 m 832 711 q 743 654 792 711 q 653 506 694 597 q 593 318 612 415 q 745 401 699 361 q 834 519 802 451 q 865 665 865 587 q 832 711 865 711 m 372 176 q 403 349 372 259 q 490 519 434 439 q 620 653 547 599 q 564 680 600 680 q 403 602 490 680 q 257 399 316 524 q 197 144 197 275 q 215 78 197 101 q 262 55 233 55 q 377 130 324 55 q 372 176 372 149 z "},"b":{"ha":759,"x_min":-33,"x_max":719,"o":"m 547 737 q 675 683 631 737 q 719 524 719 628 q 666 282 719 410 q 514 67 612 155 q 287 -20 416 -20 q 217 -4 248 -20 q 170 39 185 12 q -12 -22 98 33 l -33 -12 q -4 69 -15 24 l 247 926 q 253 964 253 947 q 232 1005 253 992 q 159 1018 210 1018 l 168 1047 q 340 1062 263 1048 q 489 1104 416 1076 l 326 538 q 430 690 376 642 q 547 737 483 737 m 249 21 q 376 110 314 21 q 477 329 438 199 q 516 568 516 458 q 505 642 516 619 q 470 664 493 664 q 382 595 431 664 q 291 416 334 526 l 186 52 q 249 21 210 21 z "},"c":{"ha":644,"x_min":12,"x_max":654,"o":"m 498 710 q 365 635 429 710 q 259 441 300 561 q 219 194 219 321 q 247 90 219 123 q 325 56 275 56 q 508 178 425 56 l 536 167 q 409 34 486 87 q 233 -20 332 -20 q 72 35 132 -20 q 12 194 12 89 q 71 440 12 313 q 239 652 131 568 q 486 737 348 737 q 573 720 535 737 q 633 672 612 703 q 654 604 654 642 q 635 531 654 566 q 586 473 617 495 q 517 450 554 450 q 460 472 482 450 q 437 530 437 494 q 455 598 437 567 q 501 652 472 630 q 564 682 530 673 q 498 710 541 710 z "},"ć":{"ha":644,"x_min":12,"x_max":728,"o":"m 12 0 m 498 710 q 365 635 429 710 q 259 441 300 561 q 219 194 219 321 q 247 90 219 123 q 325 56 275 56 q 508 178 425 56 l 536 167 q 409 34 486 87 q 233 -20 332 -20 q 72 35 132 -20 q 12 194 12 89 q 71 440 12 313 q 239 652 131 568 q 486 737 348 737 q 573 720 535 737 q 633 672 612 703 q 654 604 654 642 q 635 531 654 566 q 586 473 617 495 q 517 450 554 450 q 460 472 482 450 q 437 530 437 494 q 455 598 437 567 q 501 652 472 630 q 564 682 530 673 q 498 710 541 710 m 393 844 q 498 1008 431 897 q 544 1084 527 1058 q 583 1132 562 1110 q 619 1158 599 1149 q 659 1168 640 1168 q 710 1148 688 1168 q 728 1105 728 1130 q 688 1029 728 1068 q 645 992 669 1010 q 572 945 621 975 q 408 831 475 883 l 393 844 z "},"č":{"ha":644,"x_min":12,"x_max":810,"o":"m 12 0 m 498 710 q 365 635 429 710 q 259 441 300 561 q 219 194 219 321 q 247 90 219 123 q 325 56 275 56 q 508 178 425 56 l 536 167 q 409 34 486 87 q 233 -20 332 -20 q 72 35 132 -20 q 12 194 12 89 q 71 440 12 313 q 239 652 131 568 q 486 737 348 737 q 573 720 535 737 q 633 672 612 703 q 654 604 654 642 q 635 531 654 566 q 586 473 617 495 q 517 450 554 450 q 460 472 482 450 q 437 530 437 494 q 455 598 437 567 q 501 652 472 630 q 564 682 530 673 q 498 710 541 710 m 552 1035 q 804 1137 671 1101 l 810 1118 q 622 1001 710 1075 q 479 846 534 928 l 454 846 q 397 1007 435 944 q 288 1118 359 1071 l 294 1137 q 439 1095 380 1119 q 552 1035 498 1070 z "},"ç":{"ha":644,"x_min":-3,"x_max":654,"o":"m 437 530 q 455 598 437 567 q 501 652 472 630 q 564 682 530 673 q 498 710 541 710 q 365 635 429 710 q 259 441 300 561 q 219 194 219 321 q 247 90 219 123 q 325 56 275 56 q 508 178 425 56 l 536 167 q 412 35 487 88 q 239 -20 336 -18 l 191 -96 q 265 -82 233 -82 q 326 -97 302 -82 q 349 -140 349 -112 q 316 -208 349 -181 q 231 -248 283 -235 q 122 -261 178 -261 q 49 -253 83 -261 q -3 -234 16 -244 l 6 -212 q 90 -228 51 -228 q 163 -214 127 -228 q 199 -164 199 -199 q 189 -141 199 -149 q 160 -132 178 -132 q 117 -142 136 -132 l 200 -18 q 62 44 113 -9 q 12 194 12 98 q 71 440 12 313 q 239 652 131 568 q 486 737 348 737 q 573 720 535 737 q 633 672 612 703 q 654 604 654 642 q 635 531 654 566 q 586 473 617 495 q 517 450 554 450 q 460 472 482 450 q 437 530 437 494 z "},"ĉ":{"ha":644,"x_min":12,"x_max":722,"o":"m 12 0 m 498 710 q 365 635 429 710 q 259 441 300 561 q 219 194 219 321 q 247 90 219 123 q 325 56 275 56 q 508 178 425 56 l 536 167 q 409 34 486 87 q 233 -20 332 -20 q 72 35 132 -20 q 12 194 12 89 q 71 440 12 313 q 239 652 131 568 q 486 737 348 737 q 573 720 535 737 q 633 672 612 703 q 654 604 654 642 q 635 531 654 566 q 586 473 617 495 q 517 450 554 450 q 460 472 482 450 q 437 530 437 494 q 455 598 437 567 q 501 652 472 630 q 564 682 530 673 q 498 710 541 710 m 458 949 q 206 846 339 884 l 199 865 q 388 982 300 909 q 531 1137 475 1055 l 556 1137 q 613 976 575 1040 q 722 865 651 913 l 716 846 q 571 889 630 865 q 458 949 512 913 z "},"ċ":{"ha":644,"x_min":12,"x_max":654,"o":"m 12 0 m 498 710 q 365 635 429 710 q 259 441 300 561 q 219 194 219 321 q 247 90 219 123 q 325 56 275 56 q 508 178 425 56 l 536 167 q 409 34 486 87 q 233 -20 332 -20 q 72 35 132 -20 q 12 194 12 89 q 71 440 12 313 q 239 652 131 568 q 486 737 348 737 q 573 720 535 737 q 633 672 612 703 q 654 604 654 642 q 635 531 654 566 q 586 473 617 495 q 517 450 554 450 q 460 472 482 450 q 437 530 437 494 q 455 598 437 567 q 501 652 472 630 q 564 682 530 673 q 498 710 541 710 m 382 944 q 400 1013 382 983 q 451 1059 418 1043 q 524 1076 484 1076 q 600 1053 573 1076 q 627 990 627 1031 q 608 925 627 954 q 556 878 589 895 q 483 861 523 861 q 408 883 435 861 q 382 944 382 905 z "},"d":{"ha":804,"x_min":6,"x_max":861,"o":"m 743 225 l 710 123 q 635 13 684 45 q 526 -20 585 -20 q 416 44 440 -20 q 406 100 406 66 q 422 201 406 144 l 425 208 q 312 35 371 90 q 171 -20 253 -20 q 52 29 97 -20 q 6 176 6 78 q 64 420 6 288 q 228 645 122 553 q 468 737 333 737 q 553 690 534 737 l 615 926 q 622 965 622 951 q 600 1005 622 993 q 527 1018 578 1018 l 536 1047 q 710 1062 633 1048 q 861 1104 787 1076 l 589 118 q 581 81 581 98 q 608 49 581 49 q 693 158 654 49 l 718 225 l 743 225 m 543 656 q 523 693 536 682 q 488 705 510 705 q 363 620 428 705 q 254 404 298 535 q 211 146 211 273 q 221 74 211 97 q 256 50 232 50 q 321 91 283 50 q 399 209 359 131 q 473 394 439 288 l 543 656 z "},"ð":{"ha":734,"x_min":17,"x_max":711,"o":"m 514 944 q 645 765 599 867 q 692 543 692 663 q 638 279 692 409 q 483 64 585 149 q 241 -20 381 -20 q 78 36 138 -20 q 17 210 17 92 q 67 444 17 321 q 212 650 118 566 q 427 733 305 733 q 477 726 456 733 q 416 899 460 823 l 179 794 l 171 819 l 402 922 q 250 1063 346 1005 l 267 1086 q 493 963 395 1044 l 703 1055 l 711 1031 l 514 944 m 267 8 q 376 99 324 8 q 458 326 427 190 q 489 585 489 461 q 481 699 489 643 q 439 705 463 705 q 326 610 376 705 q 248 375 275 515 q 220 108 220 235 q 224 47 220 69 q 239 17 229 26 q 267 8 250 8 z "},"ď":{"ha":804,"x_min":6,"x_max":1091,"o":"m 6 0 m 743 225 l 710 123 q 635 13 684 45 q 526 -20 585 -20 q 416 44 440 -20 q 406 100 406 66 q 422 201 406 144 l 425 208 q 312 35 371 90 q 171 -20 253 -20 q 52 29 97 -20 q 6 176 6 78 q 64 420 6 288 q 228 645 122 553 q 468 737 333 737 q 553 690 534 737 l 615 926 q 622 965 622 951 q 600 1005 622 993 q 527 1018 578 1018 l 536 1047 q 710 1062 633 1048 q 861 1104 787 1076 l 589 118 q 581 81 581 98 q 608 49 581 49 q 693 158 654 49 l 718 225 l 743 225 m 543 656 q 523 693 536 682 q 488 705 510 705 q 363 620 428 705 q 254 404 298 535 q 211 146 211 273 q 221 74 211 97 q 256 50 232 50 q 321 91 283 50 q 399 209 359 131 q 473 394 439 288 l 543 656 m 846 750 q 910 915 889 843 q 931 1018 931 987 q 913 1044 931 1044 l 918 1074 l 938 1073 q 956 1072 944 1072 q 1089 1089 1024 1072 q 1091 1074 1091 1086 q 1031 935 1091 1022 q 866 745 971 847 l 846 750 z "},"đ":{"ha":804,"x_min":6,"x_max":916,"o":"m 589 118 q 581 81 581 98 q 608 49 581 49 q 693 158 654 49 l 718 225 l 743 225 l 710 123 q 635 13 684 45 q 526 -20 585 -20 q 416 44 440 -20 q 406 100 406 66 q 422 201 406 144 l 425 208 q 312 35 371 90 q 171 -20 253 -20 q 52 29 97 -20 q 6 176 6 78 q 64 420 6 288 q 228 645 122 553 q 468 737 333 737 q 553 690 534 737 l 593 844 l 371 844 l 380 872 l 601 872 l 615 926 q 622 965 622 951 q 600 1005 622 993 q 527 1018 578 1018 l 536 1047 q 710 1062 633 1048 q 861 1104 787 1076 l 797 872 l 916 872 l 907 844 l 789 844 l 589 118 m 543 656 q 523 693 536 682 q 488 705 510 705 q 363 620 428 705 q 254 404 298 535 q 211 146 211 273 q 221 74 211 97 q 256 50 232 50 q 321 91 283 50 q 399 209 359 131 q 473 394 439 288 l 543 656 z "},"e":{"ha":652,"x_min":4,"x_max":650,"o":"m 650 627 q 586 482 650 548 q 424 369 521 416 q 220 294 326 322 q 212 198 212 245 q 240 94 212 125 q 319 64 267 64 q 417 91 362 64 q 522 178 472 119 l 544 167 q 465 75 513 117 q 355 6 417 33 q 222 -20 292 -20 q 110 3 159 -20 q 32 70 60 25 q 4 176 4 114 q 71 431 4 300 q 253 650 138 563 q 506 737 368 737 q 610 709 570 737 q 650 627 650 681 m 475 711 q 383 655 434 711 q 289 507 332 598 q 225 319 245 416 q 378 412 323 363 q 466 528 434 463 q 498 665 498 592 q 475 711 498 711 z "},"é":{"ha":652,"x_min":4,"x_max":741,"o":"m 4 0 m 650 627 q 586 482 650 548 q 424 369 521 416 q 220 294 326 322 q 212 198 212 245 q 240 94 212 125 q 319 64 267 64 q 417 91 362 64 q 522 178 472 119 l 544 167 q 465 75 513 117 q 355 6 417 33 q 222 -20 292 -20 q 110 3 159 -20 q 32 70 60 25 q 4 176 4 114 q 71 431 4 300 q 253 650 138 563 q 506 737 368 737 q 610 709 570 737 q 650 627 650 681 m 475 711 q 383 655 434 711 q 289 507 332 598 q 225 319 245 416 q 378 412 323 363 q 466 528 434 463 q 498 665 498 592 q 475 711 498 711 m 406 845 q 510 1009 444 899 q 556 1085 539 1059 q 595 1133 574 1112 q 631 1160 611 1150 q 671 1169 652 1169 q 722 1149 701 1169 q 741 1107 741 1131 q 701 1031 741 1069 q 657 994 681 1011 q 585 946 633 977 q 420 832 487 884 l 406 845 z "},"ĕ":{"ha":652,"x_min":4,"x_max":810,"o":"m 4 0 m 650 627 q 586 482 650 548 q 424 369 521 416 q 220 294 326 322 q 212 198 212 245 q 240 94 212 125 q 319 64 267 64 q 417 91 362 64 q 522 178 472 119 l 544 167 q 465 75 513 117 q 355 6 417 33 q 222 -20 292 -20 q 110 3 159 -20 q 32 70 60 25 q 4 176 4 114 q 71 431 4 300 q 253 650 138 563 q 506 737 368 737 q 610 709 570 737 q 650 627 650 681 m 475 711 q 383 655 434 711 q 289 507 332 598 q 225 319 245 416 q 378 412 323 363 q 466 528 434 463 q 498 665 498 592 q 475 711 498 711 m 513 999 q 662 1023 588 999 q 795 1095 735 1048 l 810 1081 q 724 975 777 1025 q 607 894 670 925 q 484 863 543 863 q 367 923 410 863 q 311 1080 324 983 l 332 1089 q 405 1019 365 1040 q 513 999 444 999 z "},"ě":{"ha":652,"x_min":4,"x_max":823,"o":"m 4 0 m 650 627 q 586 482 650 548 q 424 369 521 416 q 220 294 326 322 q 212 198 212 245 q 240 94 212 125 q 319 64 267 64 q 417 91 362 64 q 522 178 472 119 l 544 167 q 465 75 513 117 q 355 6 417 33 q 222 -20 292 -20 q 110 3 159 -20 q 32 70 60 25 q 4 176 4 114 q 71 431 4 300 q 253 650 138 563 q 506 737 368 737 q 610 709 570 737 q 650 627 650 681 m 475 711 q 383 655 434 711 q 289 507 332 598 q 225 319 245 416 q 378 412 323 363 q 466 528 434 463 q 498 665 498 592 q 475 711 498 711 m 564 1036 q 816 1139 684 1102 l 823 1120 q 634 1003 722 1076 q 491 847 547 929 l 466 847 q 409 1009 447 945 q 300 1120 371 1072 l 307 1139 q 451 1096 392 1120 q 564 1036 510 1072 z "},"ê":{"ha":652,"x_min":4,"x_max":734,"o":"m 4 0 m 650 627 q 586 482 650 548 q 424 369 521 416 q 220 294 326 322 q 212 198 212 245 q 240 94 212 125 q 319 64 267 64 q 417 91 362 64 q 522 178 472 119 l 544 167 q 465 75 513 117 q 355 6 417 33 q 222 -20 292 -20 q 110 3 159 -20 q 32 70 60 25 q 4 176 4 114 q 71 431 4 300 q 253 650 138 563 q 506 737 368 737 q 610 709 570 737 q 650 627 650 681 m 475 711 q 383 655 434 711 q 289 507 332 598 q 225 319 245 416 q 378 412 323 363 q 466 528 434 463 q 498 665 498 592 q 475 711 498 711 m 470 950 q 218 847 351 885 l 212 867 q 400 983 312 910 q 543 1139 488 1057 l 568 1139 q 625 978 587 1041 q 734 867 663 914 l 728 847 q 583 890 642 866 q 470 950 524 915 z "},"ë":{"ha":652,"x_min":4,"x_max":780,"o":"m 4 0 m 650 627 q 586 482 650 548 q 424 369 521 416 q 220 294 326 322 q 212 198 212 245 q 240 94 212 125 q 319 64 267 64 q 417 91 362 64 q 522 178 472 119 l 544 167 q 465 75 513 117 q 355 6 417 33 q 222 -20 292 -20 q 110 3 159 -20 q 32 70 60 25 q 4 176 4 114 q 71 431 4 300 q 253 650 138 563 q 506 737 368 737 q 610 709 570 737 q 650 627 650 681 m 475 711 q 383 655 434 711 q 289 507 332 598 q 225 319 245 416 q 378 412 323 363 q 466 528 434 463 q 498 665 498 592 q 475 711 498 711 m 254 939 q 270 1001 254 975 q 314 1042 287 1028 q 374 1056 342 1056 q 440 1030 417 1056 q 464 963 464 1005 q 447 901 464 927 q 402 860 430 874 q 343 846 374 846 q 276 871 299 846 q 254 939 254 897 m 570 939 q 586 1001 570 975 q 630 1042 603 1028 q 690 1056 658 1056 q 756 1030 733 1056 q 780 963 780 1005 q 763 901 780 927 q 718 860 746 874 q 659 846 690 846 q 592 871 615 846 q 570 939 570 897 z "},"ė":{"ha":652,"x_min":4,"x_max":650,"o":"m 4 0 m 650 627 q 586 482 650 548 q 424 369 521 416 q 220 294 326 322 q 212 198 212 245 q 240 94 212 125 q 319 64 267 64 q 417 91 362 64 q 522 178 472 119 l 544 167 q 465 75 513 117 q 355 6 417 33 q 222 -20 292 -20 q 110 3 159 -20 q 32 70 60 25 q 4 176 4 114 q 71 431 4 300 q 253 650 138 563 q 506 737 368 737 q 610 709 570 737 q 650 627 650 681 m 475 711 q 383 655 434 711 q 289 507 332 598 q 225 319 245 416 q 378 412 323 363 q 466 528 434 463 q 498 665 498 592 q 475 711 498 711 m 394 945 q 412 1014 394 984 q 463 1061 431 1044 q 536 1077 496 1077 q 612 1055 585 1077 q 639 991 639 1032 q 620 926 639 956 q 568 879 601 897 q 495 862 535 862 q 420 884 447 862 q 394 945 394 906 z "},"è":{"ha":652,"x_min":4,"x_max":650,"o":"m 4 0 m 650 627 q 586 482 650 548 q 424 369 521 416 q 220 294 326 322 q 212 198 212 245 q 240 94 212 125 q 319 64 267 64 q 417 91 362 64 q 522 178 472 119 l 544 167 q 465 75 513 117 q 355 6 417 33 q 222 -20 292 -20 q 110 3 159 -20 q 32 70 60 25 q 4 176 4 114 q 71 431 4 300 q 253 650 138 563 q 506 737 368 737 q 610 709 570 737 q 650 627 650 681 m 475 711 q 383 655 434 711 q 289 507 332 598 q 225 319 245 416 q 378 412 323 363 q 466 528 434 463 q 498 665 498 592 q 475 711 498 711 m 488 832 q 356 976 430 903 q 308 1026 323 1008 q 279 1064 292 1044 q 264 1113 264 1088 q 297 1173 264 1154 q 334 1182 313 1182 q 376 1170 356 1182 q 410 1137 397 1158 q 431 1090 423 1116 q 449 1024 439 1065 q 474 929 464 966 q 505 841 485 892 l 488 832 z "},"ē":{"ha":652,"x_min":4,"x_max":751,"o":"m 4 0 m 650 627 q 586 482 650 548 q 424 369 521 416 q 220 294 326 322 q 212 198 212 245 q 240 94 212 125 q 319 64 267 64 q 417 91 362 64 q 522 178 472 119 l 544 167 q 465 75 513 117 q 355 6 417 33 q 222 -20 292 -20 q 110 3 159 -20 q 32 70 60 25 q 4 176 4 114 q 71 431 4 300 q 253 650 138 563 q 506 737 368 737 q 610 709 570 737 q 650 627 650 681 m 475 711 q 383 655 434 711 q 289 507 332 598 q 225 319 245 416 q 378 412 323 363 q 466 528 434 463 q 498 665 498 592 q 475 711 498 711 m 277 954 l 285 989 l 751 989 l 743 954 l 277 954 z "},"ę":{"ha":652,"x_min":4,"x_max":650,"o":"m 650 627 q 586 482 650 548 q 424 369 521 416 q 220 294 326 322 q 212 198 212 245 q 240 94 212 125 q 319 64 267 64 q 417 91 362 64 q 522 178 472 119 l 544 167 q 453 65 509 111 q 330 -3 398 20 q 237 -67 274 -27 q 201 -151 201 -107 q 241 -192 201 -192 q 286 -180 262 -192 q 328 -150 310 -168 l 347 -167 q 160 -261 269 -261 q 75 -239 106 -261 q 44 -178 44 -216 q 96 -89 44 -128 q 231 -20 148 -49 l 222 -20 q 110 3 159 -20 q 32 70 60 25 q 4 176 4 114 q 71 431 4 300 q 253 650 138 563 q 506 737 368 737 q 610 709 570 737 q 650 627 650 681 m 475 711 q 383 655 434 711 q 289 507 332 598 q 225 319 245 416 q 378 412 323 363 q 466 528 434 463 q 498 665 498 592 q 475 711 498 711 z "},"f":{"ha":474,"x_min":-62,"x_max":741,"o":"m 557 1086 q 655 1070 614 1086 q 719 1023 696 1053 q 741 954 741 993 q 724 896 741 924 q 678 849 707 867 q 613 831 649 831 q 548 851 572 831 q 524 906 524 870 q 553 989 524 952 q 630 1043 581 1026 q 611 1056 624 1050 q 583 1061 598 1061 q 510 1034 541 1061 q 467 962 486 1011 q 425 825 448 913 l 395 714 l 545 714 l 536 686 l 387 686 l 138 -241 q -62 -261 26 -243 l 192 686 l 77 686 l 85 714 l 199 714 q 269 904 230 829 q 361 1022 309 979 q 557 1086 440 1086 z "},"g":{"ha":655,"x_min":-142,"x_max":768,"o":"m 682 920 q 745 900 722 920 q 768 842 768 880 q 753 786 768 813 q 713 741 738 758 q 658 724 688 724 q 610 742 628 724 q 593 787 593 760 q 605 832 593 809 q 640 876 616 856 q 630 878 636 878 q 602 866 616 878 q 555 811 582 850 q 508 727 528 772 q 605 676 570 713 q 640 579 640 639 q 602 456 640 516 q 494 353 564 395 q 333 302 424 311 q 230 251 266 273 q 195 209 195 229 q 210 189 195 197 q 257 170 224 180 l 374 131 q 489 73 447 106 q 532 -15 532 39 q 471 -143 532 -85 q 312 -233 410 -200 q 107 -265 214 -265 q -28 -252 28 -265 q -114 -215 -85 -239 q -142 -159 -142 -191 q -119 -102 -142 -125 q -58 -63 -95 -79 q 47 -22 -22 -47 q 134 9 84 -9 l 109 17 q 49 51 72 28 q 26 106 26 73 q 53 171 26 140 q 134 231 81 201 q 275 299 186 260 q 119 339 177 300 q 61 456 61 378 q 102 584 61 519 q 225 693 144 650 q 417 736 306 736 q 482 732 454 736 q 593 888 540 846 q 682 920 634 920 m 302 324 q 385 369 351 324 q 433 483 418 414 q 450 624 449 552 q 438 689 450 667 q 395 711 427 711 q 315 662 349 711 q 265 542 282 613 q 248 410 248 471 q 261 343 248 363 q 302 324 275 324 m 157 3 q 75 -93 98 -47 q 52 -177 52 -140 q 74 -225 52 -210 q 133 -241 96 -241 q 245 -222 188 -241 q 340 -169 302 -203 q 378 -92 378 -134 q 369 -67 378 -77 q 345 -53 359 -58 q 297 -38 332 -48 l 157 3 z "},"ǵ":{"ha":655,"x_min":-142,"x_max":768,"o":"m 0 0 m 682 920 q 745 900 722 920 q 768 842 768 880 q 753 786 768 813 q 713 741 738 758 q 658 724 688 724 q 610 742 628 724 q 593 787 593 760 q 605 832 593 809 q 640 876 616 856 q 630 878 636 878 q 602 866 616 878 q 555 811 582 850 q 508 727 528 772 q 605 676 570 713 q 640 579 640 639 q 602 456 640 516 q 494 353 564 395 q 333 302 424 311 q 230 251 266 273 q 195 209 195 229 q 210 189 195 197 q 257 170 224 180 l 374 131 q 489 73 447 106 q 532 -15 532 39 q 471 -143 532 -85 q 312 -233 410 -200 q 107 -265 214 -265 q -28 -252 28 -265 q -114 -215 -85 -239 q -142 -159 -142 -191 q -119 -102 -142 -125 q -58 -63 -95 -79 q 47 -22 -22 -47 q 134 9 84 -9 l 109 17 q 49 51 72 28 q 26 106 26 73 q 53 171 26 140 q 134 231 81 201 q 275 299 186 260 q 119 339 177 300 q 61 456 61 378 q 102 584 61 519 q 225 693 144 650 q 417 736 306 736 q 482 732 454 736 q 593 888 540 846 q 682 920 634 920 m 302 324 q 385 369 351 324 q 433 483 418 414 q 450 624 449 552 q 438 689 450 667 q 395 711 427 711 q 315 662 349 711 q 265 542 282 613 q 248 410 248 471 q 261 343 248 363 q 302 324 275 324 m 157 3 q 75 -93 98 -47 q 52 -177 52 -140 q 74 -225 52 -210 q 133 -241 96 -241 q 245 -222 188 -241 q 340 -169 302 -203 q 378 -92 378 -134 q 369 -67 378 -77 q 345 -53 359 -58 q 297 -38 332 -48 l 157 3 m 359 845 q 464 1009 397 899 q 510 1085 493 1059 q 549 1133 528 1112 q 585 1160 565 1150 q 625 1169 606 1169 q 676 1149 654 1169 q 694 1107 694 1131 q 654 1031 694 1069 q 611 994 635 1011 q 538 946 587 977 q 374 832 441 884 l 359 845 z "},"ğ":{"ha":655,"x_min":-142,"x_max":768,"o":"m 0 0 m 682 920 q 745 900 722 920 q 768 842 768 880 q 753 786 768 813 q 713 741 738 758 q 658 724 688 724 q 610 742 628 724 q 593 787 593 760 q 605 832 593 809 q 640 876 616 856 q 630 878 636 878 q 602 866 616 878 q 555 811 582 850 q 508 727 528 772 q 605 676 570 713 q 640 579 640 639 q 602 456 640 516 q 494 353 564 395 q 333 302 424 311 q 230 251 266 273 q 195 209 195 229 q 210 189 195 197 q 257 170 224 180 l 374 131 q 489 73 447 106 q 532 -15 532 39 q 471 -143 532 -85 q 312 -233 410 -200 q 107 -265 214 -265 q -28 -252 28 -265 q -114 -215 -85 -239 q -142 -159 -142 -191 q -119 -102 -142 -125 q -58 -63 -95 -79 q 47 -22 -22 -47 q 134 9 84 -9 l 109 17 q 49 51 72 28 q 26 106 26 73 q 53 171 26 140 q 134 231 81 201 q 275 299 186 260 q 119 339 177 300 q 61 456 61 378 q 102 584 61 519 q 225 693 144 650 q 417 736 306 736 q 482 732 454 736 q 593 888 540 846 q 682 920 634 920 m 302 324 q 385 369 351 324 q 433 483 418 414 q 450 624 449 552 q 438 689 450 667 q 395 711 427 711 q 315 662 349 711 q 265 542 282 613 q 248 410 248 471 q 261 343 248 363 q 302 324 275 324 m 157 3 q 75 -93 98 -47 q 52 -177 52 -140 q 74 -225 52 -210 q 133 -241 96 -241 q 245 -222 188 -241 q 340 -169 302 -203 q 378 -92 378 -134 q 369 -67 378 -77 q 345 -53 359 -58 q 297 -38 332 -48 l 157 3 m 467 999 q 615 1023 542 999 q 749 1095 689 1048 l 764 1081 q 677 975 731 1025 q 561 894 624 925 q 437 863 497 863 q 321 923 364 863 q 264 1080 278 983 l 286 1089 q 358 1019 319 1040 q 467 999 398 999 z "},"ĝ":{"ha":655,"x_min":-142,"x_max":768,"o":"m 682 920 q 745 900 722 920 q 768 842 768 880 q 753 786 768 813 q 713 741 738 758 q 658 724 688 724 q 610 742 628 724 q 593 787 593 760 q 625 861 593 825 l 604 867 l 602 866 q 555 811 582 850 q 508 727 528 772 q 605 676 570 713 q 640 579 640 639 q 602 456 640 516 q 494 353 564 395 q 333 302 424 311 q 230 251 266 273 q 195 209 195 229 q 210 189 195 197 q 257 170 224 180 l 374 131 q 489 73 447 106 q 532 -15 532 39 q 471 -143 532 -85 q 312 -233 410 -200 q 107 -265 214 -265 q -28 -252 28 -265 q -114 -215 -85 -239 q -142 -159 -142 -191 q -119 -102 -142 -125 q -58 -63 -95 -79 q 47 -22 -22 -47 q 134 9 84 -9 l 109 17 q 49 51 72 28 q 26 106 26 73 q 53 171 26 140 q 134 231 81 201 q 275 299 186 260 q 119 339 177 300 q 61 456 61 378 q 102 584 61 519 q 225 693 144 650 q 417 736 306 736 q 482 732 454 736 q 578 875 534 833 q 424 950 498 901 q 172 847 305 885 l 165 867 q 354 983 266 910 q 497 1139 441 1057 l 522 1139 q 563 1007 537 1062 q 633 911 589 953 q 682 920 655 920 m 302 324 q 385 369 351 324 q 433 483 418 414 q 450 624 449 552 q 438 689 450 667 q 395 711 427 711 q 315 662 349 711 q 265 542 282 613 q 248 410 248 471 q 261 343 248 363 q 302 324 275 324 m 157 3 q 75 -93 98 -47 q 52 -177 52 -140 q 74 -225 52 -210 q 133 -241 96 -241 q 245 -222 188 -241 q 340 -169 302 -203 q 378 -92 378 -134 q 369 -67 378 -77 q 345 -53 359 -58 q 297 -38 332 -48 l 157 3 z "},"ģ":{"ha":655,"x_min":-142,"x_max":768,"o":"m 435 787 q 368 810 395 787 q 340 873 340 832 q 390 989 340 943 q 532 1049 439 1036 l 536 1022 q 443 996 481 1017 q 397 941 404 974 q 477 965 430 965 q 539 948 517 965 q 561 898 561 931 q 545 842 561 867 q 499 802 528 817 q 435 787 471 787 m 682 920 q 745 900 722 920 q 768 842 768 880 q 753 786 768 813 q 713 741 738 758 q 658 724 688 724 q 610 742 628 724 q 593 787 593 760 q 605 832 593 809 q 640 876 616 856 q 630 878 636 878 q 602 866 616 878 q 555 811 582 850 q 508 727 528 772 q 605 676 570 713 q 640 579 640 639 q 602 456 640 516 q 494 353 564 395 q 333 302 424 311 q 230 251 266 273 q 195 209 195 229 q 210 189 195 197 q 257 170 224 180 l 374 131 q 489 73 447 106 q 532 -15 532 39 q 471 -143 532 -85 q 312 -233 410 -200 q 107 -265 214 -265 q -28 -252 28 -265 q -114 -215 -85 -239 q -142 -159 -142 -191 q -119 -102 -142 -125 q -58 -63 -95 -79 q 47 -22 -22 -47 q 134 9 84 -9 l 109 17 q 49 51 72 28 q 26 106 26 73 q 53 171 26 140 q 134 231 81 201 q 275 299 186 260 q 119 339 177 300 q 61 456 61 378 q 102 584 61 519 q 225 693 144 650 q 417 736 306 736 q 482 732 454 736 q 593 888 540 846 q 682 920 634 920 m 302 324 q 385 369 351 324 q 433 483 418 414 q 450 624 449 552 q 438 689 450 667 q 395 711 427 711 q 315 662 349 711 q 265 542 282 613 q 248 410 248 471 q 261 343 248 363 q 302 324 275 324 m 157 3 q 75 -93 98 -47 q 52 -177 52 -140 q 74 -225 52 -210 q 133 -241 96 -241 q 245 -222 188 -241 q 340 -169 302 -203 q 378 -92 378 -134 q 369 -67 378 -77 q 345 -53 359 -58 q 297 -38 332 -48 l 157 3 z "},"ġ":{"ha":655,"x_min":-142,"x_max":768,"o":"m 0 0 m 682 920 q 745 900 722 920 q 768 842 768 880 q 753 786 768 813 q 713 741 738 758 q 658 724 688 724 q 610 742 628 724 q 593 787 593 760 q 605 832 593 809 q 640 876 616 856 q 630 878 636 878 q 602 866 616 878 q 555 811 582 850 q 508 727 528 772 q 605 676 570 713 q 640 579 640 639 q 602 456 640 516 q 494 353 564 395 q 333 302 424 311 q 230 251 266 273 q 195 209 195 229 q 210 189 195 197 q 257 170 224 180 l 374 131 q 489 73 447 106 q 532 -15 532 39 q 471 -143 532 -85 q 312 -233 410 -200 q 107 -265 214 -265 q -28 -252 28 -265 q -114 -215 -85 -239 q -142 -159 -142 -191 q -119 -102 -142 -125 q -58 -63 -95 -79 q 47 -22 -22 -47 q 134 9 84 -9 l 109 17 q 49 51 72 28 q 26 106 26 73 q 53 171 26 140 q 134 231 81 201 q 275 299 186 260 q 119 339 177 300 q 61 456 61 378 q 102 584 61 519 q 225 693 144 650 q 417 736 306 736 q 482 732 454 736 q 593 888 540 846 q 682 920 634 920 m 302 324 q 385 369 351 324 q 433 483 418 414 q 450 624 449 552 q 438 689 450 667 q 395 711 427 711 q 315 662 349 711 q 265 542 282 613 q 248 410 248 471 q 261 343 248 363 q 302 324 275 324 m 157 3 q 75 -93 98 -47 q 52 -177 52 -140 q 74 -225 52 -210 q 133 -241 96 -241 q 245 -222 188 -241 q 340 -169 302 -203 q 378 -92 378 -134 q 369 -67 378 -77 q 345 -53 359 -58 q 297 -38 332 -48 l 157 3 m 348 945 q 366 1014 348 984 q 417 1061 385 1044 q 490 1077 450 1077 q 566 1055 539 1077 q 593 991 593 1032 q 574 926 593 956 q 522 879 555 897 q 449 862 489 862 q 374 884 401 862 q 348 945 348 906 z "},"h":{"ha":791,"x_min":-25,"x_max":729,"o":"m 694 123 q 508 -20 646 -20 q 382 94 382 -20 q 402 201 382 140 l 527 576 q 540 636 540 614 q 513 668 540 668 q 422 599 474 668 q 316 412 370 530 q 216 153 262 294 l 171 0 l -25 0 l 250 926 q 256 964 256 947 q 235 1005 256 992 q 162 1018 213 1018 l 171 1047 q 345 1062 267 1048 q 494 1104 422 1076 l 306 460 q 400 627 354 566 q 495 712 447 687 q 601 737 543 737 q 727 625 727 737 q 709 528 727 583 l 572 118 q 564 78 564 93 q 591 49 564 49 q 678 158 639 49 l 703 225 l 729 225 l 694 123 z "},"ħ":{"ha":791,"x_min":-25,"x_max":729,"o":"m 694 123 q 508 -20 646 -20 q 382 94 382 -20 q 402 201 382 140 l 527 576 q 540 636 540 614 q 513 668 540 668 q 422 599 474 668 q 316 412 370 530 q 216 153 262 294 l 171 0 l -25 0 l 226 844 l 108 844 l 116 872 l 234 872 l 250 926 q 256 964 256 947 q 235 1005 256 992 q 162 1018 213 1018 l 171 1047 q 345 1062 267 1048 q 494 1104 422 1076 l 427 872 l 644 872 l 635 844 l 418 844 l 306 460 q 400 627 354 566 q 495 712 447 687 q 601 737 543 737 q 727 625 727 737 q 709 528 727 583 l 572 118 q 564 78 564 93 q 591 49 564 49 q 678 158 639 49 l 703 225 l 729 225 l 694 123 z "},"ĥ":{"ha":791,"x_min":-25,"x_max":846,"o":"m 0 0 m 694 123 q 508 -20 646 -20 q 382 94 382 -20 q 402 201 382 140 l 527 576 q 540 636 540 614 q 513 668 540 668 q 422 599 474 668 q 316 412 370 530 q 216 153 262 294 l 171 0 l -25 0 l 250 926 q 256 964 256 947 q 235 1005 256 992 q 162 1018 213 1018 l 171 1047 q 345 1062 267 1048 q 494 1104 422 1076 l 306 460 q 400 627 354 566 q 495 712 447 687 q 601 737 543 737 q 727 625 727 737 q 709 528 727 583 l 572 118 q 564 78 564 93 q 591 49 564 49 q 678 158 639 49 l 703 225 l 729 225 l 694 123 m 583 1284 q 331 1181 464 1219 l 324 1200 q 512 1317 425 1244 q 656 1472 600 1390 l 681 1472 q 738 1311 700 1375 q 846 1200 776 1248 l 841 1181 q 696 1224 755 1200 q 583 1284 637 1249 z "},"i":{"ha":448,"x_min":35,"x_max":490,"o":"m 245 943 q 264 1014 245 984 q 315 1059 283 1043 q 388 1074 348 1074 q 464 1051 437 1074 q 490 987 490 1028 q 471 921 490 951 q 419 876 452 892 q 347 859 386 859 q 272 882 298 859 q 245 943 245 904 m 193 600 q 202 642 202 625 q 178 669 202 669 q 132 644 153 669 q 89 560 111 618 l 62 489 l 35 489 l 73 595 q 266 737 123 737 q 359 706 330 737 q 389 625 389 675 q 374 543 389 588 l 228 118 q 219 77 219 94 q 247 49 219 49 q 290 73 269 49 q 334 158 311 96 l 359 225 l 386 225 l 351 123 q 273 13 323 45 q 163 -20 223 -20 q 68 10 100 -20 q 37 95 37 39 q 58 201 37 138 l 193 600 z "},"ı":{"ha":447,"x_min":35,"x_max":388,"o":"m 193 600 q 201 642 201 625 q 178 669 201 669 q 131 644 152 669 q 87 560 110 618 l 61 489 l 35 489 l 72 595 q 265 737 123 737 q 359 706 330 737 q 388 625 388 675 q 373 543 388 588 l 227 118 q 218 77 218 94 q 245 49 218 49 q 334 158 292 49 l 359 225 l 385 225 l 350 123 q 272 13 322 45 q 162 -20 222 -20 q 36 94 36 -20 q 57 201 36 141 l 193 600 z "},"í":{"ha":447,"x_min":35,"x_max":566,"o":"m 35 0 m 193 600 q 201 642 201 625 q 178 669 201 669 q 131 644 152 669 q 87 560 110 618 l 61 489 l 35 489 l 72 595 q 265 737 123 737 q 359 706 330 737 q 388 625 388 675 q 373 543 388 588 l 227 118 q 218 77 218 94 q 245 49 218 49 q 334 158 292 49 l 359 225 l 385 225 l 350 123 q 272 13 322 45 q 162 -20 222 -20 q 36 94 36 -20 q 57 201 36 141 l 193 600 m 231 845 q 336 1009 269 899 q 382 1085 365 1059 q 421 1133 399 1112 q 457 1160 437 1150 q 497 1169 477 1169 q 548 1149 526 1169 q 566 1107 566 1131 q 526 1031 566 1069 q 483 994 507 1011 q 410 946 458 977 q 245 832 313 884 l 231 845 z "},"ĭ":{"ha":447,"x_min":35,"x_max":636,"o":"m 35 0 m 193 600 q 201 642 201 625 q 178 669 201 669 q 131 644 152 669 q 87 560 110 618 l 61 489 l 35 489 l 72 595 q 265 737 123 737 q 359 706 330 737 q 388 625 388 675 q 373 543 388 588 l 227 118 q 218 77 218 94 q 245 49 218 49 q 334 158 292 49 l 359 225 l 385 225 l 350 123 q 272 13 322 45 q 162 -20 222 -20 q 36 94 36 -20 q 57 201 36 141 l 193 600 m 338 999 q 487 1023 414 999 q 621 1095 561 1048 l 636 1081 q 549 975 603 1025 q 432 894 496 925 q 309 863 369 863 q 193 923 236 863 q 136 1080 150 983 l 158 1089 q 230 1019 191 1040 q 338 999 270 999 z "},"î":{"ha":447,"x_min":35,"x_max":559,"o":"m 35 0 m 193 600 q 201 642 201 625 q 178 669 201 669 q 131 644 152 669 q 87 560 110 618 l 61 489 l 35 489 l 72 595 q 265 737 123 737 q 359 706 330 737 q 388 625 388 675 q 373 543 388 588 l 227 118 q 218 77 218 94 q 245 49 218 49 q 334 158 292 49 l 359 225 l 385 225 l 350 123 q 272 13 322 45 q 162 -20 222 -20 q 36 94 36 -20 q 57 201 36 141 l 193 600 m 296 950 q 44 847 177 885 l 37 867 q 225 983 138 910 q 369 1139 313 1057 l 394 1139 q 451 978 413 1041 q 559 867 489 914 l 554 847 q 409 890 468 866 q 296 950 350 915 z "},"ï":{"ha":447,"x_min":35,"x_max":606,"o":"m 35 0 m 193 600 q 201 642 201 625 q 178 669 201 669 q 131 644 152 669 q 87 560 110 618 l 61 489 l 35 489 l 72 595 q 265 737 123 737 q 359 706 330 737 q 388 625 388 675 q 373 543 388 588 l 227 118 q 218 77 218 94 q 245 49 218 49 q 334 158 292 49 l 359 225 l 385 225 l 350 123 q 272 13 322 45 q 162 -20 222 -20 q 36 94 36 -20 q 57 201 36 141 l 193 600 m 79 939 q 96 1001 79 975 q 140 1042 113 1028 q 199 1056 168 1056 q 266 1030 243 1056 q 290 963 290 1005 q 273 901 290 927 q 228 860 256 874 q 169 846 200 846 q 102 871 125 846 q 79 939 79 897 m 395 939 q 412 1001 395 975 q 456 1042 429 1028 q 515 1056 484 1056 q 582 1030 559 1056 q 606 963 606 1005 q 589 901 606 927 q 544 860 572 874 q 485 846 516 846 q 418 871 441 846 q 395 939 395 897 z "},"ì":{"ha":447,"x_min":35,"x_max":388,"o":"m 35 0 m 193 600 q 201 642 201 625 q 178 669 201 669 q 131 644 152 669 q 87 560 110 618 l 61 489 l 35 489 l 72 595 q 265 737 123 737 q 359 706 330 737 q 388 625 388 675 q 373 543 388 588 l 227 118 q 218 77 218 94 q 245 49 218 49 q 334 158 292 49 l 359 225 l 385 225 l 350 123 q 272 13 322 45 q 162 -20 222 -20 q 36 94 36 -20 q 57 201 36 141 l 193 600 m 313 832 q 182 976 256 903 q 133 1026 149 1008 q 105 1064 117 1044 q 90 1113 90 1088 q 123 1173 90 1154 q 160 1182 139 1182 q 202 1170 182 1182 q 235 1137 222 1158 q 257 1090 249 1116 q 275 1024 265 1065 q 300 929 290 966 q 330 841 311 892 l 313 832 z "},"ĳ":{"ha":872,"x_min":35,"x_max":938,"o":"m 239 943 q 258 1011 239 981 q 309 1058 276 1042 q 382 1074 341 1074 q 457 1052 431 1074 q 484 989 484 1029 q 465 923 484 953 q 413 877 446 894 q 340 859 380 859 q 266 881 292 859 q 239 943 239 903 m 693 943 q 711 1011 693 981 q 762 1058 730 1042 q 836 1074 795 1074 q 911 1052 884 1074 q 938 989 938 1029 q 919 923 938 953 q 867 877 900 894 q 794 859 834 859 q 720 881 746 859 q 693 943 693 903 m 378 127 q 410 227 399 174 q 435 366 421 279 q 459 498 448 445 q 489 597 470 551 q 577 704 519 671 q 706 737 635 737 q 833 621 833 737 q 822 543 833 584 l 716 160 q 626 -73 675 12 q 507 -200 577 -158 q 309 -261 426 -261 q 177 -180 177 -261 q 191 -129 177 -153 q 230 -92 205 -106 q 283 -78 254 -78 q 342 -99 319 -78 q 365 -151 365 -121 q 351 -199 365 -175 q 312 -240 336 -224 q 396 -200 365 -234 q 449 -90 427 -167 l 643 600 q 648 631 648 620 q 639 660 648 650 q 613 669 629 669 q 553 644 579 669 q 505 561 526 618 q 483 482 492 524 q 464 371 475 440 q 436 218 450 279 q 397 102 422 157 q 314 7 366 33 q 195 -20 262 -20 q 79 13 118 -20 q 39 107 39 45 q 57 201 39 151 l 193 600 q 202 644 202 626 q 178 669 202 669 q 131 644 152 669 q 87 560 110 618 l 61 489 l 35 489 l 72 595 q 265 737 123 737 q 359 707 330 737 q 388 625 388 676 q 373 543 388 586 l 227 118 q 221 85 221 100 q 269 40 221 40 q 330 61 301 40 q 378 127 359 83 z "},"ī":{"ha":447,"x_min":35,"x_max":534,"o":"m 35 0 m 193 600 q 201 642 201 625 q 178 669 201 669 q 131 644 152 669 q 87 560 110 618 l 61 489 l 35 489 l 72 595 q 265 737 123 737 q 359 706 330 737 q 388 625 388 675 q 373 543 388 588 l 227 118 q 218 77 218 94 q 245 49 218 49 q 334 158 292 49 l 359 225 l 385 225 l 350 123 q 272 13 322 45 q 162 -20 222 -20 q 36 94 36 -20 q 57 201 36 141 l 193 600 m 130 954 l 137 989 l 533 989 l 526 954 l 130 954 z "},"į":{"ha":448,"x_min":-45,"x_max":490,"o":"m 388 1074 q 464 1051 437 1074 q 490 987 490 1028 q 471 921 490 951 q 419 876 452 892 q 347 859 386 859 q 272 882 298 859 q 245 943 245 904 q 264 1014 245 984 q 315 1059 283 1043 q 388 1074 348 1074 m 228 118 q 219 77 219 94 q 247 49 219 49 q 290 73 269 49 q 334 158 311 96 l 359 225 l 386 225 l 351 123 q 220 -12 312 14 q 141 -75 172 -37 q 111 -151 111 -112 q 151 -192 111 -192 q 197 -180 173 -192 q 238 -150 220 -168 l 257 -167 q 71 -261 180 -261 q -14 -239 17 -261 q -45 -178 -45 -216 q 7 -88 -45 -128 q 143 -19 60 -47 q 37 95 37 -10 q 58 201 37 138 l 193 600 q 202 642 202 625 q 178 669 202 669 q 132 644 153 669 q 89 560 111 618 l 62 489 l 35 489 l 73 595 q 266 737 123 737 q 359 706 330 737 q 389 625 389 675 q 374 543 389 588 l 228 118 z "},"ĩ":{"ha":447,"x_min":35,"x_max":612,"o":"m 35 0 m 193 600 q 201 642 201 625 q 178 669 201 669 q 131 644 152 669 q 87 560 110 618 l 61 489 l 35 489 l 72 595 q 265 737 123 737 q 359 706 330 737 q 388 625 388 675 q 373 543 388 588 l 227 118 q 218 77 218 94 q 245 49 218 49 q 334 158 292 49 l 359 225 l 385 225 l 350 123 q 272 13 322 45 q 162 -20 222 -20 q 36 94 36 -20 q 57 201 36 141 l 193 600 m 277 1092 q 343 1077 317 1092 q 400 1035 370 1063 q 444 1001 425 1013 q 488 990 463 990 q 539 1009 515 990 q 587 1071 564 1028 l 612 1064 q 519 919 576 966 q 398 871 461 871 q 332 885 358 871 q 275 928 305 900 q 231 961 250 950 q 187 972 212 972 q 135 954 159 972 q 88 892 111 935 l 63 899 q 156 1044 98 996 q 277 1092 213 1092 z "},"j":{"ha":418,"x_min":-277,"x_max":485,"o":"m 241 942 q 259 1013 241 983 q 310 1059 278 1043 q 383 1074 342 1074 q 458 1051 431 1074 q 485 989 485 1028 q 466 922 485 951 q 414 876 447 892 q 341 859 381 859 q 267 881 294 859 q 241 942 241 903 m -142 -240 q -58 -200 -90 -234 q -5 -90 -26 -167 l 189 600 q 197 643 197 629 q 172 669 197 669 q 127 644 148 669 q 85 560 106 618 l 58 489 l 33 489 l 69 595 q 147 704 96 671 q 263 737 199 737 q 381 629 381 737 q 368 543 381 591 l 262 160 q 172 -73 220 12 q 52 -200 123 -158 q -145 -261 -28 -261 q -277 -180 -277 -261 q -263 -129 -277 -153 q -224 -92 -249 -106 q -171 -78 -200 -78 q -112 -99 -134 -78 q -90 -151 -90 -121 q -104 -199 -90 -175 q -142 -240 -118 -224 z "},"ȷ":{"ha":418,"x_min":-277,"x_max":381,"o":"m -142 -240 q -58 -200 -90 -234 q -5 -90 -26 -167 l 189 600 q 197 643 197 629 q 172 669 197 669 q 127 644 148 669 q 85 560 106 618 l 58 489 l 33 489 l 69 595 q 147 704 96 671 q 263 737 199 737 q 381 629 381 737 q 368 543 381 591 l 262 160 q 172 -73 220 12 q 52 -200 123 -158 q -145 -261 -28 -261 q -277 -180 -277 -261 q -263 -129 -277 -153 q -224 -92 -249 -106 q -171 -78 -200 -78 q -112 -99 -134 -78 q -90 -151 -90 -121 q -104 -199 -90 -175 q -142 -240 -118 -224 z "},"ĵ":{"ha":418,"x_min":-277,"x_max":578,"o":"m 0 0 m -142 -240 q -58 -200 -90 -234 q -5 -90 -26 -167 l 189 600 q 197 643 197 629 q 172 669 197 669 q 127 644 148 669 q 85 560 106 618 l 58 489 l 33 489 l 69 595 q 147 704 96 671 q 263 737 199 737 q 381 629 381 737 q 368 543 381 591 l 262 160 q 172 -73 220 12 q 52 -200 123 -158 q -145 -261 -28 -261 q -277 -180 -277 -261 q -263 -129 -277 -153 q -224 -92 -249 -106 q -171 -78 -200 -78 q -112 -99 -134 -78 q -90 -151 -90 -121 q -104 -199 -90 -175 q -142 -240 -118 -224 m 315 950 q 63 847 196 885 l 56 867 q 244 983 157 910 q 388 1139 332 1057 l 413 1139 q 470 978 432 1041 q 578 867 508 914 l 573 847 q 428 890 487 866 q 315 950 369 915 z "},"k":{"ha":767,"x_min":-25,"x_max":747,"o":"m 618 737 q 714 702 682 737 q 747 613 747 667 q 732 551 747 579 q 691 507 718 523 q 631 490 665 490 q 565 513 588 490 q 541 570 541 536 q 567 644 541 610 q 633 699 593 678 q 612 710 626 710 q 553 689 579 710 q 522 649 534 673 q 491 581 509 625 q 455 500 472 532 q 410 443 439 469 q 340 406 382 416 q 508 369 444 404 q 572 255 572 334 q 568 210 572 233 l 547 106 q 543 77 543 86 q 568 49 543 49 q 653 158 614 49 l 677 225 l 704 225 l 669 123 q 470 -20 619 -20 q 383 8 413 -20 q 353 90 353 36 q 359 141 353 113 l 384 248 q 392 304 392 280 q 367 365 392 344 q 286 394 342 386 l 171 0 l -25 0 l 250 926 q 256 964 256 947 q 235 1005 256 992 q 162 1018 213 1018 l 171 1047 q 345 1062 267 1048 q 494 1104 422 1076 l 292 415 q 377 449 345 423 q 427 507 410 475 q 465 590 445 538 q 496 661 481 633 q 532 705 510 688 q 618 737 570 737 z "},"ķ":{"ha":767,"x_min":-25,"x_max":747,"o":"m 0 0 m 618 737 q 714 702 682 737 q 747 613 747 667 q 732 551 747 579 q 691 507 718 523 q 631 490 665 490 q 565 513 588 490 q 541 570 541 536 q 567 644 541 610 q 633 699 593 678 q 612 710 626 710 q 553 689 579 710 q 522 649 534 673 q 491 581 509 625 q 455 500 472 532 q 410 443 439 469 q 340 406 382 416 q 508 369 444 404 q 572 255 572 334 q 568 210 572 233 l 547 106 q 543 77 543 86 q 568 49 543 49 q 653 158 614 49 l 677 225 l 704 225 l 669 123 q 470 -20 619 -20 q 383 8 413 -20 q 353 90 353 36 q 359 141 353 113 l 384 248 q 392 304 392 280 q 367 365 392 344 q 286 394 342 386 l 171 0 l -25 0 l 250 926 q 256 964 256 947 q 235 1005 256 992 q 162 1018 213 1018 l 171 1047 q 345 1062 267 1048 q 494 1104 422 1076 l 292 415 q 377 449 345 423 q 427 507 410 475 q 465 590 445 538 q 496 661 481 633 q 532 705 510 688 q 618 737 570 737 m 255 -73 q 322 -96 295 -73 q 350 -159 350 -118 q 300 -275 350 -229 q 159 -335 251 -322 l 155 -308 q 248 -281 209 -303 q 293 -227 286 -260 q 213 -251 260 -251 q 151 -234 173 -251 q 130 -184 130 -217 q 146 -128 130 -153 q 191 -88 162 -103 q 255 -73 220 -73 z "},"ĸ":{"ha":823,"x_min":22,"x_max":787,"o":"m 658 737 q 754 702 721 737 q 787 613 787 667 q 772 551 787 579 q 731 507 758 523 q 670 490 705 490 q 605 513 628 490 q 581 570 581 536 q 607 644 581 610 q 673 699 633 678 q 651 710 665 710 q 592 689 618 710 q 559 645 573 673 q 528 569 546 617 q 489 475 507 511 q 441 409 471 439 q 367 366 411 378 q 599 208 599 363 q 596 171 599 188 l 587 106 q 584 77 584 90 q 589 55 584 61 q 608 49 595 49 q 693 158 653 49 l 717 225 l 743 225 l 709 123 q 510 -20 659 -20 q 394 89 394 -20 q 399 141 394 116 l 412 209 q 418 262 418 239 q 393 327 418 305 q 309 356 369 348 l 217 0 l 22 0 l 190 600 q 199 645 199 631 q 174 669 199 669 q 128 644 149 669 q 85 560 106 619 l 59 489 l 33 489 l 70 595 q 251 737 120 737 q 370 626 370 737 q 357 543 370 590 l 314 376 q 405 412 370 383 q 460 479 441 441 q 502 576 479 516 q 535 657 521 628 q 572 705 549 686 q 658 737 610 737 z "},"l":{"ha":417,"x_min":11,"x_max":490,"o":"m 197 118 q 192 84 192 100 q 220 49 192 49 q 304 158 265 49 l 329 225 l 355 225 l 321 123 q 244 13 294 45 q 136 -20 195 -20 q 42 13 73 -20 q 11 104 11 45 q 27 201 11 148 l 245 926 q 252 965 252 951 q 230 1005 252 993 q 157 1018 208 1018 l 168 1047 q 339 1062 262 1048 q 490 1104 416 1076 l 197 118 z "},"ĺ":{"ha":417,"x_min":11,"x_max":665,"o":"m 11 0 m 197 118 q 192 84 192 100 q 220 49 192 49 q 304 158 265 49 l 329 225 l 355 225 l 321 123 q 244 13 294 45 q 136 -20 195 -20 q 42 13 73 -20 q 11 104 11 45 q 27 201 11 148 l 245 926 q 252 965 252 951 q 230 1005 252 993 q 157 1018 208 1018 l 168 1047 q 339 1062 262 1048 q 490 1104 416 1076 l 197 118 m 267 1152 q 413 1280 332 1204 q 480 1341 456 1321 q 531 1376 504 1361 q 591 1392 560 1392 q 658 1354 638 1392 q 665 1326 665 1341 q 647 1283 665 1303 q 602 1246 630 1262 q 550 1223 578 1233 q 469 1199 521 1214 q 277 1136 349 1164 l 267 1152 z "},"ľ":{"ha":417,"x_min":11,"x_max":698,"o":"m 11 0 m 197 118 q 192 84 192 100 q 220 49 192 49 q 304 158 265 49 l 329 225 l 355 225 l 321 123 q 244 13 294 45 q 136 -20 195 -20 q 42 13 73 -20 q 11 104 11 45 q 27 201 11 148 l 245 926 q 252 965 252 951 q 230 1005 252 993 q 157 1018 208 1018 l 168 1047 q 339 1062 262 1048 q 490 1104 416 1076 l 197 118 m 453 750 q 517 915 496 843 q 538 1018 538 987 q 519 1044 538 1044 l 524 1074 l 545 1073 q 562 1072 551 1072 q 696 1089 631 1072 q 698 1074 698 1086 q 638 935 698 1022 q 473 745 578 847 l 453 750 z "},"ļ":{"ha":417,"x_min":-7,"x_max":490,"o":"m 0 0 m 197 118 q 192 84 192 100 q 220 49 192 49 q 304 158 265 49 l 329 225 l 355 225 l 321 123 q 244 13 294 45 q 136 -20 195 -20 q 42 13 73 -20 q 11 104 11 45 q 27 201 11 148 l 245 926 q 252 965 252 951 q 230 1005 252 993 q 157 1018 208 1018 l 168 1047 q 339 1062 262 1048 q 490 1104 416 1076 l 197 118 m 119 -73 q 186 -96 159 -73 q 214 -159 214 -118 q 164 -275 214 -229 q 22 -335 115 -322 l 18 -308 q 111 -281 73 -303 q 157 -227 150 -260 q 77 -251 124 -251 q 15 -234 37 -251 q -7 -184 -7 -217 q 9 -128 -7 -153 q 55 -88 26 -103 q 119 -73 83 -73 z "},"ŀ":{"ha":639,"x_min":11,"x_max":621,"o":"m 11 0 m 197 118 q 192 84 192 100 q 220 49 192 49 q 304 158 265 49 l 329 225 l 355 225 l 321 123 q 244 13 294 45 q 136 -20 195 -20 q 42 13 73 -20 q 11 104 11 45 q 27 201 11 148 l 245 926 q 252 965 252 951 q 230 1005 252 993 q 157 1018 208 1018 l 168 1047 q 339 1062 262 1048 q 490 1104 416 1076 l 197 118 m 393 382 q 411 450 393 420 q 459 498 429 480 q 527 515 490 515 q 596 493 572 515 q 621 431 621 471 q 602 368 621 397 q 553 319 584 338 q 486 300 522 300 q 418 322 442 300 q 393 382 393 345 z "},"ł":{"ha":444,"x_min":-12,"x_max":515,"o":"m 210 118 q 204 84 204 100 q 233 49 204 49 q 317 158 277 49 l 341 225 l 368 225 l 333 123 q 256 13 306 45 q 148 -20 207 -20 q 54 13 85 -20 q 23 104 23 45 q 39 201 23 147 l 106 425 l -12 346 l -6 387 l 121 473 l 257 926 q 264 965 264 951 q 242 1005 264 993 q 170 1018 220 1018 l 180 1047 q 351 1062 275 1048 q 502 1104 428 1076 l 347 582 l 515 694 l 509 652 l 333 535 l 210 118 z "},"m":{"ha":1189,"x_min":22,"x_max":1126,"o":"m 1091 123 q 905 -20 1042 -20 q 793 31 824 -20 q 777 94 777 56 q 799 201 777 138 l 924 576 q 935 632 935 611 q 916 660 935 660 q 830 601 878 660 q 727 421 782 541 q 618 125 673 300 l 618 129 l 582 0 l 383 0 l 553 576 q 565 633 565 616 q 541 660 565 660 q 451 595 500 660 q 351 416 401 531 q 256 151 300 300 l 217 0 l 22 0 l 190 600 q 197 640 197 624 q 173 669 197 669 q 127 644 149 669 q 85 560 106 618 l 59 489 l 33 489 l 70 595 q 257 737 120 737 q 370 627 370 737 q 357 543 370 590 l 326 421 q 418 605 372 536 q 517 706 464 674 q 637 737 570 737 q 747 630 747 737 q 730 528 747 585 l 703 433 q 799 614 751 548 q 898 709 847 681 q 1011 737 949 737 q 1124 629 1124 737 q 1105 528 1124 585 l 969 118 q 961 77 961 96 q 988 49 961 49 q 1075 158 1036 49 l 1099 225 l 1126 225 l 1091 123 z "},"n":{"ha":838,"x_min":22,"x_max":776,"o":"m 741 123 q 555 -20 692 -20 q 445 26 476 -20 q 427 92 427 52 q 449 201 427 137 l 574 576 q 586 636 586 614 q 559 668 586 668 q 456 580 517 668 q 335 349 395 492 q 231 50 274 206 l 218 0 l 22 0 l 191 600 q 199 644 199 631 q 174 669 199 669 q 129 645 149 669 q 86 560 109 621 l 60 489 l 33 489 l 71 595 q 142 704 97 670 q 250 737 186 737 q 370 624 370 737 q 358 543 370 591 l 313 371 q 424 593 371 513 q 529 705 476 673 q 648 737 583 737 q 774 626 774 737 q 755 528 774 583 l 619 118 q 611 78 611 93 q 638 49 611 49 q 725 158 686 49 l 750 225 l 776 225 l 741 123 z "},"ń":{"ha":838,"x_min":22,"x_max":776,"o":"m 22 0 m 741 123 q 555 -20 692 -20 q 445 26 476 -20 q 427 92 427 52 q 449 201 427 137 l 574 576 q 586 636 586 614 q 559 668 586 668 q 456 580 517 668 q 335 349 395 492 q 231 50 274 206 l 218 0 l 22 0 l 191 600 q 199 644 199 631 q 174 669 199 669 q 129 645 149 669 q 86 560 109 621 l 60 489 l 33 489 l 71 595 q 142 704 97 670 q 250 737 186 737 q 370 624 370 737 q 358 543 370 591 l 313 371 q 424 593 371 513 q 529 705 476 673 q 648 737 583 737 q 774 626 774 737 q 755 528 774 583 l 619 118 q 611 78 611 93 q 638 49 611 49 q 725 158 686 49 l 750 225 l 776 225 l 741 123 m 431 845 q 536 1009 469 899 q 582 1085 565 1059 q 621 1133 600 1112 q 657 1160 637 1150 q 697 1169 677 1169 q 748 1149 726 1169 q 766 1107 766 1131 q 726 1031 766 1069 q 683 994 707 1011 q 610 946 659 977 q 446 832 513 884 l 431 845 z "},"ŉ":{"ha":838,"x_min":-11,"x_max":776,"o":"m 0 0 m 741 123 q 555 -20 692 -20 q 445 26 476 -20 q 427 92 427 52 q 449 201 427 137 l 574 576 q 586 636 586 614 q 559 668 586 668 q 456 580 517 668 q 335 349 395 492 q 231 50 274 206 l 218 0 l 22 0 l 191 600 q 199 644 199 631 q 174 669 199 669 q 129 645 149 669 q 86 560 109 621 l 60 489 l 33 489 l 71 595 q 142 704 97 670 q 250 737 186 737 q 370 624 370 737 q 358 543 370 591 l 313 371 q 424 593 371 513 q 529 705 476 673 q 648 737 583 737 q 774 626 774 737 q 755 528 774 583 l 619 118 q 611 78 611 93 q 638 49 611 49 q 725 158 686 49 l 750 225 l 776 225 l 741 123 m 226 992 q 171 829 226 905 q 19 709 115 753 l 12 732 q 117 813 75 764 q 163 919 159 862 q 75 879 121 879 q 12 898 34 879 q -11 954 -11 918 q 9 1023 -11 991 q 62 1075 28 1055 q 134 1094 95 1094 q 202 1068 178 1094 q 226 992 226 1042 z "},"ň":{"ha":838,"x_min":22,"x_max":848,"o":"m 22 0 m 741 123 q 555 -20 692 -20 q 445 26 476 -20 q 427 92 427 52 q 449 201 427 137 l 574 576 q 586 636 586 614 q 559 668 586 668 q 456 580 517 668 q 335 349 395 492 q 231 50 274 206 l 218 0 l 22 0 l 191 600 q 199 644 199 631 q 174 669 199 669 q 129 645 149 669 q 86 560 109 621 l 60 489 l 33 489 l 71 595 q 142 704 97 670 q 250 737 186 737 q 370 624 370 737 q 358 543 370 591 l 313 371 q 424 593 371 513 q 529 705 476 673 q 648 737 583 737 q 774 626 774 737 q 755 528 774 583 l 619 118 q 611 78 611 93 q 638 49 611 49 q 725 158 686 49 l 750 225 l 776 225 l 741 123 m 590 1036 q 842 1139 709 1102 l 848 1120 q 660 1003 748 1076 q 517 847 572 929 l 492 847 q 435 1009 473 945 q 326 1120 397 1072 l 332 1139 q 477 1096 418 1120 q 590 1036 536 1072 z "},"ņ":{"ha":838,"x_min":22,"x_max":776,"o":"m 22 0 m 741 123 q 555 -20 692 -20 q 445 26 476 -20 q 427 92 427 52 q 449 201 427 137 l 574 576 q 586 636 586 614 q 559 668 586 668 q 456 580 517 668 q 335 349 395 492 q 231 50 274 206 l 218 0 l 22 0 l 191 600 q 199 644 199 631 q 174 669 199 669 q 129 645 149 669 q 86 560 109 621 l 60 489 l 33 489 l 71 595 q 142 704 97 670 q 250 737 186 737 q 370 624 370 737 q 358 543 370 591 l 313 371 q 424 593 371 513 q 529 705 476 673 q 648 737 583 737 q 774 626 774 737 q 755 528 774 583 l 619 118 q 611 78 611 93 q 638 49 611 49 q 725 158 686 49 l 750 225 l 776 225 l 741 123 m 288 -73 q 355 -96 328 -73 q 382 -159 382 -118 q 333 -275 382 -229 q 191 -335 283 -322 l 187 -308 q 280 -281 241 -303 q 326 -227 319 -260 q 245 -251 293 -251 q 184 -234 205 -251 q 162 -184 162 -217 q 178 -128 162 -153 q 223 -88 195 -103 q 288 -73 252 -73 z "},"ŋ":{"ha":806,"x_min":22,"x_max":773,"o":"m 648 737 q 773 628 773 737 q 755 528 773 587 l 650 160 q 552 -80 604 9 q 431 -208 500 -169 q 339 -249 390 -237 q 243 -261 288 -261 q 144 -240 177 -261 q 111 -179 111 -219 q 125 -130 111 -153 q 164 -92 140 -106 q 217 -78 188 -78 q 276 -100 254 -78 q 298 -152 298 -121 q 284 -199 298 -175 q 245 -240 271 -224 q 329 -200 298 -234 q 383 -90 360 -167 l 573 576 q 585 638 585 618 q 559 668 585 668 q 455 580 516 668 q 334 349 395 492 q 230 50 273 206 l 217 0 l 22 0 l 190 600 q 199 646 199 631 q 174 669 199 669 q 128 644 149 669 q 85 560 106 619 l 59 489 l 33 489 l 70 595 q 251 737 120 737 q 370 626 370 737 q 357 543 370 591 l 309 355 q 420 587 367 504 q 527 704 473 671 q 648 737 581 737 z "},"ñ":{"ha":838,"x_min":22,"x_max":812,"o":"m 22 0 m 741 123 q 555 -20 692 -20 q 445 26 476 -20 q 427 92 427 52 q 449 201 427 137 l 574 576 q 586 636 586 614 q 559 668 586 668 q 456 580 517 668 q 335 349 395 492 q 231 50 274 206 l 218 0 l 22 0 l 191 600 q 199 644 199 631 q 174 669 199 669 q 129 645 149 669 q 86 560 109 621 l 60 489 l 33 489 l 71 595 q 142 704 97 670 q 250 737 186 737 q 370 624 370 737 q 358 543 370 591 l 313 371 q 424 593 371 513 q 529 705 476 673 q 648 737 583 737 q 774 626 774 737 q 755 528 774 583 l 619 118 q 611 78 611 93 q 638 49 611 49 q 725 158 686 49 l 750 225 l 776 225 l 741 123 m 477 1092 q 543 1077 517 1092 q 600 1035 570 1063 q 644 1001 625 1013 q 688 990 663 990 q 740 1009 715 990 q 787 1071 764 1028 l 812 1064 q 719 919 777 966 q 598 871 661 871 q 532 885 558 871 q 475 928 505 900 q 431 961 450 950 q 387 972 412 972 q 335 954 359 972 q 288 892 311 935 l 263 899 q 356 1044 298 996 q 477 1092 413 1092 z "},"o":{"ha":735,"x_min":17,"x_max":692,"o":"m 17 210 q 69 447 17 324 q 223 654 121 570 q 467 737 325 737 q 633 679 575 737 q 692 509 692 620 q 640 271 692 394 q 486 64 588 148 q 241 -20 384 -20 q 75 39 134 -20 q 17 210 17 98 m 460 710 q 347 612 408 710 q 244 370 286 513 q 203 103 203 227 q 214 31 203 53 q 250 8 226 8 q 361 104 301 8 q 464 342 422 200 q 505 613 505 484 q 494 689 505 667 q 460 710 483 710 z "},"ó":{"ha":735,"x_min":17,"x_max":758,"o":"m 17 0 m 17 210 q 69 447 17 324 q 223 654 121 570 q 467 737 325 737 q 633 679 575 737 q 692 509 692 620 q 640 271 692 394 q 486 64 588 148 q 241 -20 384 -20 q 75 39 134 -20 q 17 210 17 98 m 460 710 q 347 612 408 710 q 244 370 286 513 q 203 103 203 227 q 214 31 203 53 q 250 8 226 8 q 361 104 301 8 q 464 342 422 200 q 505 613 505 484 q 494 689 505 667 q 460 710 483 710 m 422 845 q 527 1009 460 899 q 573 1085 556 1059 q 612 1133 591 1112 q 648 1160 628 1150 q 688 1169 669 1169 q 739 1149 718 1169 q 758 1107 758 1131 q 718 1031 758 1069 q 674 994 698 1011 q 602 946 650 977 q 437 832 504 884 l 422 845 z "},"ŏ":{"ha":735,"x_min":17,"x_max":827,"o":"m 17 0 m 17 210 q 69 447 17 324 q 223 654 121 570 q 467 737 325 737 q 633 679 575 737 q 692 509 692 620 q 640 271 692 394 q 486 64 588 148 q 241 -20 384 -20 q 75 39 134 -20 q 17 210 17 98 m 460 710 q 347 612 408 710 q 244 370 286 513 q 203 103 203 227 q 214 31 203 53 q 250 8 226 8 q 361 104 301 8 q 464 342 422 200 q 505 613 505 484 q 494 689 505 667 q 460 710 483 710 m 530 999 q 679 1023 605 999 q 812 1095 752 1048 l 827 1081 q 741 975 794 1025 q 624 894 687 925 q 500 863 560 863 q 384 923 427 863 q 328 1080 341 983 l 349 1089 q 421 1019 382 1040 q 530 999 461 999 z "},"ô":{"ha":735,"x_min":17,"x_max":751,"o":"m 17 0 m 17 210 q 69 447 17 324 q 223 654 121 570 q 467 737 325 737 q 633 679 575 737 q 692 509 692 620 q 640 271 692 394 q 486 64 588 148 q 241 -20 384 -20 q 75 39 134 -20 q 17 210 17 98 m 460 710 q 347 612 408 710 q 244 370 286 513 q 203 103 203 227 q 214 31 203 53 q 250 8 226 8 q 361 104 301 8 q 464 342 422 200 q 505 613 505 484 q 494 689 505 667 q 460 710 483 710 m 487 950 q 235 847 368 885 l 229 867 q 417 983 329 910 q 560 1139 505 1057 l 585 1139 q 642 978 604 1041 q 751 867 680 914 l 745 847 q 600 890 659 866 q 487 950 541 915 z "},"ö":{"ha":735,"x_min":17,"x_max":797,"o":"m 17 0 m 17 210 q 69 447 17 324 q 223 654 121 570 q 467 737 325 737 q 633 679 575 737 q 692 509 692 620 q 640 271 692 394 q 486 64 588 148 q 241 -20 384 -20 q 75 39 134 -20 q 17 210 17 98 m 460 710 q 347 612 408 710 q 244 370 286 513 q 203 103 203 227 q 214 31 203 53 q 250 8 226 8 q 361 104 301 8 q 464 342 422 200 q 505 613 505 484 q 494 689 505 667 q 460 710 483 710 m 271 939 q 287 1001 271 975 q 331 1042 304 1028 q 391 1056 359 1056 q 457 1030 434 1056 q 481 963 481 1005 q 464 901 481 927 q 419 860 447 874 q 360 846 391 846 q 293 871 316 846 q 271 939 271 897 m 587 939 q 603 1001 587 975 q 647 1042 620 1028 q 707 1056 675 1056 q 773 1030 750 1056 q 797 963 797 1005 q 780 901 797 927 q 735 860 763 874 q 676 846 707 846 q 609 871 632 846 q 587 939 587 897 z "},"ò":{"ha":735,"x_min":17,"x_max":692,"o":"m 17 0 m 17 210 q 69 447 17 324 q 223 654 121 570 q 467 737 325 737 q 633 679 575 737 q 692 509 692 620 q 640 271 692 394 q 486 64 588 148 q 241 -20 384 -20 q 75 39 134 -20 q 17 210 17 98 m 460 710 q 347 612 408 710 q 244 370 286 513 q 203 103 203 227 q 214 31 203 53 q 250 8 226 8 q 361 104 301 8 q 464 342 422 200 q 505 613 505 484 q 494 689 505 667 q 460 710 483 710 m 505 832 q 373 976 447 903 q 325 1026 340 1008 q 296 1064 309 1044 q 281 1113 281 1088 q 314 1173 281 1154 q 351 1182 330 1182 q 393 1170 373 1182 q 427 1137 414 1158 q 448 1090 440 1116 q 466 1024 456 1065 q 491 929 481 966 q 522 841 502 892 l 505 832 z "},"ő":{"ha":735,"x_min":17,"x_max":828,"o":"m 17 0 m 17 210 q 69 447 17 324 q 223 654 121 570 q 467 737 325 737 q 633 679 575 737 q 692 509 692 620 q 640 271 692 394 q 486 64 588 148 q 241 -20 384 -20 q 75 39 134 -20 q 17 210 17 98 m 460 710 q 347 612 408 710 q 244 370 286 513 q 203 103 203 227 q 214 31 203 53 q 250 8 226 8 q 361 104 301 8 q 464 342 422 200 q 505 613 505 484 q 494 689 505 667 q 460 710 483 710 m 326 842 q 392 1001 355 904 q 439 1104 418 1076 q 505 1138 465 1138 q 554 1121 532 1138 q 581 1067 581 1099 q 558 1010 581 1038 q 473 937 537 985 q 341 831 395 880 l 326 842 m 573 842 q 640 1002 605 907 q 664 1064 654 1042 q 687 1104 674 1086 q 753 1138 713 1138 q 802 1121 781 1138 q 828 1066 828 1099 q 806 1010 828 1037 q 721 937 785 985 q 589 831 643 880 l 573 842 z "},"ō":{"ha":735,"x_min":17,"x_max":768,"o":"m 17 0 m 17 210 q 69 447 17 324 q 223 654 121 570 q 467 737 325 737 q 633 679 575 737 q 692 509 692 620 q 640 271 692 394 q 486 64 588 148 q 241 -20 384 -20 q 75 39 134 -20 q 17 210 17 98 m 460 710 q 347 612 408 710 q 244 370 286 513 q 203 103 203 227 q 214 31 203 53 q 250 8 226 8 q 361 104 301 8 q 464 342 422 200 q 505 613 505 484 q 494 689 505 667 q 460 710 483 710 m 294 954 l 302 989 l 768 989 l 760 954 l 294 954 z "},"ø":{"ha":734,"x_min":17,"x_max":692,"o":"m 600 705 q 692 509 692 649 q 640 271 692 394 q 486 64 588 148 q 241 -20 384 -20 q 130 1 178 -20 l 45 -115 l 23 -101 l 106 14 q 17 210 17 71 q 69 447 17 324 q 223 654 121 570 q 467 737 325 737 q 578 717 531 737 l 659 832 l 681 819 l 600 705 m 460 710 q 352 620 410 710 q 252 394 294 529 q 203 137 210 259 l 505 629 q 492 692 503 674 q 460 710 481 710 m 250 8 q 357 97 299 8 q 457 321 415 186 q 505 583 499 456 l 203 87 q 216 27 205 45 q 250 8 228 8 z "},"õ":{"ha":735,"x_min":17,"x_max":803,"o":"m 17 0 m 17 210 q 69 447 17 324 q 223 654 121 570 q 467 737 325 737 q 633 679 575 737 q 692 509 692 620 q 640 271 692 394 q 486 64 588 148 q 241 -20 384 -20 q 75 39 134 -20 q 17 210 17 98 m 460 710 q 347 612 408 710 q 244 370 286 513 q 203 103 203 227 q 214 31 203 53 q 250 8 226 8 q 361 104 301 8 q 464 342 422 200 q 505 613 505 484 q 494 689 505 667 q 460 710 483 710 m 468 1092 q 534 1077 508 1092 q 591 1035 561 1063 q 635 1001 616 1013 q 679 990 654 990 q 731 1009 707 990 q 778 1071 755 1028 l 803 1064 q 710 919 768 966 q 589 871 652 871 q 523 885 549 871 q 466 928 496 900 q 422 961 441 950 q 378 972 404 972 q 327 954 351 972 q 279 892 302 935 l 254 899 q 347 1044 290 996 q 468 1092 404 1092 z "},"œ":{"ha":1078,"x_min":8,"x_max":1077,"o":"m 1077 622 q 1012 478 1077 544 q 850 367 947 413 q 647 293 753 321 q 639 198 639 245 q 666 94 639 125 q 746 64 694 64 q 842 91 789 64 q 946 178 895 119 l 970 167 q 891 75 939 117 q 781 6 844 33 q 648 -20 719 -20 q 512 16 569 -20 q 438 118 456 52 q 220 -20 351 -20 q 64 39 120 -20 q 8 210 8 98 q 72 442 8 319 q 250 648 136 565 q 505 732 364 732 q 600 702 566 732 q 637 619 635 673 q 921 737 768 737 q 1034 708 991 737 q 1077 622 1077 679 m 890 711 q 802 654 850 711 q 711 506 753 597 q 651 318 670 415 q 813 413 761 364 q 895 527 865 462 q 924 665 924 592 q 890 711 924 711 m 431 176 q 480 397 431 283 q 613 596 529 511 q 590 656 610 634 q 533 678 570 678 q 379 604 454 678 q 258 412 304 529 q 211 176 211 294 q 292 53 211 53 q 364 79 327 53 q 432 151 401 105 q 431 176 431 168 z "},"p":{"ha":810,"x_min":-126,"x_max":768,"o":"m 596 737 q 724 683 680 737 q 768 524 768 628 q 718 282 768 410 q 572 67 667 155 q 353 -20 477 -20 q 281 -7 315 -20 q 228 28 248 6 l 191 -104 q 182 -154 182 -134 q 211 -207 182 -192 q 298 -222 239 -221 l 290 -252 l 248 -250 q 70 -245 138 -245 q -92 -250 8 -245 q -126 -252 -119 -252 l -117 -222 q -63 -214 -83 -222 q -31 -188 -43 -206 q -9 -136 -18 -170 l 243 769 q 153 612 204 682 q 30 469 102 543 l 15 487 q 117 602 76 551 q 198 726 157 652 q 281 904 239 799 l 283 914 q 490 954 395 922 l 370 530 q 476 687 421 637 q 596 737 531 737 m 298 21 q 426 105 364 21 q 527 313 488 189 q 566 548 566 437 q 554 638 566 613 q 519 664 542 664 q 459 628 492 664 q 392 529 426 592 q 330 388 359 467 l 235 53 q 298 21 259 21 z "},"þ":{"ha":811,"x_min":-125,"x_max":769,"o":"m 597 737 q 725 683 682 737 q 769 524 769 628 q 718 282 769 410 q 573 67 667 155 q 354 -20 478 -20 q 282 -7 315 -20 q 229 28 249 6 l 191 -104 q 183 -154 183 -133 q 211 -207 183 -192 q 298 -222 239 -221 l 290 -252 l 249 -250 q 71 -245 138 -245 q -92 -250 8 -245 q -125 -252 -119 -252 l -117 -222 q -63 -215 -83 -222 q -30 -188 -43 -207 q -8 -136 -18 -170 l 245 769 q 155 613 206 682 q 31 469 104 544 l 16 487 q 118 603 78 553 q 200 726 159 653 q 283 903 242 799 l 328 1065 q 534 1104 439 1073 l 376 549 q 479 692 425 648 q 597 737 532 737 m 299 21 q 427 105 365 21 q 528 313 489 189 q 566 548 566 437 q 554 638 566 613 q 520 664 543 664 q 461 632 494 664 q 398 546 429 601 q 341 422 366 491 l 236 53 q 299 21 260 21 z "},"q":{"ha":766,"x_min":12,"x_max":765,"o":"m 528 -121 q 523 -158 523 -140 q 545 -205 523 -191 q 613 -222 568 -220 l 605 -252 l 565 -250 q 390 -245 456 -245 q 220 -250 324 -245 q 186 -252 193 -252 l 194 -222 q 265 -211 238 -222 q 308 -180 292 -201 q 334 -125 324 -160 l 424 212 q 312 35 369 89 q 184 -20 254 -20 q 56 35 100 -20 q 12 195 12 90 q 68 434 12 306 q 223 650 124 562 q 444 737 322 737 q 515 721 483 737 q 562 677 547 705 q 743 739 635 684 l 765 729 q 734 648 749 697 l 528 -121 m 545 664 q 481 697 522 697 q 354 605 416 697 q 253 383 292 513 q 214 150 214 252 q 226 83 214 103 q 260 62 237 62 q 336 111 294 62 q 416 241 378 160 q 477 414 454 322 l 473 393 l 545 664 z "},"r":{"ha":652,"x_min":22,"x_max":692,"o":"m 578 737 q 662 706 631 737 q 692 625 692 674 q 675 553 692 587 q 627 500 657 520 q 559 481 596 481 q 497 502 519 481 q 475 564 475 524 q 490 625 475 596 q 532 674 506 654 q 590 702 559 694 q 572 707 582 707 q 430 607 502 707 q 282 251 358 507 l 217 0 l 22 0 l 190 600 q 197 642 197 628 q 174 669 197 669 q 128 644 149 669 q 85 560 106 619 l 59 489 l 33 489 l 70 595 q 261 737 120 737 q 368 625 368 737 q 357 543 368 590 l 347 500 q 416 641 381 589 q 489 715 450 692 q 578 737 528 737 z "},"ŕ":{"ha":652,"x_min":22,"x_max":695,"o":"m 22 0 m 578 737 q 662 706 631 737 q 692 625 692 674 q 675 553 692 587 q 627 500 657 520 q 559 481 596 481 q 497 502 519 481 q 475 564 475 524 q 490 625 475 596 q 532 674 506 654 q 590 702 559 694 q 572 707 582 707 q 430 607 502 707 q 282 251 358 507 l 217 0 l 22 0 l 190 600 q 197 642 197 628 q 174 669 197 669 q 128 644 149 669 q 85 560 106 619 l 59 489 l 33 489 l 70 595 q 261 737 120 737 q 368 625 368 737 q 357 543 368 590 l 347 500 q 416 641 381 589 q 489 715 450 692 q 578 737 528 737 m 360 845 q 465 1009 398 899 q 511 1085 494 1059 q 550 1133 528 1112 q 586 1160 566 1150 q 626 1169 606 1169 q 677 1149 655 1169 q 695 1107 695 1131 q 655 1031 695 1069 q 611 994 635 1011 q 539 946 587 977 q 374 832 441 884 l 360 845 z "},"ř":{"ha":652,"x_min":22,"x_max":777,"o":"m 22 0 m 578 737 q 662 706 631 737 q 692 625 692 674 q 675 553 692 587 q 627 500 657 520 q 559 481 596 481 q 497 502 519 481 q 475 564 475 524 q 490 625 475 596 q 532 674 506 654 q 590 702 559 694 q 572 707 582 707 q 430 607 502 707 q 282 251 358 507 l 217 0 l 22 0 l 190 600 q 197 642 197 628 q 174 669 197 669 q 128 644 149 669 q 85 560 106 619 l 59 489 l 33 489 l 70 595 q 261 737 120 737 q 368 625 368 737 q 357 543 368 590 l 347 500 q 416 641 381 589 q 489 715 450 692 q 578 737 528 737 m 519 1036 q 770 1139 638 1102 l 777 1120 q 589 1003 677 1076 q 446 847 501 929 l 420 847 q 363 1009 401 945 q 255 1120 326 1072 l 261 1139 q 406 1096 347 1120 q 519 1036 465 1072 z "},"ŗ":{"ha":652,"x_min":-31,"x_max":692,"o":"m 0 0 m 578 737 q 662 706 631 737 q 692 625 692 674 q 675 553 692 587 q 627 500 657 520 q 559 481 596 481 q 497 502 519 481 q 475 564 475 524 q 490 625 475 596 q 532 674 506 654 q 590 702 559 694 q 572 707 582 707 q 430 607 502 707 q 282 251 358 507 l 217 0 l 22 0 l 190 600 q 197 642 197 628 q 174 669 197 669 q 128 644 149 669 q 85 560 106 619 l 59 489 l 33 489 l 70 595 q 261 737 120 737 q 368 625 368 737 q 357 543 368 590 l 347 500 q 416 641 381 589 q 489 715 450 692 q 578 737 528 737 m 94 -73 q 162 -96 134 -73 q 189 -159 189 -118 q 140 -275 189 -229 q -2 -335 90 -322 l -6 -308 q 87 -281 48 -303 q 132 -227 125 -260 q 52 -251 100 -251 q -9 -234 12 -251 q -31 -184 -31 -217 q -15 -128 -31 -153 q 30 -88 1 -103 q 94 -73 59 -73 z "},"s":{"ha":583,"x_min":-27,"x_max":573,"o":"m 103 20 q 157 9 125 9 q 241 42 209 9 q 273 130 273 74 q 254 221 273 174 q 197 328 235 269 q 149 402 164 376 q 122 462 134 429 q 111 533 111 496 q 141 638 111 592 q 228 711 171 685 q 362 737 284 737 q 513 705 452 737 q 573 593 573 672 q 564 546 573 570 q 535 506 554 522 q 488 490 515 490 q 434 516 454 490 q 413 584 413 543 q 425 648 413 618 q 455 699 437 678 q 407 709 438 709 q 328 678 356 709 q 299 590 299 647 q 314 522 299 554 q 362 439 329 490 l 382 409 q 445 288 426 336 q 465 193 465 240 q 432 84 465 132 q 341 8 400 36 q 202 -20 281 -20 q 38 19 103 -20 q -27 142 -27 57 q -6 212 -27 183 q 52 241 15 241 q 109 211 88 241 q 130 133 130 181 q 124 83 130 106 q 112 43 118 60 q 103 20 105 26 z "},"ś":{"ha":583,"x_min":-27,"x_max":669,"o":"m 0 0 m 103 20 q 157 9 125 9 q 241 42 209 9 q 273 130 273 74 q 254 221 273 174 q 197 328 235 269 q 149 402 164 376 q 122 462 134 429 q 111 533 111 496 q 141 638 111 592 q 228 711 171 685 q 362 737 284 737 q 513 705 452 737 q 573 593 573 672 q 564 546 573 570 q 535 506 554 522 q 488 490 515 490 q 434 516 454 490 q 413 584 413 543 q 425 648 413 618 q 455 699 437 678 q 407 709 438 709 q 328 678 356 709 q 299 590 299 647 q 314 522 299 554 q 362 439 329 490 l 382 409 q 445 288 426 336 q 465 193 465 240 q 432 84 465 132 q 341 8 400 36 q 202 -20 281 -20 q 38 19 103 -20 q -27 142 -27 57 q -6 212 -27 183 q 52 241 15 241 q 109 211 88 241 q 130 133 130 181 q 124 83 130 106 q 112 43 118 60 q 103 20 105 26 m 334 845 q 438 1009 372 899 q 485 1085 467 1059 q 524 1133 502 1112 q 559 1160 539 1150 q 600 1169 580 1169 q 650 1149 629 1169 q 669 1107 669 1131 q 629 1031 669 1069 q 585 994 609 1011 q 513 946 561 977 q 348 832 415 884 l 334 845 z "},"š":{"ha":583,"x_min":-27,"x_max":751,"o":"m 0 0 m 103 20 q 157 9 125 9 q 241 42 209 9 q 273 130 273 74 q 254 221 273 174 q 197 328 235 269 q 149 402 164 376 q 122 462 134 429 q 111 533 111 496 q 141 638 111 592 q 228 711 171 685 q 362 737 284 737 q 513 705 452 737 q 573 593 573 672 q 564 546 573 570 q 535 506 554 522 q 488 490 515 490 q 434 516 454 490 q 413 584 413 543 q 425 648 413 618 q 455 699 437 678 q 407 709 438 709 q 328 678 356 709 q 299 590 299 647 q 314 522 299 554 q 362 439 329 490 l 382 409 q 445 288 426 336 q 465 193 465 240 q 432 84 465 132 q 341 8 400 36 q 202 -20 281 -20 q 38 19 103 -20 q -27 142 -27 57 q -6 212 -27 183 q 52 241 15 241 q 109 211 88 241 q 130 133 130 181 q 124 83 130 106 q 112 43 118 60 q 103 20 105 26 m 492 1036 q 744 1139 612 1102 l 751 1120 q 563 1003 650 1076 q 419 847 475 929 l 394 847 q 337 1009 375 945 q 229 1120 299 1072 l 235 1139 q 379 1096 320 1120 q 492 1036 438 1072 z "},"ş":{"ha":583,"x_min":-52,"x_max":573,"o":"m 362 737 q 513 705 452 737 q 573 593 573 672 q 564 546 573 570 q 535 506 554 522 q 488 490 515 490 q 434 516 454 490 q 413 584 413 543 q 425 648 413 618 q 455 699 437 678 q 407 709 438 709 q 328 678 356 709 q 299 590 299 647 q 314 522 299 554 q 362 439 329 490 l 382 409 q 445 288 426 336 q 465 193 465 240 q 432 84 465 132 q 341 8 400 36 q 202 -20 281 -20 l 191 -20 l 142 -96 q 216 -82 184 -82 q 277 -97 254 -82 q 300 -140 300 -112 q 267 -208 300 -181 q 182 -248 234 -235 q 73 -261 130 -261 q 0 -253 34 -261 q -52 -234 -33 -244 l -43 -212 q 41 -228 2 -228 q 114 -214 78 -228 q 150 -164 150 -199 q 140 -141 150 -149 q 111 -132 130 -132 q 68 -142 87 -132 l 152 -17 q 22 30 72 -9 q -27 142 -27 68 q -6 212 -27 183 q 52 241 15 241 q 109 211 88 241 q 130 133 130 181 q 124 83 130 106 q 112 43 118 60 q 103 20 105 26 q 157 9 125 9 q 241 42 209 9 q 273 130 273 74 q 254 221 273 174 q 197 328 235 269 q 149 402 164 376 q 122 462 134 429 q 111 533 111 496 q 141 638 111 592 q 228 711 171 685 q 362 737 284 737 z "},"ŝ":{"ha":583,"x_min":-27,"x_max":662,"o":"m 0 0 m 103 20 q 157 9 125 9 q 241 42 209 9 q 273 130 273 74 q 254 221 273 174 q 197 328 235 269 q 149 402 164 376 q 122 462 134 429 q 111 533 111 496 q 141 638 111 592 q 228 711 171 685 q 362 737 284 737 q 513 705 452 737 q 573 593 573 672 q 564 546 573 570 q 535 506 554 522 q 488 490 515 490 q 434 516 454 490 q 413 584 413 543 q 425 648 413 618 q 455 699 437 678 q 407 709 438 709 q 328 678 356 709 q 299 590 299 647 q 314 522 299 554 q 362 439 329 490 l 382 409 q 445 288 426 336 q 465 193 465 240 q 432 84 465 132 q 341 8 400 36 q 202 -20 281 -20 q 38 19 103 -20 q -27 142 -27 57 q -6 212 -27 183 q 52 241 15 241 q 109 211 88 241 q 130 133 130 181 q 124 83 130 106 q 112 43 118 60 q 103 20 105 26 m 398 950 q 146 847 279 885 l 140 867 q 328 983 240 910 q 471 1139 416 1057 l 496 1139 q 553 978 515 1041 q 662 867 591 914 l 656 847 q 511 890 570 866 q 398 950 452 915 z "},"ș":{"ha":583,"x_min":-27,"x_max":573,"o":"m 0 0 m 103 20 q 157 9 125 9 q 241 42 209 9 q 273 130 273 74 q 254 221 273 174 q 197 328 235 269 q 149 402 164 376 q 122 462 134 429 q 111 533 111 496 q 141 638 111 592 q 228 711 171 685 q 362 737 284 737 q 513 705 452 737 q 573 593 573 672 q 564 546 573 570 q 535 506 554 522 q 488 490 515 490 q 434 516 454 490 q 413 584 413 543 q 425 648 413 618 q 455 699 437 678 q 407 709 438 709 q 328 678 356 709 q 299 590 299 647 q 314 522 299 554 q 362 439 329 490 l 382 409 q 445 288 426 336 q 465 193 465 240 q 432 84 465 132 q 341 8 400 36 q 202 -20 281 -20 q 38 19 103 -20 q -27 142 -27 57 q -6 212 -27 183 q 52 241 15 241 q 109 211 88 241 q 130 133 130 181 q 124 83 130 106 q 112 43 118 60 q 103 20 105 26 m 161 -73 q 229 -96 201 -73 q 256 -159 256 -118 q 207 -275 256 -229 q 65 -335 157 -322 l 61 -308 q 154 -281 115 -303 q 199 -227 193 -260 q 119 -251 167 -251 q 58 -234 79 -251 q 36 -184 36 -217 q 52 -128 36 -153 q 97 -88 68 -103 q 161 -73 126 -73 z "},"ß":{"ha":844,"x_min":-82,"x_max":838,"o":"m 553 1065 q 469 1016 503 1065 q 407 857 435 966 l 118 -241 q -82 -261 2 -243 l 174 711 q 257 924 208 842 q 384 1046 307 1005 q 579 1086 462 1086 q 727 1067 669 1086 q 811 1017 785 1048 q 838 948 838 985 q 818 881 838 911 q 769 825 799 850 q 682 758 739 800 q 588 687 632 723 q 533 631 546 652 q 519 585 519 609 q 533 532 519 557 q 567 484 547 506 q 621 430 587 462 l 648 404 q 712 335 689 362 q 749 276 735 308 q 764 205 764 244 q 724 83 764 134 q 617 6 684 33 q 472 -20 551 -20 q 371 -1 414 -20 q 303 51 327 17 q 279 129 279 85 q 301 202 279 172 q 359 232 323 232 q 419 197 398 232 q 441 114 441 161 q 432 60 441 87 q 409 14 424 33 q 444 8 427 8 q 496 25 473 8 q 534 73 520 42 q 547 144 547 104 q 535 228 547 186 q 498 318 523 269 l 488 339 q 449 430 463 391 q 435 507 435 469 q 445 564 435 539 q 472 607 456 588 q 520 655 489 626 q 565 699 581 715 q 630 806 609 745 q 650 932 650 867 q 623 1033 650 1000 q 553 1065 596 1065 z "},"t":{"ha":491,"x_min":44,"x_max":557,"o":"m 228 118 q 224 90 224 103 q 265 49 224 49 q 324 78 296 49 q 375 168 353 108 l 396 225 l 422 225 l 395 144 q 186 -20 339 -20 q 80 17 115 -20 q 44 116 44 54 q 58 201 44 155 l 197 686 l 71 686 l 77 714 l 205 714 l 265 925 q 467 945 385 927 l 401 714 l 557 714 l 553 686 l 393 686 l 228 118 z "},"ŧ":{"ha":498,"x_min":41,"x_max":562,"o":"m 368 585 l 526 585 l 522 557 l 360 557 l 233 118 q 229 90 229 103 q 271 49 229 49 q 330 78 301 49 q 380 168 358 108 l 401 225 l 428 225 l 400 144 q 191 -20 345 -20 q 85 17 121 -20 q 50 116 50 54 q 63 201 50 155 l 165 557 l 41 557 l 48 585 l 173 585 l 202 686 l 76 686 l 83 714 l 210 714 l 271 925 q 473 945 390 927 l 406 714 l 562 714 l 558 686 l 398 686 l 368 585 z "},"ť":{"ha":491,"x_min":44,"x_max":795,"o":"m 44 0 m 228 118 q 224 90 224 103 q 265 49 224 49 q 324 78 296 49 q 375 168 353 108 l 396 225 l 422 225 l 395 144 q 186 -20 339 -20 q 80 17 115 -20 q 44 116 44 54 q 58 201 44 155 l 197 686 l 71 686 l 77 714 l 205 714 l 265 925 q 467 945 385 927 l 401 714 l 557 714 l 553 686 l 393 686 l 228 118 m 550 750 q 614 915 593 843 q 635 1018 635 987 q 616 1044 635 1044 l 621 1074 l 642 1073 q 659 1072 648 1072 q 793 1089 728 1072 q 795 1074 795 1086 q 735 935 795 1022 q 570 745 675 847 l 550 750 z "},"ţ":{"ha":491,"x_min":-83,"x_max":557,"o":"m 228 118 q 224 90 224 103 q 265 49 224 49 q 324 78 296 49 q 375 168 353 108 l 396 225 l 422 225 l 395 144 q 186 -20 339 -20 q 159 -18 176 -20 l 111 -96 q 184 -82 153 -82 q 245 -97 222 -82 q 269 -140 269 -112 q 235 -208 269 -181 q 150 -248 202 -235 q 41 -261 98 -261 q -32 -253 2 -261 q -83 -234 -65 -244 l -75 -212 q 9 -228 -30 -228 q 82 -214 46 -228 q 118 -164 118 -199 q 108 -141 118 -149 q 79 -132 98 -132 q 36 -142 56 -132 l 125 -10 q 64 36 84 3 q 44 116 44 68 q 58 201 44 155 l 197 686 l 71 686 l 77 714 l 205 714 l 265 925 q 467 945 385 927 l 401 714 l 557 714 l 553 686 l 393 686 l 228 118 z "},"ț":{"ha":491,"x_min":4,"x_max":557,"o":"m 4 0 m 228 118 q 224 90 224 103 q 265 49 224 49 q 324 78 296 49 q 375 168 353 108 l 396 225 l 422 225 l 395 144 q 186 -20 339 -20 q 80 17 115 -20 q 44 116 44 54 q 58 201 44 155 l 197 686 l 71 686 l 77 714 l 205 714 l 265 925 q 467 945 385 927 l 401 714 l 557 714 l 553 686 l 393 686 l 228 118 m 130 -73 q 197 -96 170 -73 q 224 -159 224 -118 q 175 -275 224 -229 q 33 -335 125 -322 l 29 -308 q 122 -281 83 -303 q 168 -227 161 -260 q 87 -251 135 -251 q 26 -234 47 -251 q 4 -184 4 -217 q 20 -128 4 -153 q 65 -88 37 -103 q 130 -73 94 -73 z "},"u":{"ha":829,"x_min":34,"x_max":788,"o":"m 771 229 l 734 123 q 657 14 707 47 q 547 -20 608 -20 q 445 28 472 -20 q 432 85 432 52 q 446 175 432 119 l 484 318 q 379 114 429 187 q 277 10 328 40 q 162 -20 225 -20 q 69 9 100 -20 q 37 94 37 39 q 56 191 37 136 l 191 600 q 199 640 199 625 q 172 669 199 669 q 85 560 124 669 l 60 493 l 34 493 l 68 595 q 255 737 117 737 q 380 623 380 737 q 361 516 380 577 l 236 142 q 224 83 224 104 q 250 50 224 50 q 350 135 292 50 q 468 360 409 220 q 571 659 528 500 l 587 718 q 788 737 709 720 l 614 118 q 605 73 605 87 q 629 49 605 49 q 676 74 654 49 q 718 158 697 99 l 745 229 l 771 229 z "},"ú":{"ha":829,"x_min":34,"x_max":788,"o":"m 34 0 m 771 229 l 734 123 q 657 14 707 47 q 547 -20 608 -20 q 445 28 472 -20 q 432 85 432 52 q 446 175 432 119 l 484 318 q 379 114 429 187 q 277 10 328 40 q 162 -20 225 -20 q 69 9 100 -20 q 37 94 37 39 q 56 191 37 136 l 191 600 q 199 640 199 625 q 172 669 199 669 q 85 560 124 669 l 60 493 l 34 493 l 68 595 q 255 737 117 737 q 380 623 380 737 q 361 516 380 577 l 236 142 q 224 83 224 104 q 250 50 224 50 q 350 135 292 50 q 468 360 409 220 q 571 659 528 500 l 587 718 q 788 737 709 720 l 614 118 q 605 73 605 87 q 629 49 605 49 q 676 74 654 49 q 718 158 697 99 l 745 229 l 771 229 m 411 845 q 515 1009 449 899 q 562 1085 545 1059 q 601 1133 579 1112 q 637 1160 616 1150 q 677 1169 657 1169 q 728 1149 706 1169 q 746 1107 746 1131 q 706 1031 746 1069 q 662 994 686 1011 q 590 946 638 977 q 425 832 492 884 l 411 845 z "},"ŭ":{"ha":829,"x_min":34,"x_max":816,"o":"m 34 0 m 771 229 l 734 123 q 657 14 707 47 q 547 -20 608 -20 q 445 28 472 -20 q 432 85 432 52 q 446 175 432 119 l 484 318 q 379 114 429 187 q 277 10 328 40 q 162 -20 225 -20 q 69 9 100 -20 q 37 94 37 39 q 56 191 37 136 l 191 600 q 199 640 199 625 q 172 669 199 669 q 85 560 124 669 l 60 493 l 34 493 l 68 595 q 255 737 117 737 q 380 623 380 737 q 361 516 380 577 l 236 142 q 224 83 224 104 q 250 50 224 50 q 350 135 292 50 q 468 360 409 220 q 571 659 528 500 l 587 718 q 788 737 709 720 l 614 118 q 605 73 605 87 q 629 49 605 49 q 676 74 654 49 q 718 158 697 99 l 745 229 l 771 229 m 518 999 q 667 1023 593 999 q 800 1095 741 1048 l 816 1081 q 729 975 783 1025 q 612 894 675 925 q 489 863 549 863 q 373 923 416 863 q 316 1080 330 983 l 338 1089 q 410 1019 370 1040 q 518 999 450 999 z "},"û":{"ha":829,"x_min":34,"x_max":788,"o":"m 34 0 m 771 229 l 734 123 q 657 14 707 47 q 547 -20 608 -20 q 445 28 472 -20 q 432 85 432 52 q 446 175 432 119 l 484 318 q 379 114 429 187 q 277 10 328 40 q 162 -20 225 -20 q 69 9 100 -20 q 37 94 37 39 q 56 191 37 136 l 191 600 q 199 640 199 625 q 172 669 199 669 q 85 560 124 669 l 60 493 l 34 493 l 68 595 q 255 737 117 737 q 380 623 380 737 q 361 516 380 577 l 236 142 q 224 83 224 104 q 250 50 224 50 q 350 135 292 50 q 468 360 409 220 q 571 659 528 500 l 587 718 q 788 737 709 720 l 614 118 q 605 73 605 87 q 629 49 605 49 q 676 74 654 49 q 718 158 697 99 l 745 229 l 771 229 m 475 950 q 224 847 357 885 l 217 867 q 405 983 317 910 q 549 1139 493 1057 l 574 1139 q 631 978 593 1041 q 739 867 669 914 l 734 847 q 589 890 648 866 q 475 950 530 915 z "},"ü":{"ha":829,"x_min":34,"x_max":788,"o":"m 34 0 m 771 229 l 734 123 q 657 14 707 47 q 547 -20 608 -20 q 445 28 472 -20 q 432 85 432 52 q 446 175 432 119 l 484 318 q 379 114 429 187 q 277 10 328 40 q 162 -20 225 -20 q 69 9 100 -20 q 37 94 37 39 q 56 191 37 136 l 191 600 q 199 640 199 625 q 172 669 199 669 q 85 560 124 669 l 60 493 l 34 493 l 68 595 q 255 737 117 737 q 380 623 380 737 q 361 516 380 577 l 236 142 q 224 83 224 104 q 250 50 224 50 q 350 135 292 50 q 468 360 409 220 q 571 659 528 500 l 587 718 q 788 737 709 720 l 614 118 q 605 73 605 87 q 629 49 605 49 q 676 74 654 49 q 718 158 697 99 l 745 229 l 771 229 m 259 939 q 276 1001 259 975 q 320 1042 292 1028 q 379 1056 347 1056 q 446 1030 422 1056 q 469 963 469 1005 q 452 901 469 927 q 408 860 435 874 q 349 846 380 846 q 282 871 304 846 q 259 939 259 897 m 575 939 q 592 1001 575 975 q 636 1042 608 1028 q 695 1056 663 1056 q 762 1030 739 1056 q 785 963 785 1005 q 768 901 785 927 q 724 860 751 874 q 665 846 696 846 q 598 871 621 846 q 575 939 575 897 z "}}}
